<svg xmlns="http://www.w3.org/2000/svg" xmlns:xlink="http://www.w3.org/1999/xlink" viewBox="0 0 76 50" fill="#fff" fill-rule="evenodd" stroke="#000" stroke-linecap="round" stroke-linejoin="round"><use xlink:href="#S" x=".5" y=".5"/><defs><linearGradient id="A" y2="-1.13%" x2="64.90%" y1="70.91%" x1="38.87%"><stop stop-color="#837c58" offset="29.2%"/><stop stop-color="#6f633c" offset="100%"/></linearGradient><linearGradient id="B" y2="-13.15%" x2="32.90%" y1="97.88%" x1="73.83%"><stop stop-color="#b7a988" offset="29.2%"/><stop stop-color="#827859" offset="79.2%"/></linearGradient><linearGradient id="C" y2="50.00%" x2="0.00%" y1="50.00%" x1="100.00%"><stop stop-color="#dfceaf" offset="19.1%"/><stop stop-color="#aa916f" offset="73.6%"/></linearGradient><linearGradient id="D" y2="50.00%" x2="100.00%" y1="50.00%" x1="-0.00%"><stop stop-color="#dfceaf" offset="13.5%"/><stop stop-color="#aa916f" offset="100%"/></linearGradient><linearGradient id="E" y2="50.00%" x2="-0.00%" y1="50.00%" x1="100.00%"><stop stop-color="#c9b676" offset=".6%"/><stop stop-color="#a59667" offset="59.6%"/></linearGradient><linearGradient id="F" y2="50.00%" x2="0.00%" y1="50.00%" x1="100.00%"><stop stop-color="#aa9a73" offset="6.7%"/><stop stop-color="#978761" offset="37.1%"/></linearGradient><linearGradient id="G" y2="49.99%" x2="100.00%" y1="49.99%" x1="0.00%"><stop stop-color="#aa9a73" offset="24.7%"/><stop stop-color="#9e8e68" offset="93.3%"/></linearGradient><linearGradient id="H" y2="50.00%" x2="-0.00%" y1="50.00%" x1="100.00%"><stop stop-color="#aa9a73" offset="6.7%"/><stop stop-color="#978761" offset="68.5%"/></linearGradient><linearGradient id="I" y2="50.01%" x2="100.01%" y1="50.01%" x1="0.00%"><stop stop-color="#aa9a73" offset="24.7%"/><stop stop-color="#9e8e68" offset="93.3%"/></linearGradient><linearGradient id="J" y2="32.24%" x2="61.24%" y1="67.75%" x1="38.76%"><stop stop-color="#837c58" offset="29.2%"/><stop stop-color="#827859" offset="38.2%"/><stop stop-color="#796a54" offset="46.1%"/><stop stop-color="#7c6d53" offset="67.4%"/><stop stop-color="#62542c" offset="80.3%"/></linearGradient><linearGradient id="K" y2="37.42%" x2="56.31%" y1="62.55%" x1="43.69%"><stop stop-color="#aa8f6f" offset="0%"/><stop stop-color="#dfceaf" offset="100%"/></linearGradient><linearGradient id="L" y2="45.24%" x2="51.83%" y1="54.76%" x1="48.18%"><stop stop-color="#aa9a73" offset="24.7%"/><stop stop-color="#978761" offset="86.5%"/></linearGradient><linearGradient id="M" y2="22.88%" x2="78.55%" y1="71.60%" x1="49.82%"><stop stop-color="#837c58" offset="29.2%"/><stop stop-color="#827859" offset="38.2%"/><stop stop-color="#796a54" offset="46.1%"/><stop stop-color="#7c6d53" offset="67.4%"/><stop stop-color="#62542c" offset="80.3%"/></linearGradient><linearGradient id="N" y2="26.58%" x2="64.62%" y1="61.08%" x1="49.77%"><stop stop-color="#aa8b6d" offset="0%"/><stop stop-color="#dfceaf" offset="100%"/></linearGradient><linearGradient id="O" y2="45.45%" x2="48.27%" y1="54.55%" x1="51.73%"><stop stop-color="#837c58" offset="29.2%"/><stop stop-color="#827859" offset="38.2%"/><stop stop-color="#796a54" offset="46.1%"/><stop stop-color="#7c6d53" offset="67.4%"/><stop stop-color="#62542c" offset="80.3%"/></linearGradient><linearGradient id="P" y2="39.84%" x2="45.75%" y1="60.16%" x1="54.25%"><stop stop-color="#aa916f" offset="65.2%"/><stop stop-color="#dfceaf" offset="100%"/></linearGradient><linearGradient id="Q" y2="43.49%" x2="47.59%" y1="56.50%" x1="52.41%"><stop stop-color="#aa9a73" offset="24.7%"/><stop stop-color="#978761" offset="86.5%"/></linearGradient><linearGradient id="R" y2="93.20%" x2="40.73%" y1="4.90%" x1="57.79%"><stop stop-color="#807452" offset="0%"/><stop stop-color="#b4ac95" offset="68.5%"/></linearGradient></defs><symbol id="S" overflow="visible"><g stroke="none" fill-rule="nonzero"><path d="M2.16 19.402s8.973-5.347 22.213-4.421 17.053 6.95 19.788 9.315c5.415 9.694-5.236 15.565-5.236 15.565l-4.853 2.255L4.739 25.907 2.16 19.4z" fill="url(#A)"/><path d="M3.451 21.116s7.857-5.005 19.452-4.139 16.938 6.21 19.331 8.424c4.743 9.076-6.588 14.869-6.588 14.869l-4.25 2.112L5.71 27.211l-2.258-6.093z" fill="url(#B)"/><path d="M3.763 22.535s7.489-4.788 18.541-3.959 16.162 5.863 18.445 7.981c4.566 8.746-6.298 14.3-6.298 14.3l-4.051 2.02L5.916 28.362l-2.152-5.828z" fill="url(#C)"/><path d="M4.364 23.7s7.177-4.507 17.768-3.727 15.107 5.415 17.295 7.408c4.376 8.234-5.654 13.566-5.654 13.566l-3.882 1.901L6.427 29.185l-2.062-5.486z" fill="url(#D)"/><path d="M5.165 25.503s6.742-4.271 16.691-3.532 14.36 5.17 16.415 7.059c4.111 7.802-5.48 12.816-5.48 12.816l-3.647 1.802L7.103 30.703l-1.937-5.199z" fill="url(#E)"/><path d="M5.967 26.876s6.402-3.999 15.849-3.307 13.183 4.848 15.134 6.617c3.904 7.306-4.751 11.995-4.751 11.995l-3.435-.385L6.747 28.644l-.78-1.769z" fill="#bcac6f"/><path d="M6.969 27.91s5.926-3.799 14.67-3.142 11.635 4.456 13.441 6.137c3.613 6.94-3.83 11.543-3.83 11.543l-3.18-.365L7.692 29.59l-.723-1.679z" fill="url(#F)"/><path d="M7.57 28.835s5.477-3.47 13.559-2.87 10.754 4.071 12.424 5.606c3.339 6.34-3.54 10.544-3.54 10.544l-2.939-.334L8.238 30.368l-.668-1.534z" fill="url(#G)"/><path d="M8.371 29.835s8.683-5.205 18.702-1.001c13.426 5.539 1.737 13.547 1.737 13.547L8.372 29.836z" fill="url(#H)"/><path d="M9.306 30.902s6.479-4.805 16.497-1.134c13.359 5.873 2.138 12.012 2.138 12.012L9.306 30.902z" fill="url(#I)"/><path d="M6.458 26.433c-.14-.115-.239-.671-.318-1.184L.002 21.649v1.794l7.779 4.498-.228-.64c-.139-.218-.841-.659-1.096-.866z" fill="#bcac6f"/><path d="M4.29 21.508c-.137-.24-.466-.389-.918-.758s-.611-1.511-.611-1.511L.002 17.633v2.283l4.459 2.606c-.055-.445-.103-.893-.171-1.013z" fill="url(#J)"/><path d="M4.68 23.518c-.1-.106-.163-.55-.219-.996L.002 19.916v1.734l6.138 3.599-.162-.906c-.106-.215-1.1-.611-1.299-.823z" fill="url(#K)"/><path d="M31.263 41.517c-.128.018-.254.029-.366.028-.357-.004-1-.197-1.386-.188s-1.146.166-1.402-.016-17.755-10.561-17.948-10.71-.736-.954-1-1.132-.841-.425-1.033-.655c-.109-.13-.233-.536-.346-.905L0 23.443v2.998l37.832 22.022v-3.147l-6.571-3.799z" fill="url(#L)"/><path d="M37.833 39.654l-2.249-1.309s-.01-.185-.119-.069-.092.613-.29.763-.556.2-.776.414c-.111.108-.194.257-.28.401l3.713 2.17v-2.371z" fill="url(#M)"/><path d="M34.121 39.856c-.084.142-.17.278-.285.367-.232.179-.898-.079-1.12.147-.075.077-.144.2-.213.334l5.331 3.125v-1.803l-3.713-2.172z" fill="url(#N)"/><path d="M32.038 41.329a4.17 4.17 0 0 1-.775.188l6.57 3.799v-1.487l-5.331-3.125c-.133.257-.269.554-.465.624z" fill="#bcac75"/><path d="M37.833 42.457l36.869-21.423v-2.801L37.833 39.654z" fill="url(#O)"/><path d="M37.833 48.463l36.869-21.421v-6.406l-5.965 3.466c-2.557 1.597-8.825 5.892-11.527 7.098s-10.319 5.842-12.397 6.802-6.981 4.056-6.981 4.056v6.405z" fill="url(#P)"/><path d="M37.833 48.463l36.869-21.421v-4.604l-14.521 9.238c-1.615.929-6.102 2.859-10.496 5.298S37.833 43.86 37.833 43.86v4.605z" fill="#bcac6f"/><path d="M37.833 48.463l36.869-21.421v-3.203l-14.562 9.42c-1.624.947-8.117 4.032-9.83 5.017l-12.477 6.985v3.203z" fill="url(#Q)"/></g><g stroke="#231f20" stroke-linejoin="bevel" stroke-width=".149"><path d="M37.834 39.654l36.869-21.421L37.834 0 .002 17.632l2.759 1.606s16.627-6.861 29.145-1.625c26.384 9.597 3.527 20.553 3.56 20.664s.119.069.119.069l2.249 1.309h-.002z" fill="url(#R)" fill-rule="nonzero"/><g fill="none"><path d="M37.833 48.463l36.869-21.421v-8.809L37.833 39.654z"/><path d="M37.834 48.463L.002 26.439v-8.808l2.759 1.606s.159 1.14.611 1.511.781.519.918.758.191 1.797.39 2.009 1.194.608 1.299.824.225 1.883.479 2.091.957.649 1.095.868.382 1.315.575 1.545.768.477 1.033.655.807.983 1 1.132 17.692 10.528 17.948 10.71 1.016.027 1.402.016 1.029.184 1.386.188.845-.109 1.141-.216.456-.734.677-.96.888.032 1.12-.147.345-.554.565-.768.578-.264.776-.414.181-.648.29-.763.119.069.119.069l2.249 1.309v8.81z"/></g></g></symbol></svg>