<svg xmlns="http://www.w3.org/2000/svg" xmlns:xlink="http://www.w3.org/1999/xlink" viewBox="0 0 76 57" fill="#fff" fill-rule="evenodd" stroke="#000" stroke-linecap="round" stroke-linejoin="round"><style><![CDATA[.B{fill:#ebaa4f}.C{fill:#512c23}.D{fill:#d88e28}.E{fill:#1c140f}.F{fill:#c68324}.G{fill:#e5ad53}.H{fill:#4c3c31}.I{fill:url(#A)}.J{fill:#c4862f}.K{fill:#a57137}]]></style><use xlink:href="#J" x=".5" y=".5"/><defs><linearGradient id="A" x1="0.00%" y1="50.00%" x2="100.00%" y2="50.00%"><stop offset="0%" stop-color="#433f3c"/><stop offset="100%" stop-color="#272823"/></linearGradient><linearGradient id="B" x1="0.00%" y1="50.00%" x2="100.00%" y2="50.00%"><stop offset="0%" stop-color="#4c4140"/><stop offset="61.2%" stop-color="#433f3c"/><stop offset="100%" stop-color="#2b2c27"/></linearGradient><linearGradient id="C" x1="-0.00%" y1="50.00%" x2="100.00%" y2="50.00%"><stop offset="0%" stop-color="#4c4140"/><stop offset="61.2%" stop-color="#433f3c"/><stop offset="100%" stop-color="#2b2c27"/></linearGradient><linearGradient id="D" x1="-0.00%" y1="50.00%" x2="100.00%" y2="50.00%"><stop offset="46.7%" stop-color="#97754c"/><stop offset="100%" stop-color="#4f473f"/></linearGradient><linearGradient id="E" x1="-0.00%" y1="50.00%" x2="100.00%" y2="50.00%"><stop offset="15.8%" stop-color="#c3904e"/><stop offset="100%" stop-color="#a27c4d"/></linearGradient><linearGradient id="F" x1="0.00%" y1="50.00%" x2="100.00%" y2="50.00%"><stop offset="0%" stop-color="#394048"/><stop offset="3.5%" stop-color="#3a4047"/><stop offset="15.6%" stop-color="#393c42"/><stop offset="28.5%" stop-color="#35363a"/><stop offset="42.3%" stop-color="#2a2a2d"/><stop offset="57.4%" stop-color="#19191a"/><stop offset="74.9%" stop-color="#070707"/><stop offset="100%"/></linearGradient><linearGradient id="G" x1="0.00%" y1="50.00%" x2="100.00%" y2="50.00%"><stop offset="0%" stop-color="#ebaa4f"/><stop offset="30.8%" stop-color="#dea24e"/><stop offset="78.2%" stop-color="#c18f4e"/><stop offset="100%" stop-color="#b2864e"/></linearGradient><path id="H" d="M24.992 44.912c0 3.789-3.6 6.861-8.04 6.861s-8.184-3.215-8.184-7.004 3.493-6.575 7.933-6.575 8.291 2.929 8.291 6.718z"/><path id="I" d="M16.434 44.984c1.671.501 3.016-.462 3.528-.912-.54-1.182-1.968-2.074-3.26-2.144-1.157-.063-2.074.441-2.639 1.105.29.589.956 1.525 2.372 1.95z"/></defs><symbol id="J" overflow="visible"><g stroke="none" fill-rule="nonzero"><path d="M5.201 39.479l1.953-2.305H5.201z" fill="#100d16"/><path d="M2.895 35.025v2.813h-.742v4.257h.352l.234.357v1.572h2.11s-.156-2.787.195-3.491l.352-.625v-1.797-.273-2.813h-2.5z" fill="#5e4b36"/><path d="M21.418 36.729l1.93-3.538 3.645 3.431z" fill="#100d16"/><path d="M59.939 38.541L62.4 36.08l-4.259.078z" class="H"/><path d="M61.013 42.899c.006.331-.126 1.346-.449 2.64-.194.777-.962 2.006-1.552 2.649-2.251 2.456-5.15 3.158-8.594 3.109-5.833-.083-9.166-4.395-9.22-8.362-.061-4.556 2.593-8.562 8.452-8.827 9.505-.429 11.292 4.627 11.364 8.791z" class="E"/><path d="M59.584 44.041c.078 3.908-4.013 7.139-8.961 7.078-5.833-.072-9.049-4.431-9.121-7.225-.1-3.908 3.628-6.874 8.576-6.997 5.738-.143 9.434 3.574 9.505 7.145z" class="I"/><path d="M25.546 38.926l1.072-1.662.322.536-.965 1.555zm-2.305-2.68l3.002-.161.322.697-1.34.053-.322.858z" class="H"/><path d="M2.427 27.641h.469v10.276h-.469z" class="E"/><path d="M17.076 26.865l2.689 4.069 3.596.197-3.927-6.089-1.394.054zm37.308 5.896l-2.909-4.386 1.815.226 7.758 4.447zm-2.186-.097l-2.906-4.566-20.262-1.769 3.323 5.414zm-22.364-1.297l-2.787-4.127-4.02-1.287 3.323 5.199z" class="B"/><path d="M2.872 21.934l-.965 4.181v1.608h1.93l.536 1.287 2.734-2.627z" fill="#d7a25e"/><path d="M27.136 43.554c.006.331.088 1.56-.235 2.854-.194.777-.962 1.791-1.552 2.435-2.251 2.456-5.344 3.12-8.788 3.151-4.831.044-9.272-3.585-9.24-8.405.03-4.556 2.593-8.562 8.451-8.827 9.506-.429 11.293 4.628 11.364 8.791z" class="E"/><path d="M25.707 44.695c.078 3.908-4.012 7.139-8.961 7.078-5.833-.072-9.049-4.431-9.121-7.225-.1-3.908 3.629-6.874 8.576-6.997 5.738-.143 9.434 3.574 9.506 7.145z" class="I"/><use xlink:href="#H" fill="url(#B)"/><path d="M16.648 41.017c2.627 0 4.717 2.144 4.717 4.127 0 1.448-1.394 3.538-4.663 3.431-2.786-.091-4.503-2.305-4.503-3.806.107-2.198 1.822-3.752 4.449-3.752z" class="B"/><path d="M16.973 47.683c-.151 0-.302-.007-.452-.021-1.83-.172-3.303-1.841-3.303-3.108 0-1.228 1.336-2.953 3.496-2.841 1.692.091 3.628 1.506 3.687 3.262.022.648-.201 1.233-.643 1.69-.616.637-1.657 1.018-2.784 1.018zm-.465-5.546c-1.773 0-2.862 1.408-2.862 2.417 0 1.084 1.345 2.534 2.915 2.681l.412.019h0c1.013 0 1.939-.331 2.476-.887.364-.377.54-.84.522-1.378-.05-1.507-1.805-2.769-3.281-2.848l-.182-.005z" fill="#695e4a"/><path d="M16.541 45.787c-1.652-.141-2.437-1.434-2.854-2.196-.166.322-.255.655-.255.963 0 1.179 1.394 2.734 3.109 2.895s3.706-.644 3.645-2.466a2.25 2.25 0 0 0-.021-.239c-.588.45-1.914 1.304-3.624 1.043z" class="B"/><path d="M16.433 44.983c-1.416-.425-2.081-1.361-2.372-1.95a2.92 2.92 0 0 0-.376.558c.418.762 1.202 2.055 2.854 2.196 1.71.26 3.036-.594 3.624-1.043a2.47 2.47 0 0 0-.202-.672c-.512.45-1.857 1.413-3.528.912z" class="J"/><use xlink:href="#I" class="C"/><path d="M63.925 34.638l-2.948-1.822-41.366-2.13 1.129 1.724z" class="F"/><path d="M59.512 46.913c.005.331-.126 1.346-.449 2.64-.194.777-.962 2.006-1.552 2.649-2.251 2.456-5.15 3.158-8.594 3.109-5.833-.083-9.166-4.395-9.22-8.362-.061-4.556 2.593-8.562 8.452-8.827 9.505-.429 11.293 4.627 11.364 8.791z" class="E"/><path d="M58.083 48.054c.078 3.908-4.012 7.139-8.961 7.078-5.833-.072-9.049-4.431-9.121-7.225-.1-3.908 3.629-6.874 8.576-6.997 5.738-.143 9.434 3.574 9.505 7.145z" class="I"/><use xlink:href="#H" x="32.376" y="3.359" fill="url(#C)"/><path d="M49.024 44.376c2.627 0 4.717 2.144 4.717 4.127 0 1.448-1.394 3.538-4.663 3.431-2.786-.091-4.502-2.305-4.502-3.806.107-2.198 1.822-3.752 4.449-3.752z" class="B"/><path d="M49.349 51.043a4.88 4.88 0 0 1-.453-.021c-1.83-.172-3.303-1.841-3.303-3.108 0-1.228 1.337-2.953 3.496-2.841 1.692.091 3.628 1.506 3.687 3.262.021.648-.201 1.233-.643 1.69-.617.637-1.657 1.018-2.784 1.018zm-.465-5.547c-1.773 0-2.862 1.408-2.862 2.417 0 1.084 1.345 2.534 2.915 2.681l.412.019h0c1.013 0 1.939-.331 2.476-.887.364-.377.54-.84.522-1.378-.05-1.507-1.805-2.769-3.281-2.848l-.182-.005z" fill="#695e4a"/><path d="M48.917 49.146c-1.652-.141-2.437-1.434-2.854-2.196a2.14 2.14 0 0 0-.255.963c0 1.179 1.394 2.734 3.109 2.895s3.706-.644 3.645-2.466c-.003-.08-.01-.16-.021-.239-.588.45-1.913 1.304-3.624 1.043z" class="B"/><path d="M48.809 48.343c-1.416-.425-2.081-1.361-2.372-1.95-.151.177-.277.366-.376.558.418.762 1.202 2.055 2.854 2.196 1.71.26 3.036-.594 3.624-1.043a2.47 2.47 0 0 0-.202-.672c-.512.45-1.857 1.413-3.528.912z" class="J"/><use xlink:href="#I" x="32.376" y="3.359" class="C"/><path d="M10.054 35.228l12.436.697-2.305-2.251-10.077-.375z" fill="#59473b"/><path d="M20.185 33.673l2.305 2.251s.536-.482.75-.911.161-1.126.161-1.126-.75-.161-1.501-.161-1.715-.054-1.715-.054z" class="H"/><path d="M63.8 35.549l-.5.572-17.51 1.001-6.575.929s-1.001 2.43-1.287 4.074-.214 4.217-.214 4.217l-4.431.143c-2.144.071-3.931-.643-3.931-.643v-7.004l4.931-2.287 15.652-1.93 13.866.929z" class="J"/><path d="M39.215 38.051s-1.001 2.43-1.287 4.074-.214 4.217-.214 4.217l1.93-4.145 2.251-4.288-2.68.143z" class="C"/><path d="M2.628 23.057L0 17.038 5.001 4.577 12.291 0l17.716.678 7.036 1.611L63.067 3.56l11.698 6.442.085 1.695-8.472 22.464-12.296-6.696-26.617-1.611-6.951-1.78z" fill="#dfbe8f"/><path d="M.858 17.038L5.645 5.006 12.506.643l13.737.532 3.766.146 7.036 1.825 25.809 1.057 11.354 6.228v1.267l-8.578 22.056-11.547-6.289-26.617-1.611-6.951-1.78-16.998-.967z" fill="url(#D)"/><path d="M26.364 1.182l3.644.139 7.036 1.825 25.809 1.057 11.269 6.228.085 1.267L34.67 14.75z" fill="url(#E)"/><path d="M33.211 38.551c.107 0 1.501.107 1.501.107l1.215-1.858-1.322.035-1.394 1.715z" class="C"/><path d="M25.091 16.53c-.258.124-.714-.974-.492-1.25.27-.335.442-.114.492-.615.017-.171-.039-.356.102-.496.054-.054.296-.063.386-.117.237-.142.333-.463.428-.676.12-.267.202-.586.44-.814.204-.195.428-.221.57-.46.114-.191.049-.303.104-.494.035-.121.145-.188.19-.318l.137-.033c.198-.377.273-.818.271-1.255-.002-.403.077-.903.486-1.125.221-.12.477.024.705-.058.138-.05.336-.252.441-.341.252-.214.771-.593.843-.918.299-.069.374-.443.513-.673.158-.262.278-.411.511-.591.274-.211.371-.28.739-.278.157.001.355.032.508 0 .206-.043.306-.157.509-.173.274-.021.576.395.83.071.074-.094.011-.355.036-.472.017-.08.125-.373.163-.443.442-.811.908-.023 1.514 0 .292.011.578-.097.85-.167.325-.084.651-.093 1.015-.087s.589.144.933.169c.402.03.663-.021 1.02.148.554.264 1.152.532 1.778.53.293-.001.747-.086 1.021.015.304.111.361.406.564.602.274.266.855.146 1.212.146.436 0 .872-.02 1.271.085.37.098.598.303.999.358.407.056.695.148 1.017.424.295.253.51.419.885.471.469.066.723.042 1.168-.066.163-.04.406-.171.598-.089.197.085.148.274.269.409.321.358.731.062 1.153.118.045.139.115.202.187.32.152.249.022.177.336.256.397.1.618.057.911.365.252.265.305.364.7.4.375.035.662-.131 1.019-.087.654.082 1.249.322 1.948.341.34.009.693.072 1.017.151.15.037.258.087.404.124s.361.029.51.083c.509.186.939.542 1.357.848.515.377 1.063.505 1.563.81.271.166.344.271.469.548.11.243.259.617.506.765.591.355 1.171-.289 1.65-.577.255-.153.657-.247.912-.379.21-.108.784-.326 1.008-.242.031.247.054.585.013.834-.056.332-.218.245-.339.509l-17.038 3.136-23.311.254z" fill="#0b1013"/><path d="M69.085 18.988c-.471-.391-.273-.965-.419-1.53-.145-.558-.57-.643-1.007-.858-.035-.1-.035-.209 0-.31.195-.097.61-.112.563-.417-.04-.263-.501-.542-.729-.511-.298.041-.416.287-.782.24l-1.009-.107c.121-.347.499-.45.818-.597a1.2 1.2 0 0 1 .53-.149c.198-.014.416.069.498-.151-.206-.058-.242-.236-.411-.341-.125-.078-.275-.069-.408-.12-.317-.121-.576-.118-.938-.164-.316-.873 1.969-.772 1.668-1.498-.658-.316-1.554-.245-2.168.157-.307.201-.561.42-.954.421-.352.001-.648-.184-.606-.58-.407-.052-.805.033-1.169.077-.224.026-.395.031-.598.08-.14.034-.312.132-.443.151-.397.058-.802.111-1.019-.215-.13-.195-.234-.555-.505-.682-.319-.15-.813-.009-1.153-.119-.156-.05-.311-.207-.507-.258-.169-.044-.327-.07-.527-.064-.812.025-1.61.524-1.88-.581-.596-.077-1.017.242-1.596.242-.951-.001-.209-.71-.786-1.004-.226.173-.634.034-.914.068s-.496.06-.777.023c-.175-.023-.324-.02-.494-.081-.108-.039-.134-.164-.246-.197-.28-.082-.671.115-.94-.011-.354-.165-.104-.592-.31-.773-.116-.101-.666.024-.873.025-.391 0-1.461.147-1.54-.409-.299-.044-.698-.055-1.003-.017-.267.033-.663.254-.92.159.085-.812-1.237-.596-1.708-.581-.386.013-.727-.037-1.104-.083-.224-.028-.266-.108-.511-.025-.115.039-.208.166-.33.197-.373.094-.626-.021-.96.227-.264.195-.395.408-.634.614-.713.615-.454-1.145-.629-1.509-.432.004-.683-.169-1.087.071-.383.227-.166.626-.399.872-.226.238-.694.053-.953.145-.364.129-.576.409-.919.527-.335.116-.803-.017-1.123.149-.342.178-.281.501-.528.748-.128.128-.265.117-.405.184-.155.075-.285.254-.445.319-.263.108-.102.056-.316-.063-.149-.083-.146-.254-.409-.155-.097.366-.227.543-.608.578l-.928.089c-.364.055-.712.05-1.043.229-.237.129-.457.315-.66.443-.177.111-.14.174-.422.172-.153-.001-.307-.091-.421-.091-.143 0-.276.07-.427.091-.166.023-.35-.036-.513-.004-.374.073-.42.389-.692.583-.174.124-.527.299-.729.368-.085.584.309 1.343-.121 1.829-.413.467-1.09.372-1.422.871-.319.48-.168 1.287-.168 1.863 0 .731-.06 1.036-.659 1.464-.496.355-.699.706-.697 1.333 0 .146.044.37.004.508-.047.161-.19.227-.241.356-.135.339.097.619.157.911a1.71 1.71 0 0 1-.003.515c-.038.182-.166.221-.175.424-.012.295.382.487.411.759.041.383-.134.554.123.932.148.218.331.385.509.583.04-.017.996.776.996.776l28.312 1.95 7.883 4.239c.279-.131.583-.68.782-.914.137-.161.309-.323.492-.421.241-.129.404-.061.676-.104.587-.094.655-.579 1.102-.849.417-.252.722-.266 1.191-.335.35-.052.688-.445.867-.744.144-.242.212-.422.231-.701.021-.3.106-.406.174-.678.116-.466-.004-1.126-.004-1.61v-.763a1.71 1.71 0 0 1 .186-.664c.109-.218.851-.338.984-.709.07-.196-.051-.454-.068-.661a1.35 1.35 0 0 1 .104-.678c.18-.436.663-.633.744-1.102.086-.497-.229-.971 0-1.441l.085-.933z" fill="#846962"/><path d="M61.54 25.769c-.161.126-.401.09-.597.17-.173.071-.295.23-.417.341-.231.21-.504.572-.515.926-.014.449.289.632.449 1.001.193.443-.157.88-.091 1.362.485.234 1.392.143 1.85-.07.444-.207.235-.473.335-.852.085-.322.334-.398.597-.504.489-.197 1.139-.406 1.361-.928a2.14 2.14 0 0 0 .082-1.024c-.108-.454-.28-.249-.581-.153.054.452-.59.804-.947.833-.417.034-.483-.033-.508-.424-.021-.317-.277-.654-.424-.509s-.594-.17-.594-.17z" fill="#8c7364"/><path d="M63.661 28.397c-.067.104-.6.706-.237 1 .037.03.431.1.487.106a4.18 4.18 0 0 1 .575.103c.365.092.739.068 1.064-.169.237-.173.804-.621.895-.801s.44-2.195-.565-1.921c-.139.075-.04.182-.042.293s-.508.352-.716.564c-.225.23-.602.533-.939.498-.018.071.057.14-.013.242s-.441-.019-.509.085z" fill="#887462"/><path d="M65.864 16.784c-.556-.006-1.001-.228-1.42.275-.153.184-.315.343-.362.571-.062.298.071.642.006.938-.103.47-.661.659-.788 1.181-.176.721.191 1.094.955.937.45-.093.721-.587 1.1-.848.439-.301 1.017-.182 1.101-.85.036-.286-.08-.644.017-.915s.292-.312.221-.678c-.015-.076-.131-.162-.155-.269-.038-.168.034-.312.066-.447.026-.11.161-.207.095-.322-.08-.139-.356-.092-.483-.066-.054.109-.053.185-.099.324s-.254.169-.254.169z" fill="#937d6c"/><path d="M31.618 15.851c-.254-.019-.972.053-1.086.186s-.272.522-.372.815c-.341.103-.66.478-.998.612-.415.165-.894.344-.767.932.037.173.255.33.263.504.007.168-.217.407-.325.534-.33.39-.662.511-.602 1.066.343.044.653.073.898-.178.2-.204.228-.522.506-.68.579-.328 1.354-.162 1.973-.422.412-.173.534-.32.699-.723.119-.29.3-.447.492-.673a1.34 1.34 0 0 0 .334-.871c.011-.451-.287-.605-.593-.508s-.17-.575-.424-.594z" fill="#ad9282"/><path d="M38.145 9.918c-.12.176-.508.101-.701.229-.246.164-.264.526-.485.703-.262.209-.437.123-.763.165s-.548.185-.835.273c-.127.373 1.16.23 1.409.259.303.035.353.06.631-.085.198-.103.39-.268.572-.341.496-.2 1.005-.122 1.528-.276.294-.086.315-.082.485-.358.122-.197.151-.457.269-.637-.282-.042-.481.016-.736.086-.241.066-.56.062-.781.066s-.593-.085-.593-.085z" fill="#1c211b"/><path d="M30.784 12.028c-.101-.159-.538-.112-.701-.023-.225.122-.331.43-.547.555-.202.117-.425.063-.637.21-.218.151-.332.325-.419.598-.284.083-.502.493-.768.673-.191.13-.58.243-.562.515.267-.004.56.153.837.165.352.015.444-.146.748-.25.031-.508.247-.863.776-.92.271-.029.467.037.618-.248.128-.24.039-.506.163-.751l.139-.031c.025-.049.354-.495.354-.495z" fill="#0e1d18"/><path d="M65.356 15.851c-.2-.006-1.22.078-1.782.337-.247.114-.522.259-.593.509-.086.303.103.6-.321.695-.049.283-.436.638-.343.905.448.094.549-.235.752-.56.215-.345.472-.67.843-.852.313-.154.7-.266 1.017-.358.227-.066 1.092.031.922-.409-.05-.023-.132-.067-.156-.013s-.139-.249-.339-.254z" fill="#0e1811"/><path d="M65.186 12.376c.021-.126-.262-.107-.407-.068-.138.037-.138.191-.341.167-.173.638-1.007.782-1.394 1.234-.301.351-.127.623-.227 1.04-.081.336-.506.837.235.664.057-.196.172-.486.35-.602.215-.141.517-.048.752-.162.055-.377-.057-.683.203-1.002.2-.245.453-.342.49-.678 0 0 .318-.467.34-.593z" fill="#111814"/><path d="M17.076 26.866l4.074 6.165-.214.536-10.506-.429-.804.268H6.034l-.804-.911-.858-.054V29.01l2.734-2.627z" fill="url(#F)"/><path d="M19.757 25.043h-.322l4.605 7.141.332.016z" class="K"/><path d="M21.258 25.043h-1.501l4.616 7.157 1.604.079z" class="G"/><path d="M26.51 31.02l-3.109-4.878-2.144-1.099 4.719 7.236z" class="D"/><path d="M25.76 25.418h-.322l4.551 7.057.332.016z" class="K"/><path d="M27.995 26.544h-1.509l3.836 5.947 1.603.079-3.93-6.026z" class="G"/><path d="M32.354 31.369l-2.868-4.717-1.444-.036 3.883 5.955z" class="D"/><path d="M48.959 28.218l-.335-.021 3.457 5.36.332.016z" class="K"/><path d="M50.537 28.317l-1.578-.099 3.454 5.355 1.603.079z" class="G"/><path d="M54.438 32.494l-2.534-4.118-1.367-.059 3.48 5.335z" class="D"/><path d="M11.64 30.087l-2.77-.099.169.273 2.602.11z" fill="#8d1c36"/><path d="M9.038 30.261l.343.555v1.625l2.259.09v-2.159z" class="F"/><path d="M18.468 30.34l-6.285-.233v.286l6.518.276z" fill="#8d1c36"/><path d="M20.255 32.872l-1.555-2.202-6.518-.276v2.158l2.576.102v-1.409l2.945.105v1.422z" class="F"/><path d="M20.936 33.566l44.719 2.251-1.944-1.447-42.971-1.961z" fill="#e4aa46"/><path d="M21.365 33.834s1.447.107 2.037.268.876.161 1.733 1.305l2.716 3.895c.215.071 5.11-.179 5.307-.268s1.018-1.412 1.662-1.823 10.71-1.152 10.71-1.152l6.085-.944-1.607-.138-29.071-1.412-10.506-.429v.578l10.935.118z" class="B"/><path d="M34.069 39.195s.322-.804.804-1.501.965-1.072.965-1.072l11.256-1.233-1.179 2.412-11.846 1.394z" class="D"/><path d="M45.915 37.801l1.179-2.412v.429l-1.179 2.466z" class="C"/><path d="M34.068 39.194L45.914 37.8v.482l-11.846 1.501zM5.23 37.479h3.538l.858-.75v-3.324H6.034l-.804-.911-.858-.054.375.697h.482z" class="G"/><path d="M9.626 36.729v-3.323l.804-.268v3.249z" class="D"/><path d="M2.628 23.057l1.441 3.306 13.732.848.424-1.78h1.865l6.781 2.035 26.278 1.441 12.506 6.911.723-1.655-12.296-6.696-26.617-1.611-6.951-1.78z" class="F"/><path d="M2.628 23.057l.287.657 17.176 1.073 6.781 1.82 26.921 1.441 12.228 6.932.357-.818-12.296-6.696-26.617-1.611-6.951-1.78z" fill="#dfbe8f"/><path d="M54.277 34.531l.161.429 1.231.049-.159-.424zm2.311.139l.161.429 1.231.048-.159-.424zm2.367.139l.161.429 1.231.048-.159-.423z" fill="#1f1b0e"/><path d="M26.243 1.175L12.506.643 5.645 5.006.858 17.038l2.658 6.069 13.806.785z" fill="url(#G)"/></g></symbol></svg>