<svg xmlns="http://www.w3.org/2000/svg" xmlns:xlink="http://www.w3.org/1999/xlink" viewBox="0 0 76 58" fill="#fff" fill-rule="evenodd" stroke="#000" stroke-linecap="round" stroke-linejoin="round"><style><![CDATA[.B{stroke-linejoin:miter}.C{fill-rule:nonzero}.D{stroke-width:.075}.E{stroke:none}.F{stroke:#536b6d}]]></style><use xlink:href="#J" x=".5" y=".5"/><defs><linearGradient id="A" y2="0.00%" x2="50.00%" y1="100.00%" x1="50.00%"><stop stop-color="#b3d0ea" offset=".6%"/><stop stop-color="#84b8df" offset="100%"/></linearGradient><linearGradient id="B" y2="0.00%" x2="50.00%" y1="100.00%" x1="50.00%"><stop stop-color="#9fc3d6" offset="0%"/><stop stop-color="#3088aa" offset="100%"/></linearGradient><linearGradient id="C" y2="100.01%" x2="50.00%" y1="0.02%" x1="50.00%"><stop stop-color="#94bcd1" offset="0%"/><stop stop-color="#6ea5c0" offset="29.3%"/><stop stop-color="#5094b4" offset="57.9%"/><stop stop-color="#3a8bac" offset="82.4%"/><stop stop-color="#3088aa" offset="100%"/></linearGradient><linearGradient id="D" y2="0.01%" x2="50.00%" y1="100.00%" x1="50.00%"><stop stop-color="#b7b5b1" offset="0%"/><stop stop-color="#b0afac" offset="27.8%"/><stop stop-color="#9fa2a0" offset="62.2%"/><stop stop-color="#8e9494" offset="90.1%"/><stop stop-color="#6d7c7d" offset="100%"/></linearGradient><linearGradient id="E" y2="100.00%" x2="50.00%" y1="-0.01%" x1="50.00%"><stop stop-color="#b7b5b1" offset="0%"/><stop stop-color="#b0afac" offset="19.3%"/><stop stop-color="#9fa2a0" offset="43.3%"/><stop stop-color="#8e9494" offset="62.6%"/><stop stop-color="#6d7c7d" offset="100%"/></linearGradient><linearGradient id="F" y2="-141.31%" x2="75.50%" y1="278.25%" x1="24.80%"><stop stop-color="#fff" offset="0%"/><stop stop-color="#ecf8fe" offset="34.3%"/><stop stop-color="#d3e0e7" offset="88.8%"/></linearGradient><linearGradient id="G" y2="-168.55%" x2="75.14%" y1="316.04%" x1="25.08%"><stop stop-color="#fff" offset="0%"/><stop stop-color="#ecf8fe" offset="19.7%"/><stop stop-color="#e6ebee" offset="88.8%"/></linearGradient><linearGradient id="H" y2="-168.51%" x2="75.15%" y1="315.83%" x1="25.13%"><stop stop-color="#fff" offset="0%"/><stop stop-color="#ecf8fe" offset="19.7%"/><stop stop-color="#e6ebee" offset="88.8%"/></linearGradient><path id="I" d="M27.11 48.021c-.166.048-.298.094-.486.093s-.359-.003-.525.054l-.419.159c-.329.122-.68.077-1.007.213-.162.067-.305.116-.451.221-.092.066-.375.23-.28.267s.496.108.61.091l.244-.029c.074-.009.146-.05.212-.064.16-.034.329-.019.489-.061a1.73 1.73 0 0 1 .427-.059c.173.001.322-.041.488-.062.319-.039.568-.085.801-.328l.244-.242c.076-.084.296-.158.246-.283-.121.096-.448-.013-.59.028zm.988-1.08l.505-.119c.053-.012.112.004.164-.011.044-.013.086-.053.131-.07.087-.032.166-.043.25-.075s.184-.036.276-.068.181-.049.276-.076l.525-.149c.077-.027.25-.05.182-.164-.029-.049-.154-.086-.207-.094-.107-.017-.227.001-.327.026-.087.022-.183.026-.275.049-.103.026-.194.064-.3.077s-.201 0-.301.023c-.196.044-.399.012-.6.001l-.626-.025-.601.025c-.181.015-.356.087-.526.152-.175.067-.359.106-.532.193-.157.079-.289.174-.445.264s-.322.177-.5.238-.354.055-.552.079a4.53 4.53 0 0 0-.524.101c-.192.047-.538.263-.472.272s.573.067.722.007.191-.02.276-.028l.3-.025c.186 0 .356-.036.526-.075l.5-.127c.162-.04.336-.038.501-.079.099-.025.197-.01.3-.02s.177-.061.275-.076.162-.022.25-.048.185-.039.276-.051c.11-.015.193-.02.301-.05l.254-.075zm-2.845-3.215c-.163.406-.415.725-.755 1.013l-.464.419c-.083.077-.359.244-.244.457s1.117.12 1.341.03c.412-.166.916-.056 1.303-.312.076-.05.155-.119.245-.153.107-.041.251-.022.372-.022.282 0 .508-.016.733-.207.131-.111.25-.257.424-.282.204-.029.464.058.649-.021.163-.07.227-.237.364-.344s.375-.134.541-.153c.136-.016.559-.142.67-.183.167-.061.389-.153.58-.152.234.002.421.003.616-.115.128-.077.412-.214.475-.378s.316-.378.431-.451c.209-.133.446-.095.671-.152s.356-.142.541-.283c.098-.074.442-.279.535-.351.201-.156.41-.159.662-.159.265 0 .507-.032.762-.062.482-.058.941-.294 1.402-.432s.942-.278 1.34-.511c.385-.225.657-.601.998-.861.188-.143.4-.217.618-.305l.633-.243c.383-.15.802-.294 1.194-.391.091-.022.185-.065.24-.095s.122-.413-.146-.453c-.1-.015-.208.018-.308.003-.09-.013-.208-.042-.305-.061-.163-.032-.398-.142-.541-.221-.096-.053-.348-.254-.439-.323s-.32-.22-.489-.303l-.578-.274c-.207-.086-.367-.175-.549-.275-.085-.047-.151-.077-.23-.136-.093-.07-.173-.154-.275-.215-.183-.109-.446-.153-.647-.203-.237-.059-.478-.118-.731-.123-.469-.01-.971-.149-1.432-.091-.243.03-.501.007-.732.06l-.701.145c-.432.089-.898.162-1.31.305-.101.035-.206.039-.306.067-.109.03-.225.092-.335.122-.209.056-.426.134-.639.207-.23.079-.46.123-.701.152l-.708.091c-.169.023-.329.047-.482.097-.159.053-.304.167-.456.238-.138.064-.301.137-.457.161-.093.014-.451-.035-.549-.032-.298.009-.597.195-.86.298-.136.053-.332.112-.481.13-.1.012-.373-.003-.549-.002s-.77.153-.853.183a.81.81 0 0 0-.244.122.97.97 0 0 0-.208.251c-.107.212-.106.474-.029.694.156.445.129.882.296 1.311.092.235.275.441.275.7v.762c-.005.445-.022.902-.187 1.31zm15.034.636l.597-.155c.116-.039.301-.205.399-.296s.162-.206.226-.33.25-.423-.04-.726c-.088-.106-.151-.129-.075-.265.049-.089.119-.169.17-.255.064-.108.086-.22-.025-.3s-.192-.034-.306-.005c-.472.118-.961.114-1.447.181-.105.014-.201.002-.3.023-.089.019-.173.053-.256.071-.202.042-.388.052-.595.081-.395.055-.779-.028-1.177-.025-.201.001-.394-.024-.601.001-.107.013-.219-.009-.326.004l-.3.044a1.65 1.65 0 0 0-.549.157c-.094.044-.181.063-.277.092-.088.027-.147.116-.254.147s-.27.113-.37.154c-.127.052-.258.075-.377.13a7.73 7.73 0 0 1-.8.32c-.251.083-.476.229-.701.351l-.356.195c-.127.066-.241.155-.37.231-.334.198-.737.3-1.083.468s-.678.307-1.07.307c-.207 0-.401 0-.581.07a3.84 3.84 0 0 0-.469.231c-.324.178-1.108.326-1.078.376s.406.11.576.1.532.023.776 0c.265-.025.514.002.776 0 .274-.002.572.052.851.05l.751.025c.392 0 .773-.122 1.121-.256.342-.132.718-.22 1.082-.3.195-.043.41-.029.6-.07.177-.039.379-.049.557-.069.101-.011.217-.014.32-.006.093.008.16.038.251.05a1.36 1.36 0 0 0 .325-.005c.103-.013.191.009.295 0 .172-.015.354-.076.53-.096.192-.022.39-.044.578-.099l.551-.174.575-.12.651-.126.626-.079c.197-.043.411-.052.601-.1zm-17.843 2.159c-.179.069-.366.115-.557.139-.196.024-.402.011-.577.079-.153.06-.311.089-.456.17-.076.042-.145.114-.211.164-.051.039-.28.103-.207.118s.442.006.517-.009l.209-.035c.055-.002.079.015.124.021.082.01.184.01.257.018a2.15 2.15 0 0 0 .545-.019 4.28 4.28 0 0 0 1.003-.276l.849-.301.501-.106c.128-.032.399-.025.424-.214-.041-.032-.076-.026-.123-.03-.191-.018-.436-.026-.626 0l-.557.069c-.361.079-.753.073-1.111.212zM36.64 36.127c.166.03.699.086.944.113.34.038.614.077.929.219.14-.138-.015-.585-.092-.731-.064-.12-.291-.364-.431-.463s-.253-.296-.292-.26-.025.164-.073.235a2.17 2.17 0 0 1-.261.308c-.111.099-.388.226-.529.284-.308.127-.994.257-.884.294s.526-.033.69-.002zm-5.384 12.841c.884.122 3.627-.305 3.962-.549l1.28-.945c.335-.183 1.402-.366 1.92-.61s1.128-.792.975-.914-1.493.061-2.53.183l-3.962.518c-.579.153-1.524.823-1.89.914s-.61.244-.975.335-1.128.396-.975.67 1.312.272 2.195.394zm23.762-20.106c.075-.146.044-.177-.14-.203-.139-.02-.35-.034-.478-.032s-.253.057-.323.065c-.133.016-.245.01-.366.041-.217.056-.486.036-.693.116l-.7.238c-.19.055-.408.194-.601.212l-.569.203c-.146.098-.523.224-.571.445-.065.302.492.329.65.369.333.086.545.018.813-.173.286-.204.416-.37.774-.397.295-.022.526-.1.783-.233s.544-.186.811-.286c.227-.085.486-.122.61-.364zm-5.534-1.258c.154-.079.325-.17.435-.306.154-.191.138-.449.043-.511s-.211-.06-.326-.121a1.32 1.32 0 0 0-.395-.133c-.29-.031-.623-.015-.866-.192-.177-.129-.366-.048-.59-.06-.406-.021-.538-.003-.791-.102-1.032-.401-.225-.129-1.851-.344l-1.177-.123c-.321.042-.674.088-.945-.091-.283-.187-.764-.13-1.097-.213-.607-.152-.875-.073-1.524-.152l-1.128-.122-.884-.183c.031-.018-.738.08-.77.246-.055.282-.331.516-.571.648s-.489.189-.734.282l-.772.327-1.583.607-.53.164c-.139.035-.284.034-.436.051a3.85 3.85 0 0 0-.861.195c-.537.187-1.349.392-1.579.576s-.286.341-.364.529c-.088.212-.124.442-.099.65.015.125-.009.265.018.388.017.079.092.172.124.242.091.203.262.358.406.531.111.135.277.262.405.414.119.142.241.294.386.417.324.275.707.328 1.076.469.486.185.924.52 1.411.74.269.121.451.327.683.498s.431.297.701.385c.294.095.564.121.822.295.242.163.479.24.732.357l.723.293c.215.089.495.407.73.408s.406.285.406.285c.068.064.107.236.152.335.054.117.066.304.139.396.165.208.513-.267.642-.415.205-.235.476-.326.724-.488l.649-.45c.456-.295.955-.51 1.463-.729.569-.246 1.229-.246 1.839-.315l1.86-.293c.306-.034.65-.136.953-.185.327-.053.612-.093.926-.202l.894-.335a1.42 1.42 0 0 0 .64-.418c.215-.22.338-.437.295-.761-.019-.138-.05-.24-.132-.355-.109-.152-.187-.155-.347-.222-.11-.046-.209-.117-.332-.153-.15-.044-.302-.068-.44-.131-.249-.114-.456-.279-.699-.398-.212-.104-.385-.528-.152-.721.201-.166.58-.14.834-.182.143-.024.29-.096.456-.072.141.02.194.055.437.073s.426-.104.701-.225.701-.823.366-.732-.853.347-1.097.357-.601-.095-.66-.397c-.069-.353.445-.214.662-.324zm-30.276 19.2c.318-.08.682-.279.985-.386.279-.099.478-.312.762-.408.537-.181 1.011-.509 1.547-.728.226-.093.448-.218.656-.367.09-.064.24-.146.309-.221.091-.099.157-.244.252-.358.366-.442.711-.816.844-1.382.081-.344-.175-.516-.275-.813-.077-.227.019-.593-.092-.924s-.305-1.16-.305-1.16l-.059-.71c-.021-.153-.102-.242-.041-.416.088-.31.747-.531.985-.649.118-.059.232 0 .356-.051.164-.067.276-.047.457-.069.296-.036.613-.136.894-.205.301-.074.848-.102 1.139-.202.563-.194 1.241-.136 1.777-.426.289-.156.698-.173 1.002-.175.338-.002.914-.257 1.227-.325.54-.117.798-.301 1.327-.501.128-.048.687-.235.826-.25.308-.035.589-.179.876-.25s.895.003 1.177-.125c.252-.115.959-.332 1.202-.426.23-.088.253-.294.175-.626-.071-.302-1.361-.579-1.592-.667-.263-.1-.532-.129-.795-.262-.221-.112-.532-.292-.617-.52-.052-.138-.429-.17-.425-.328.005-.178-1.116-.634-1.355-.779-.109-.066-.696-.218-.862-.233-.299-.028-.441-.514-.712-.615-.552-.205-.845-.667-1.152-1.126-.351-.526-.276-.651-.276-1.101s.195-.677.576-1.026 1.022-.505 1.534-.744c.302-.14.627-.186.947-.274.282-.078.567-.208.85-.286.29-.079.871-.442 1.189-.484.311-.041.669-.146.984-.236l.904-.273c.242-.089.556-.196.682-.456.176-.363-.012-.52-.369-.61-.601-.151-1.251-.128-1.867-.288-.603-.157-1.242-.202-1.87-.363-.308-.079-.634-.12-.936-.243-.253-.102-.444-.268-.678-.419-.268-.173-.528-.212-.824-.282l-.975-.278c-.283-.072-.553-.171-.822-.273l-.348-.14c-.058-.03-.111-.07-.171-.103s-.276-.213-.54-.414c-.165-.125-.25-.253-.266-.362-.013-.093-.031-.15.192-.341.182-.156.3-.197.61-.29.196-.059.517-.097.692-.133.384-.119.79.045.867.035.313-.039 2.615.168 3.07-.056s.814.009 1.455-.042c.336-.027 1.477-.255 1.853-.266 1.093-.032 1.016-.143 1.343-.196s1.607-.031 2.556-.322c.635-.194.662-.729.613-.753-.242-.119-5.482-.004-5.987-.065-1.286-.156-2.68-.054-2.964-.095s-.901-.007-1.219-.043c-.264-.029-21.433.163-30.503.329v27.802c.342-.049.7-.085.992-.059.824.072 2.17.971 2.274 1.083 0 0 .417.189.821.555s1.069.425 1.402.463c.251.029.81 0 1.029.111a1.7 1.7 0 0 0 .419.153c.152.038.817-.033.981-.015.31.035.742-.112 1.049-.15.156-.019.323.011.479-.007.146-.017.333-.053.499-.034.141.017.288.078.445.084.174.005.331-.01.486-.043.141-.03.276-.029.409-.078s.276-.143.414-.195c.24-.09.491-.212.732-.285.606-.183 1.295-.016 1.943-.089.27-.03.53-.162.781-.275.224-.101.525-.384.76-.419a16.73 16.73 0 0 0 .937-.169c.299-.062.535-.096.813-.235.511-.245.98-.466 1.545-.61zm32.499-5.059c-.335-.122-1.646-.671-1.554-.396s.274.518.457.731 1.25.67 1.463.793.335.366.518.518.518.061.64.122-.148-.392-.207-.498-.084-.316-.176-.468-.807-.68-1.141-.802zm.701-3.789h-.528c-.342 0-.66.006-.978-.07-.239-.058-.585-.148-.802-.306-.134-.097-.216-.301-.366-.363s-.225-.165-.331-.198c-.126-.039-.279-.045-.409-.079-.118-.031-.24-.047-.366-.083-.158-.045-.168-.095-.243-.245-.048-.097-.075-.233-.131-.324-.064-.104-.183-.128-.287-.191-.197-.119-.334-.298-.436-.499-.248-.491-.761-.42-1.176-.243-.204.088-.368.199-.49.405-.054.091-.122.179-.162.276s-.14.22-.171.326c-.235.07-.305.211-.57.139-.156-.043-.511-.167-.56-.253s-.3-.161-.244-.04.122.235.212.318a2.31 2.31 0 0 0 .357.241c.222.127.53.268.77.296.33.038.597.064.895.162.279.091.449.273.693.436.096.064.191.158.292.205.171.081.322.012.477.006.271-.01.521.173.734.327.221.161.501.336.77.368.16.019.3-.005.447.038.161.047.299.126.45.193.263.116.527.191.773.335.241.141.45.301.7.437.239.129.526.289.649-.061l.275-.782c.048-.149.362-.631.247-.744-.084-.079-.38-.025-.49-.025zm1.179-7.884c-.121.036-.457.22-.611.448-.06.089-.13.255-.072.365.065.125.271.086.398.13s.235.096.366.113c.231.029.264-.069.333-.245.066-.17.06-.24.042-.415-.013-.119-.003-.35-.09-.435-.033-.012-.245-.002-.366.036zm-.489 8.981c-.083.13-.102.207-.081.325s.049.22.233.296c.135.056.282.079.416.112.205.05.587.26.816.163.099-.042.132-.197.211-.276s.197-.122.264-.224a2.06 2.06 0 0 0 .175-.313c.043-.1.212-.371.234-.375.069-.166-.483-.373-.612-.431-.235-.107-.527-.271-.772-.325-.138-.031-.381-.036-.519 0-.208.055-.145.154-.122.316a.87.87 0 0 1-.05.446c-.034.081-.112.157-.196.287zm-19.77 10.83c-.093-.015-.181-.07-.272-.092-.133-.033-.263-.04-.398-.061-.052-.008-.103-.033-.152-.033-.062 0-.115.041-.185.034-.111-.01-.237-.032-.364-.032-.255 0-.519.004-.762.059a1.55 1.55 0 0 1-.366.032c-.141 0-.234.028-.366.061-.466.119-.972.062-1.463.123-.129.016-.246-.018-.366-.033-.13-.016-.267.019-.396.003-.236-.029-.502-.061-.731-.003-.109.027-.202.067-.304.092-.133.033-.261.021-.397.038-.251.031-.508.03-.762.061-.247.031-.507.024-.762.024-.262 0-.506.053-.762.061-.508.016-.99.075-1.493.091-.117.004-.237.043-.342.054-.132.014-.261.004-.389.037-.248.065-.507.184-.762.215-.125.015-.245 0-.366.027l-.396.094c-.248.055-.508.059-.762.09s-.518.001-.762.008-.793.176-1.219.237-1.158.396-1.158.396l15.487-.009s.002-.104.049-.183c.052-.088.148-.193.221-.267.148-.148.337-.21.497-.326s.328-.298.426-.465c.043-.073.15-.18.108-.269-.054-.12-.229-.051-.327-.067zm32.44.632c-.097-.126-.086-.175-.081-.296.009-.208.064-.173-.021-.365-.088-.201-.369-.255-.345-.447.035-.279.229-.473.04-.794-.145-.247-.31-.342-.518-.508-.219-.175-.438-.416-.407-.721.031-.313.128-.719-.052-1.007-.288-.46-.861-.866-1.411-.863-.332.002-.592.057-.893.123-.166.036-.26.02-.397.131-.093.075-.175.15-.264.224-.202.17-.306.463-.307.7-.002.303.331.453.511.661a1.12 1.12 0 0 1 .132.192c.052.108.008.114-.003.202-.016.13-.078.298-.01.418.074.129.265.151.287.325.014.114-.05.303-.101.409-.072.148-.16.235.018.366.095.069.246.06.307.181.046.093-.02.296.021.426s.105.214.221.307c.218.175.372.304.438.578.038.156.128.741.362.716l2.727.219c-.011-.024.518-.231.496-.325-.028-.123-.296-.353-.363-.458s-.302-.288-.382-.391zm-8.594-11.352c-.152-.093-.333-.125-.499-.183-.154-.054-.351-.078-.506-.134s-.37-.246-.388-.2.04.151.052.243c.013.105-.02.207-.011.326.021.265.17.204.407.203.197 0 .345.02.518.091.166.069.311.171.489.202.108.019.083.028.182-.04.036-.024.157-.129.156-.173-.002-.076-.33-.291-.399-.333zM42.64 41.209c.214 0 .412-.027.626-.025.177.001.337-.064.47-.181.039-.034.099-.083.125-.125s.014-.058.03-.095c.013-.029.046-.041.053-.073.015-.065.018-.165.025-.225.011-.088-.005-.17-.028-.252a.79.79 0 0 0-.243-.376c-.096-.082-.236-.174-.306-.275 0 0-.165-.157-.276-.175s-.725.054-1.076.05c-.304-.003-.635.155-.882.319a23.54 23.54 0 0 1-.814.513c-.305.184-.833.549-.937.59s-.165.088-.228.123c-.089.049-.145.057-.244.081-.179.045-.338.118-.501.194-.079.036-.147.071-.219.113l-.106.062c-.073.041-.1.038-.176.056-.211.049-.408.159-.607.245-.059.026-.213.062-.24.13-.05.127.167.143.247.17.168.059.417.047.6.026s.388-.072.575-.095c.097-.012.203 0 .301.001.114 0 .213-.026.325-.025.405.004.814-.122 1.202-.22a2.99 2.99 0 0 0 .577-.205c.174-.082.34-.227.524-.277.363-.097.811-.049 1.203-.049zm19.228 2.305c.199-.155.289-.471.137-.672.181-.233.42-.096.634-.041.245.062.553.054.695-.184-.046-.108-.327-.133-.442-.182-.145-.061-.286-.147-.437-.184-.313-.077-.637-.172-.943-.314s-.605-.259-.883-.458c-.171-.122-.514-.451-.702-.517s-.71-.36-.772-.325-.123.129-.153.212c-.043.119.01.281.031.397.025.137.016.177.132.274.079.066.155.16.268.125.063-.126.086-.252.095-.394.084-.006.216.147.248.228.061.155-.043.24-.091.378-.104.3-.164.519-.419.761-.092.088-.172.195-.273.265-.117.082-.262.137-.367.232-.226.204-.316.428-.11.683.168.208.245.443.405.649.201.259.519.196.763.061.117-.065.217-.142.325-.215.118-.079.238-.118.367-.191.249-.14.496-.207.77-.296.245-.076.513-.127.722-.29zM45.459 19.1l-6.052 1.424-1.208.083c-.264.006-.519.05-.92.15s-1.124.032-1.534.123-2.072.252-2.072.252l-4.031-.006s-.935.203-.951.337.04.211.205.32.248.128.348.152c.162.039.325.029.488.049.305.036.588.159.856.315.225.132.42.293.658.407.277.134.51.199.803.254.166.031.325.066.489.112s.311.028.489.049c.286.034.478.12.77.204s.563.255.851.288c.158.018.324-.133.481-.115.142.016.311.05.456.072.633.096 1.431.409 2.072.406.332-.001.526.202.853.162s.686.001 1.016.001c.341 0 .679.01 1.016.05.166.019.31.073.488.072.183-.001.316.034.489.082a33.73 33.73 0 0 0 .935.244c.129.032.274.048.403.081.177.045.348.015.53.037.299.037.623.071.935.043.276-.025.712.031.853.122s.44-.052.609.035.818.404 1.259.574c.219.084.42.164.643.212.211.046.448.07.657.115.461.098.913.267 1.375.413.44.14.895.175 1.35.278.308.07.61.066.892.201.261.125.52.204.774.325s.511.203.772.325c.254.118.513-.116.772-.04.271.079.57.132.844.254.255.113.374.36.588.508a1.97 1.97 0 0 0 .347.181c.1.043.24.081.334.154.287.222-.096.424-.323.449-.327.036-.526.073-.803.253-.223.144-.44.31-.611.527-.21.266-.173.539-.173.884 0 .167.021.339-.041.488-.05.12-.14.212-.213.315-.157.222-.252.485-.428.703-.215.265-.457.258-.732.373-.26.109-.536.348-.779.49-.15.087-.597.228-.62.428-.195.031-.293.378-.197.507.116.156.491.497.661.548.2.06.416.095.61.163.103.035.215.018.317.058s.184-.019.283.022c.13.054.207-.068.204.093-.001.05-.06.238-.088.275-.096.13-.344.229-.471.304-.193.113-.373.213-.529.361-.085.081-.155.171-.264.228-.064.033-.109.013-.193.009s-.537.096-.61.162-.112.218-.163.325c-.026.054-.075.113-.112.164-.042.059-.139.13-.163.17-.171.281.357.415.559.439.314.036.632-.127.906.029.113.064.234.155.344.224.129.081.229.108.367.161.564.22 1.288.045 1.878.194.277.07.575.105.853.202.313.109.565.277.894.367.552.151 1.058.449 1.542.743.267.162.579.255.858.352.271.094.545.236.811.335.584.218 1.058.639 1.627.878.289.122.553.306.843.425.275.113.556.274.822.427.675.388 1.213.607 1.91.954.353.176.751.237 1.066.346s1.994 1.24 2.726 1.561 2.135.76 2.733.99c.299.115.752.551 1.213.897.169.127.461.249.625.363.431.3.697.543.911.672.048.029.138.191.26.239V21.21l-29.241-2.108zm27.125 28.425c-.569-.447-.955-.793-1.565-.996s-.772-.609-1.382-.894-1.138-.203-1.666-.691-1.396-.8-1.818-1.23a.85.85 0 0 0-.71-.242c-.323.052-.552.178-.886.091-.206-.053-.203.018-.376.112-.109.059-.256.074-.355.161-.251.223.113.544.255.731.167.222.21.516.366.731.073.101.155.196.244.285.078.078.133.171.282.246.319.176.318.503.317.74 0 .185-.008.328.091.485.088.138.202.183.308.296s.076.267.129.397c.061.149.167.206.292.274.137.075.236.111.348.223.085.086.132.251.295.274.417.108.569.447 1.056.813s.61 1.056 1.219 1.219 2.51.202 2.743-.366c.142-.346-.837-.45-.315-1.036.417-.467.843-.386 1.168-.63s.527-.548-.042-.996zM57.25 40.523c-.048.071-.082.165-.04.271.107.03.209.116.316.131.137.019.248-.029.367-.044.134-.016.274.017.408.002.129-.015.282-.065.358-.131s.424-.324.407-.512c-.125-.041-.497-.254-.807-.13-.166.081-.221-.088-.325 0s-.236.109-.365.164a.97.97 0 0 0-.32.25zm-12.349-2.658c.192.174.369.222.59.346.205.115.397.23.618.283l.815.192.69.173c.229.058.466.079.682.163.193.075.379.18.577.236l.317.089c.092.024.265.105.369.066.09-.225-.36-.317-.48-.359-.254-.087-.478-.213-.733-.287-.413-.12-.82-.23-1.217-.414-.198-.092-.368-.203-.568-.278-.209-.078-.441-.113-.651-.202-.19-.081-.422-.141-.603-.251-.163-.099-.325-.31-.536-.277 0 0-.258-.057-.244.04s.236.35.377.477zm13.165 3.454c-.292-.075-.633-.001-.914-.102-.233-.083-.402-.35-.489-.568-.074-.184-.072-.309-.314-.337-.172-.02-.328 0-.487-.041s-.266-.05-.398-.162c-.138-.116-.169-.239-.324-.08-.11.113-.104.25-.255.325-.105.052-.266.089-.487-.001s-.244.122-.244.122c.047.284.453.374.65.456.237.098.419.354.579.55.166.204.389.367.599.548s.522.224.762.326c.281.119.59.152.906.07.265-.068.625-.148.763-.446.145-.308-.048-.583-.347-.657zm-12.445-6.45c.192-.056.408-.039.601-.075.165-.031.383-.071.52-.176.298-.229-.359-.588-.544-.594-.05-.002-.078.036-.125.025s-.162-.069-.2-.05-.05.046-.08.068c-.049.035-.097.036-.14.062-.066.039-.151.114-.206.17-.116.117-.202.257-.293.383-.039.055-.099.111-.126.175-.047.111.009.122.114.149.188.049.312-.088.481-.138zm-2.58 7.992c.13.096.657.068.877-.03.056-.025.123-.073.181-.115.041-.03.098-.055.138-.087.054-.043.122-.077.177-.124.046-.04.078-.071.125-.125s.283-.288.226-.441c-.124-.06-.23-.01-.347.039s-.209.046-.349.057c-.24.019-.473.034-.702.1-.121.035-.198.108-.299.177-.076.051-.195.089-.258.168s-.599.28-.544.332.647-.049.777.048zm8.676-7.354c.274-.164.717-.318.522-.714-.169-.044-.316-.059-.48-.089s-.319-.074-.49-.122c-.241-.067-.482-.431-.77-.366h-.244c-.402.05-.454.586-.233.843.109.127.233.237.325.366.096.135.178.25.346.305.373.124.719-.037 1.025-.221zm.372 8.059c-.484-.306-1.807-.888-1.997-.999s-.272-.381-.44-.416c-.182-.038-.289.195-.413.294-.296.236-.692-.03-1.053.166-.62.337-1.186.787-1.754 1.222-.573.44-.675.72-1.281 1.087a9.4 9.4 0 0 1-1.385.645c-.181.061-.373.133-.559.174-.214.048-.659.221-.832.359a5.71 5.71 0 0 0-.773.723 5.35 5.35 0 0 1-.82.761c-.662.473-1.211.862-1.909 1.228-.352.184-1.021.719-1.888.904-.244.052-.706-.004-.92.097-.376.178-.336.397-.588.744-.124.171-.39.879-.271 1.002l16.728-.117s.526-3.033.849-3.549 1.372-2.033 1.339-2.356-1.545-1.666-2.03-1.972z"/></defs><symbol id="J" overflow="visible"><g class="B C D"><path d="M28.725 0h45.977v37.044H28.725z" fill="url(#A)"/><g stroke="#3088aa"><path d="M.001 14.71h74.701v41.316H.001z" fill="url(#B)"/><path d="M73.989 51.165s-.229.132-.491.139-.447-.139-.447-.139-.252.16-.535.156c-.26-.004-.403-.156-.403-.156s-.263.149-.562.156-.388-.156-.388-.156-.262.165-.576.156-.406-.156-.406-.156-.182.182-.474.173-.431-.173-.431-.173-.145.148-.483.139-.39-.139-.39-.139-.195.172-.456.139-.428-.139-.428-.139-.162.151-.401.156-.427-.156-.427-.156-.358.211-.747.202l-2.617-.063c-.347.039-.571-.139-.571-.139s-.168.227-.491.202-.503-.202-.503-.202-.117.227-.414.202-.426-.202-.426-.202-.283.211-.536.202-.536-.202-.536-.202-.163.211-.447.202-.491-.202-.491-.202-.151.211-.414.202-.535-.202-.535-.202-.26.195-.491.202-.447-.202-.447-.202-.294.211-.536.202-.402-.202-.402-.202-.254.195-.446.202-.459-.202-.459-.202-.316.2-.519.194-.519-.194-.519-.194-.266.209-.459.202-.446-.202-.446-.202-.16.193-.402.202-.536-.202-.536-.202-.215.209-.446.202-16.46-.041-16.716 0-.447-.202-.447-.202-.185.209-.447.202-.491-.202-.491-.202-.067.193-.337.202-.491-.202-.491-.202-.241.231-.633.24a4182.48 4182.48 0 0 1-15.266-.038c-.321-.009-.457-.202-.457-.202s-.25.211-.548.202-.503-.202-.503-.202-.249.211-.594.202-.548-.202-.548-.202-.31.243-.64.202-.639-.202-.639-.202-.178.211-.457.202-.64-.202-.64-.202-.241.211-.64.202-.64-.202-.64-.202-.187.195-.411.202-.594-.202-.594-.202-.056.163-.411.202-.457-.202-.457-.202-.172.227-.503.202-.64-.202-.64-.202-.244.227-.548.202-.686-.202-.686-.202-.29.211-.548.202-.548-.202-.548-.202-.167.211-.457.202-.502-.202-.502-.202-.279.211-.549.202-.548-.202-.548-.202-.266.195-.503.202-.457-.202-.457-.202-.301.211-.548.202-.411-.202-.411-.202-.26.195-.457.202-.594-.202-.594-.202-.182.127-.347.18v4.681h74.705v-4.688c-.424-.027-.713-.173-.713-.173z" fill="url(#C)"/></g></g><g class="E"><path d="M59.907 10.622c-.44-.344-1.694-.69-2.181-.849s-1.521-.315-1.889-.564-1.104-.46-1.412-.622c-1.24-.649-2.657-.789-3.598-1.148s-1.875-.604-2.852-1.094-5.884-1.935-6.658-2.438l-1.709-1.099c-.6-.383-1.227-.683-1.844-1.036L34.366.021 34.326 0H3.706L2.607.582C1.715 1.023.922 1.604.047 2.109l-.046.026v6.048l45.946 9.697s14.71-6.672 13.96-7.258z" fill="#094129" class="C"/><path d="M36.118 19.278l12.405-.605c.037-.09-.888-1.02-1.069-1.172-.327-.276-4.067-1.327-4.067-1.327s-2.135.033-4.145-.731c-1.317-.501-3.367-1.001-4.511-1.707-1.249-.77-5.921-2.288-7.315-2.926-1.478-.676-3.855-2.991-5.364-3.657-.798-.353-2.786-1.494-3.414-1.829-1.43-.763-1.749-1.034-3.414-1.585-.761-.252-4.081-2.135-4.998-2.316C8.406 1.062 7.791.564 6.12.001H0v15.774l30.375 3.389 5.742.115z" fill="#0e462d" class="C"/><path d="M27.554 18.599l-.579-.709c-.176-.178-.446-.355-.654-.513-.274-.208-.471-.435-.75-.64-1.083-.794-2.097-1.77-3.272-2.393-.769-.409-1.452-1.026-2.12-1.602-.73-.628-1.52-1.231-2.334-1.751l-2.562-1.692c-.466-.287-.984-.495-1.46-.794l-1.282-.759c-.836-.622-1.952-1.046-2.924-1.495-.445-.205-.985-.334-1.463-.441l-1.586-.415C5.47 5.092 4.36 4.763 3.306 4.284c-.439-.2-.879-.381-1.31-.654-.116-.073-.951-.306-1.993-.581v15.266l28.025.784c.021-.075-.367-.377-.472-.501z" fill="#154c32" class="C"/><use xlink:href="#I" fill="url(#D)" class="C"/></g><use xlink:href="#I" fill="none" class="B D F"/><g class="C"><g class="E"><path d="M41.437 33.098a.81.81 0 0 0-.252-.1c-.076-.018-.148-.053-.223-.075-.09-.027-.186-.041-.27-.08-.363-.167-.691-.411-1.107-.421-.189-.006-.376-.037-.557-.094-.167-.055-.279-.202-.446-.256a.98.98 0 0 0-.544-.045c-.188.041-.355-.01-.532-.055-.325-.082-.656-.206-.945-.383-.328-.2-.579-.417-.982-.294-.165.05-.289.171-.45.226-.185.063-.35.072-.551.049-.208-.024-.359-.104-.549-.176-.177-.066-.372-.056-.551-.13l-.326-.125c-.135-.04-.204-.034-.401-.044s-.667-.208-.676-.175c-.009.145.301.222.399.25.194.056.371.083.551.182a4.11 4.11 0 0 1 .426.275c.144.105.246.251.383.363.233.19.552.468.87.457.201-.007.418-.054.626-.025l.256.044.321.03c.181.034.281.22.326.375.049.169-.005.372.099.527.118.175.293.154.476.201.196.051.336.107.508.218l.994.583c.363.194.745.257 1.152.3.186.02.411.015.595-.005a1.14 1.14 0 0 0 .507-.188c.267-.166.634-.5.796-.586s.044-.282.104-.371.207-.202.171-.321c-.084-.019-.128-.088-.197-.131zm-1.977 4.531c-.325-.125-.651-.3-.926-.426s-.15-.25-.476-.35-1.177-.351-2.403-.376-3.78.901-4.506 1.102-.948-.075-1.549.2-.616.498-1.267.648-1.64.454-1.94.704-.075.4-.501.526-.723.523-.573.848.2.329.326.98-.113 1.608.025 1.627c.2.027.52.025.723.025a2 2 0 0 0 .6-.101c.193-.06.376-.169.576-.225l1.177-.275a3.32 3.32 0 0 1 .626-.05c.193 0 .421.015.595-.056.142-.059.243-.186.383-.243.07-.029.149-.088.223-.102.107-.021.218-.016.327-.029.051-.006.094-.021.15-.019s.105.028.15.028c.099 0 .217-.028.326-.028.096 0 .206.014.301.001s.184-.071.276-.101c.158-.051.285-.183.424-.275s.285-.182.451-.244c.21-.079.401-.081.626-.081.098 0 .204-.012.301-.001s.171.038.273 0c.158-.057.308-.163.447-.249.068-.042.135-.094.207-.125.096-.041.188-.045.294-.056l.607-.071c.209-.026.425.029.626.053.209.024.414.074.626.074.225 0 .391-.07.601-.12.106-.025.158-.021.257-.075.081-.044.16-.096.237-.161.087-.073.104-.162.176-.246l.2-.231c.183-.228.475-.32.726-.45.262-.136.524-.311.689-.564l.214-.311c.07-.124.08-.296.08-.446-.008 0-.383-.601-.708-.726zm9.832-6.904c-.148-.179-.377-.221-.595-.282-.13-.036-.467-.187-.58-.321s-.285-.214-.352-.33a1.98 1.98 0 0 1-.22-.501 1.98 1.98 0 0 0-.074-.232c-.046-.121-.018-.16.101-.194.193-.055.351-.025.55 0 .209.026.408-.141.501-.302.1-.173.082-.328.006-.506-.067-.158-.155-.346-.181-.52-.029-.196-.029-.413-.077-.599-.089-.352-.098-.391-.474-.581-.342-.173-.629-.145-1.008-.207-.188-.031-.352.039-.546.017-.085-.009-.182-.065-.274-.077-.104-.014-.22-.121-.325-.121-.176-.001-.394-.092-.52.034-.046.046-.09-.002-.125.053-.026.039-.039.084-.075.121s-.098.06-.111.119c-.069.016-.114-.273-.177-.242-.088.044-.176.054-.271.081-.148.042-.249.198-.33.325-.086.135-.151.346-.274.445-.146.117-.34.177-.496.256-.068.035-.151.068-.224.077l-.302.049-.601.074c-.105.012-.189.052-.3.051s-.217.001-.325 0c-.202-.002-.354.089-.531.119l-.794.107c-.143.017-.264-.027-.402-.026-.145.001-.278-.025-.426-.025h-.425c-.146 0-.267.034-.401.05s-.26.012-.4.025c-.134.013-.26.048-.397.079-.06.183.28.27.397.296.185.041.383.019.576.025.216.007.392.117.576.22.176.099.381.157.576.186.21.032.315-.034.494-.138.146-.086.302-.193.483-.193.409 0-.149.517-.225.701s-.125.401-.125.401c-.011.064.025.193.056.243.05.08.144.113.219.157s.108.068.15.15c.047.09.03.193.075.275.087.159.365.071.52.106.168.038.279.176.401.276.301.246.669.208 1.03.296.373.09.76.146 1.153.204l.6.12.627.049c.505-.003 1.03.066 1.526.127.098.012.205.007.3.018l.324.03a4.66 4.66 0 0 1 .678.102l.575.149c.101.027.197.034.3.049.111.017.207.063.326.051.24-.023.285-.24.207-.433-.082-.203-.23-.327-.363-.488zm-9.426-1.24c-.132-.079-.247-.163-.402-.199-.078-.018-.166-.02-.256-.019-.095.001-.166-.04-.249-.051-.171-.024-.34-.031-.502-.092s-.289-.151-.451-.208-.361-.014-.525-.05c-.154-.034-.289-.094-.432-.17-.175-.092-.404-.046-.52-.031s-.381.096-.351.125.169.048.245.081l.237.113c.139.064.241.183.376.25.147.074.358.088.518.108.105.013.157.014.251.05.089.033.18.056.271.106l.431.25c.193.09.381.075.594.1l.582.044c.125.01.45.074.45-.125 0-.123-.175-.227-.269-.284zm-11.241.752c-.13-.073-.329-.151-.482-.169l-.3-.025-.281-.044c-.096-.011-.197-.005-.295-.005a3.22 3.22 0 0 1-.35-.025s-.298-.099-.362-.026.078.203.261.225l.502.075c.122.03.301.084.374.202.049.079.056.132.007.207a.47.47 0 0 1-.178.148c-.271.146.108.248.297.27.182.021.329.126.525.126a.94.94 0 0 0 .52-.157c.179-.109.137-.248.037-.399-.097-.145-.113-.311-.276-.402zm13.708-4.469c-.088-.054-.219-.034-.295-.056s-.15-.1-.15-.1c-.068-.012-.204.033-.27.056s-.174.065-.238.113c-.118.088-.349.217-.314.378.309.154.676-.015.978-.065.084-.014.411-.034.422-.156.005-.036-.096-.145-.131-.167zm-8.716-5.386c-.099-.179-.468-.208-.582-.242-.313-.095-.38-.239-.712-.236-.305.003-.571-.149-.852-.245-.292-.1-.544-.115-.852-.078l-.977.079c-.306.028-.67.011-.977.079-.535.119-1.05.557-1.664.399-.024-.017-.052-.028-.081-.031 0 0-.122-.064-.244-.041s-.299.15-.289.284c.012.145.305.23.41.245.313.044.475.074.787.072.32-.002.454.078.75 0 .134-.035.518-.093.651-.128.171-.045.563.003.73.039.321.069.599.071.928.099l.987.089c.307.042.541.188.856.122.271-.056 1.262-.028 1.493-.196.066-.049-.321-.227-.366-.309zm9.647 5.706s-.163-.018-.3.05-.574.139-.496.396c.123.059.274.009.395-.022.141-.036.298-.008.426-.073.097-.049.258-.114.301-.226.06-.151-.212-.124-.326-.124z" fill="#256140"/><path d="M70.259 6.023l-.986.203a7.16 7.16 0 0 0-1.504.529c-.609.287-4.917 1.69-5.528 1.971l-1.666.699-.446.195c-.157.058-.308.139-.456.204l-.924.456a15.47 15.47 0 0 0-1.799.925l-1.829 1.056-.854.366-.813.366-.884.376-.975.284c-.336.116-.654.204-1.016.204a4.54 4.54 0 0 0-.984.113c-.307.066-.616.166-.917.264-.25.082-.479.201-.731.323-.304.147-.575.345-.862.508-.159.09-.291.218-.446.307-.138.079-.236.195-.367.275l-1.414.944-1.593.882c-.515.256-1.06.386-1.554.64-.558.287-1.067.637-1.578 1.019-.462.345-.809.743-1.227 1.104-.455.393-.962.59-1.534.735-.597.151-.547.241-1.16.168-.174-.021-.81-.032-.984-.053-.164-.02-1-.506-1.34-.506s-.626-.161-.972-.161c-.339 0-.724.131-1.063.133-.173.001-.58.084-.759.085-.172 0-.466.195-.631.21-.345.031-.761-.01-1.016.081s-.586.456-.569.528.245.132.334.154l.479.092c.333.04.593.087.894.242.107.055.181.147.283.204s.25.116.364.173c.264.132.51.193.777.271.121.035.248.102.373.115.169.018.35-.012.52.008a3.77 3.77 0 0 1 .85.204c.269.101.516.294.773.367.289.082.613-.039.936-.042.28-.002.589.094.855.162.289.073.606.121.902.155.324.037.612-.117.925-.155.158-.019.302 0 .447-.037a1.06 1.06 0 0 1 .497-.011c.663.126 1.268.367 1.901.577.3.1.574.176.894.204.333.029.626-.029.975-.04h2.073c.178.006.354.174.528.194.158.018.323-.101.478-.063l.417.112c.124.032.389.039.482.106l-.037-.024 10.606-4.194 10.729-7.185 6.572-1.828V5.235l-.35.087-4.094.7z" fill="#154c32"/><path d="M67.574 12.484l-.016.065c-.113.024-.223.172-.319.243l-.323.249c-.317.289-.661.565-1.007.815l-1.623 1.211c-.489.418-1.059.741-1.557 1.148-.396.324-.808.629-1.247.893l-.824.529-.803.447-1.584.885c-.413.252-.87.546-1.322.733a26.41 26.41 0 0 1-2.753.974c-.52.149-1.026.358-1.534.547a8.43 8.43 0 0 0-.692.306c-.19.091-.388.113-.579.18-.722.252-1.373.568-2.072.877l-1.21.487-.901.376-.977.375c-.277.094-.62.189-.725.468.109.16.47.127.644.173.246.065.483.208.73.286l.936.283c.29.07.605.091.892.165.159.041.29.061.449.122.121.046.275.087.409.119.538.13.982.497 1.542.62.32.07.644.059.977.111.247.038.553.229.779.358.144.082.286.188.436.254.164.072.275.058.449.081.326.045.656.098.975.203.531.174.961.475 1.432.762.434.264 1.018.57 1.502.651.266.045 1.796.389 1.406.652-.133.047-.585.015-.837-.043l-.739-.155c-.491-.128-1.063.002-1.504.214-.25.121-.566.168-.806.325-.171.112-.291.392-.364.569-.105.253-.095.491-.132.762-.036.258-.2.53-.276.739s-.279.377-.465.51c-.196.14-.386.299-.599.416l-.649.335c-.159.072-.72.529-.774.599-.045.057-.056.099-.079.164-.057.16-.029.227.09.355.176.189.494.321.73.367.289.056.625.016.876.183.236.157.31.478.009.639l-.203.285c-.194.255.159.528.356.619.287.132.624.166.945.203.937.11 1.84.152 2.723.439.58.189 1.142.449 1.707.7.573.255 1.072.622 1.625.892l1.658.732c.509.213 1.016.522 1.554.672.578.16 1.124.352 1.706.587l.885.368c.109.041.219.106.334.153.05.02 4.289 1.192 7.867 2.188V9.654l-6.933 2.743c-.064.033-.125.069-.196.089zm-43.002 8.119c-.092-.006-.346.161-.325.203.14.214.529.083.725.075.081-.202-.306-.272-.399-.278zM.285 46.435c.468.171.917-.051 1.33.072 1.308.389 2.267.932 2.384 1.055.409.429.932.444 1.714.531.199.022.392.03.574.077l1.053.324c.206.077.417.123.626.175l.526.152c.186.041.389.073.576.026s.353-.142.526-.245c.337-.201.684-.361 1.078-.406.079-.009.167-.041.249-.051.102-.013.183.04.274.051.209.025.396.01.602-.001.187-.01.336-.102.5-.169l.601-.231c.094-.027.179-.075.275-.102.112-.032.21-.035.326-.049l.6-.051c.097.001.178-.016.275-.025l.326-.024c.193-.024.372-.084.55-.127.404-.096.778-.319 1.177-.469a1.4 1.4 0 0 1 .301-.081c.095-.014.197-.012.3-.024.183-.022.371-.099.524-.177.185-.093.351-.196.528-.305.086-.053.148-.113.251-.145s.189-.036.299-.051c.178-.024.378-.019.552-.073l.5-.152c.171-.044.359-.047.525-.106.184-.065.358-.151.531-.238.163-.082.278-.212.419-.314.073-.053.154-.074.232-.113.094-.047.127-.103.199-.181.114-.123.312-.209.471-.269.098-.037.626-.395.657-.451.047-.086.074-.167.112-.258l.201-.525c.064-.176.153-.314.176-.5.026-.215-.009-.409-.101-.596-.081-.164-.123-.341-.068-.53.046-.157.163-.307.244-.451.087-.155.183-.321.206-.501.013-.096-.001-.203-.001-.3 0-.118-.024-.193-.044-.3-.019-.1-.016-.199-.03-.3s-.067-.227-.101-.325c-.069-.199-.111-.388-.044-.601a1.13 1.13 0 0 1 .277-.469c.121-.121.277-.201.387-.339a.74.74 0 0 1 .432-.269c.188-.041.329.075.525.075.188 0 .355-.076.526-.125.087-.025.183-.03.275-.05.087-.019.166-.052.25-.076l.507-.169c.104-.028.186-.044.295-.056s.187-.067.3-.075c.193-.014.363-.078.551-.1.088-.01.18-.041.275-.05l.326-.024c.391-.048.786-.188 1.127-.351.078-.037.167-.058.25-.075.096-.02.179-.062.276-.075s.202.013.3 0l.277-.049c.353-.039.738-.192 1.056-.346.155-.075.314-.142.476-.2l.218-.088c.089-.04.207-.026.302-.069l.443-.206a2.2 2.2 0 0 1 .551-.15c.38-.065.79-.201 1.183-.296.186-.045.364-.123.544-.206l.277-.124c.11-.062.217-.148.13-.246s-.414-.289-.501-.325-.19-.028-.256-.044a.87.87 0 0 1-.195-.081 1.12 1.12 0 0 1-.355-.301c-.107-.136-.168-.317-.277-.47-.098-.137-.222-.27-.349-.374-.144-.118-.305-.251-.476-.327s-.349-.096-.515-.161l-.506-.202c-.168-.07-.332-.107-.501-.168-.184-.067-.332-.21-.496-.333l-.405-.287c-.152-.09-.331-.175-.501-.208-.189-.036-.437-.102-.626-.055s-.339.185-.5.281-.416.164-.601.202-.381-.081-.526-.172c-.174-.11-.376-.174-.553-.286l-.531-.343c-.175-.135-.248-.33-.376-.501-.262-.351-.721-.415-1.121-.452-.203-.019-.393-.035-.576-.106l-.576-.194c-.4-.099-.832-.101-1.252-.101-.215 0-.413-.026-.626-.025-.11 0-.191-.025-.3-.025-.097 0-.202.01-.298-.005.063-.122.324-.175.448-.227.188-.079.349-.074.551-.099l.551-.094c.116-.031.413-.157.426-.301.007-.075-.061-.201-.078-.274-.021-.093-.021-.182-.055-.27-.055-.144-.147-.313-.268-.407-.131-.102-.315-.173-.476-.205-.144-.029-.384-.06-.469-.201s.106-.27.218-.35c.074-.054.151-.104.233-.138.072-.03.134-.079.219-.081s.973-.009 1.103-.069c.179-.083.336-.127.524-.182.174-.051.408-.075.601-.051.2.025.408.026.601.077.376.099.841-.004 1.227-.001.198.002.402-.026.601-.05.166-.019.429-.09.569.056.132.138-.014.328-.093.445-.063.093-.271.27-.222.396.178.089.34.035.521-.001l.576-.094c.28-.033.71-.178.777-.5.024-.115.027-.165.15-.22a.72.72 0 0 1 .325-.056l.601.025c.202.001.418-.032.601-.107.167-.069.299-.181.456-.262.125-.064.37-.097.176-.288-.104-.103-.297-.151-.433-.169-.176-.024-.373 0-.551 0-.157 0-.493-.011-.518-.024s.052-.041.121-.072.511-.056.797-.029l.451.05c.137.015.287.016.425.051.273.071.53.098.826.099.157 0 .278-.039.425-.095.076-.028.149-.042.22-.087.062-.039.12-.042.177-.073s.134-.114.205-.17c.023-.018.1-.065.12-.08.03-.024.059-.061.086-.089.115-.124.056-.327-.032-.457-.041-.06-.097-.105-.125-.174-.047-.116-.053-.166-.144-.258-.128-.129-.28-.245-.458-.294s-.339-.078-.525-.1c-.102-.012-.171-.003-.276.001-.097.003-.216-.035-.306-.045l-.595-.056c-.091-.01-.174-.034-.256-.006-.088.03-.164.089-.244.132-.182.098-.473.144-.672.045-.024-.104.027-.156.12-.191a.8.8 0 0 1 .276-.055c.128.002.473-.063.427-.252-.039-.159-.269-.258-.402-.319-.158-.072-.329-.158-.501-.181-.204-.027-.375 0-.557-.069-.166-.064-.336-.156-.495-.25-.342-.203-.694-.309-1.076-.387l-.601-.096c-.193-.03-.302-.111-.457-.218-.062-.042-.131-.095-.2-.125-.095-.042-.169-.038-.269-.062l-.551-.144-.626-.125-.601-.101c-.202-.031-.4-.025-.601-.049-.212-.026-.405-.108-.626-.102-.194.005-.395.084-.576.124-.199.044-.418.025-.626.026-.352.001-.652-.255-.975-.376-.367-.138-.8-.126-1.183-.169-.203-.023-.415 0-.62-.006-.106-.003-.198-.038-.3-.051s-.22 0-.325.001c-.186.001-.773-.113-.876-.126s-.216-.009-.306-.019c-.404-.045-.819.017-1.196.069-.408.057-.849-.027-1.251-.025-.415.002-.822-.121-1.227-.15-.101-.007-.25.003-.322-.081.002-.012.036-.009.067-.074.09-.17.325-.191.455-.219.199-.043.389-.102.601-.102.206.001.43.02.627-.024l.651-.121c.106-.011.196.007.299.019l.326.024c.196.024.423.052.627.028.15-.018.34-.424.475-.476.089-.035.181-.03.274-.051.383-.087.789-.075 1.202-.075.211 0 .443.029.651 0a4.16 4.16 0 0 1 .601-.05c.105.001.195-.026.301-.025s.182-.04.274-.051c.206-.024.41.003.602-.047.406-.105.849-.075 1.277-.077.106 0 .196.026.3.025s.222-.014.325 0l.601.101c.406.048.814-.043 1.227.008.418.052.835-.152 1.252-.153.217 0 .395-.051.601-.076l.601-.047c.513-.06 1.006.004 1.503-.103.215-.047.447.038.675.02.098-.008.658-.037.597-.197-.069.002-.188-.053-.248-.078-.1-.041-.217-.161-.326-.183-.091-.019-.154-.105-.249-.116l-.325-.024-.626-.05c-.237.001-.469-.074-.701-.106-.195-.027-.397-.071-.6-.069l-.601.025c-.189.001-.373.058-.549.021-.195-.041-.379-.062-.577-.13s-.421-.113-.626-.144l-.3-.05c-.108-.025-.214-.011-.326-.023s-.218-.064-.325-.078c-.12-.015-.233.002-.351-.024-.229-.051-.49-.024-.727-.024-.222 0-.437-.009-.65-.056-.232-.051-.471-.047-.7-.126l-.733-.237c-.123-.04-.258-.039-.375-.081s-.238-.08-.369-.107c-.441-.091-.897-.071-1.353-.07-.546.001-1.088-.104-1.626-.149l-.758-.102c-.239-.023-.479-.024-.72-.024h-.626c-.219 0-.439-.027-.651-.025-.238.002-.459-.025-.695-.025-.256 0-.496-.05-.751-.05-.138 0-.265-.013-.4-.031l-.463-.044c-.268-.028-.548-.11-.814-.17l-.914-.23c-.249-.068-.508-.105-.75-.195-.18-.067-.368-.113-.545-.157-.193-.048-.397-.143-.582-.17-.089-.013-.196-.016-.28-.025-.111-.012-.207-.031-.32-.031-.127 0-.242-.017-.364-.025-.094-.006-.306-.048-.306-.048L.006 14.223v32.196a.64.64 0 0 1 .283.025z" fill="#256140"/></g><g class="B D"><path d="M74.702 56.026v-4.751c-1.168.021-1.614.706-3.307.597-.924-.059-2.457-.33-3.135-.218-1.259.206-1.515-.369-2.277-.455-.69-.078-1.655-.101-2.403-.012-.723.085-1.327.592-1.936.831-.803.315-.944.628-1.799.853-.636.167-1.109.058-1.703-.158-.443-.161-.851-.538-1.321-.668l-1.7-.412c-.37-.091-1.225.072-1.76-.004-1.453-.206-1.482-.332-2.604-.546l-1.589-.279-1.542-.091c-.279-.028-.997-.212-1.213-.186-.354.043-.72-.139-1.076-.101l-1.918.128c-.723-.004-1.385.083-2.105.122-.549.03-1.144.169-1.701.237l-1.237.15c-.248.031-.948-.003-1.22.025l-1.146.099c-.555.06-1.346.366-1.888.464-.794.143-1.737-.324-2.689-.466-1.121-.167-2.052-.256-3.19-.265-1.113-.009-2.135 0-3.261 0l-7.118.308c-.535.065-.956.12-1.444.272-.513.16-1.012.305-1.436.514-.874.431-2.392.471-3.298.853-.458.194-1.422.243-1.88.458-.524.245-1.018.091-1.53.274-1.268.453-2.55.457-3.874.64-.242.033-.57.203-.853.223-.299.021-.485-.101-.759-.134-.495-.061-1.051.005-1.551.006-.399.001-.815-.013-1.237-.032v1.726h74.701z" fill="url(#E)" class="F"/><path d="M44.609 2.55c.038-.094.703-.397.875-.303s.38-.019.532-.075.228-.057.437-.038.437.019.551-.019.913-.132 1.122-.189.494-.057.665-.057.513-.076.665-.076a5.77 5.77 0 0 1 .59.038c.133.019.323-.057.494.075s.646.189.818.189.513.302.703.302.703.057.912.019.285-.057.362-.038.152.056.114.151-.209.113-.399.132-.931.17-1.179.094-.913-.038-1.046-.038-.342.057-.532.057-.894.151-1.065.057-.646-.151-.78-.095-.551 0-.856.038-.741-.076-.837-.057-.228.057-.323.057-.608-.038-.799-.076-.456-.076-.589-.076-.474.019-.436-.075z" stroke="#aec4d0" fill="url(#F)" opacity=".8"/></g><path d="M45.655 2.485c.029-.063.547-.264.681-.201s.295-.012.414-.05a.73.73 0 0 1 .34-.025c.163.013.34.013.429-.012s.71-.088.873-.125.384-.038.518-.038.399-.05.518-.05.355.012.458.025.251-.038.385.05.503.126.636.126.399.201.547.201.547.189.71.164.222-.113.281-.101.118.038.089.101-.229.075-.377.088-.658-.038-.851-.089-.71.05-.813.05-.266.038-.414.038-.695.101-.828.038-.503-.1-.606-.062-.429 0-.666.025-.577-.05-.651-.038-.177.038-.251.038a6.73 6.73 0 0 1-.621-.05c-.148-.025-.355-.05-.459-.05-.099 0-.364.012-.336-.05z" fill="url(#G)" class="E"/><path d="M52.117 3.837c.032-.081.598-.337.744-.257s.323-.016.453-.064.194-.048.372-.032.371.016.469-.016.776-.112.954-.161.42-.048.566-.048.437-.064.566-.064a4.94 4.94 0 0 1 .501.032c.113.016.275-.048.421.064s.55.161.695.161.437.257.598.257.598.048.776.016.243-.048.307-.032.129.048.097.128-.178.096-.34.113-.792.145-1.002.08-.776-.032-.89-.032-.291.048-.452.048-.76.128-.906.048-.55-.129-.663-.08-.469 0-.728.032-.631-.064-.712-.048-.194.048-.275.048a6.32 6.32 0 0 1-.679-.064c-.162-.032-.388-.064-.501-.064s-.403.016-.372-.064z" stroke="#aec4d0" fill="url(#F)" opacity=".8" class="B D"/><path d="M53.006 3.782c.025-.053.465-.224.579-.171s.251-.01.352-.042.151-.032.289-.022.29.011.365-.01.604-.075.742-.107.327-.032.44-.032.34-.042.44-.042.302.01.39.021.214-.032.327.043.428.107.541.107.339.171.465.171.466.16.604.139.189-.096.239-.086.101.032.076.085-.194.064-.32.075a3.58 3.58 0 0 1-.724-.075c-.164-.043-.604.043-.692.043s-.227.032-.352.032-.591.086-.704.032-.428-.086-.516-.053-.365 0-.566.021-.49-.042-.553-.032-.151.032-.214.032-.402-.021-.528-.042-.302-.043-.39-.043-.315.01-.291-.043z" fill="url(#H)" class="E"/><path d="M74.415 48.155a1.15 1.15 0 0 1-.234-.255c-.063-.087-.144-.126-.203-.201-.108-.138-.297-.48-.533-.391-.001.094.084.157.108.246.025.097.131.215.131.316 0 .23-.124.46-.122.691.003.403-.142.578.131.925.232.295.524.544.733.852.085.126.181.23.276.341v-2.305l-.288-.217z" fill="#b7b5b1" class="B D F"/></g><path d="M.001 0h74.701v56.026H.001z" fill="none" stroke-width=".149" class="B"/></symbol></svg>