<svg xmlns="http://www.w3.org/2000/svg" xmlns:xlink="http://www.w3.org/1999/xlink" viewBox="0 0 75 76" fill="#fff" fill-rule="evenodd" stroke="#000" stroke-linecap="round" stroke-linejoin="round"><use xlink:href="#D" x=".5" y=".5"/><defs><linearGradient id="A" y2="6.95%" x2="74.50%" y1="94.76%" x1="15.02%"><stop stop-color="#58595b" offset="0%"/><stop stop-color="#fff" offset="100%"/></linearGradient><linearGradient id="B" y2="-20.44%" x2="130.92%" y1="101.15%" x1="-9.91%"><stop stop-color="#58595b" offset="0%"/><stop stop-color="#fff" offset="100%"/></linearGradient><linearGradient id="C" y2="-79.69%" x2="183.98%" y1="91.61%" x1="-3.59%"><stop stop-color="#58595b" offset="0%"/><stop stop-color="#fff" offset="100%"/></linearGradient></defs><symbol id="D" overflow="visible"><g stroke="#231f20" stroke-linejoin="miter" fill-rule="nonzero" stroke-width=".098"><path d="M63.101 33.213L19.005 4.899C9.875-2.539-2.466-1.164.43 6.706c12.384 9.438 33.79 24.993 51.301 37.211 4.858-2.371 10.508-6.06 11.37-10.704z" fill="url(#A)"/><path d="M64.688 36.569c-4.011-4.247-10.388-1.195-11.368-.498-2.277 1.602-4.247 6.683-1.067 9.347 1.59 1.342 7.353 8.058 6.965 14.742-.399 6.799 4.618 5.556 8.075 4.632s4.532-4.449 4.89-5.691c.712-2.442-1.026-15.659-7.496-22.531z" fill="url(#B)"/><path d="M71.947 52.517l1.772 17.946c.341 4.997-14.624 6.462-15.027.471-.409-5.997-1.837-18.948-1.837-18.948 1.515 5.925 15.091.53 15.091.53z" fill="url(#C)"/></g></symbol></svg>