<svg xmlns="http://www.w3.org/2000/svg" xmlns:xlink="http://www.w3.org/1999/xlink" viewBox="0 0 76 52" fill="#fff" fill-rule="evenodd" stroke="#000" stroke-linecap="round" stroke-linejoin="round"><use xlink:href="#J" x=".5" y=".5"/><defs><linearGradient id="A" x1="20.87%" y1="16.62%" x2="85.03%" y2="69.09%"><stop offset="0%" stop-color="#fff"/><stop offset="100%" stop-color="#96a2a9"/></linearGradient><linearGradient id="B" x1="53.14%" y1="2.07%" x2="48.29%" y2="126.39%"><stop offset="7.3%" stop-color="#fefeff"/><stop offset="27.5%" stop-color="#dde3e9"/><stop offset="45.5%" stop-color="#b4c6d3"/><stop offset="79.8%" stop-color="#92aabc"/><stop offset="92.7%" stop-color="#7397ae"/><stop offset="100%" stop-color="#5487a1"/></linearGradient><linearGradient id="C" x1="52.93%" y1="2.01%" x2="48.31%" y2="128.99%"><stop offset="7.3%" stop-color="#fefeff"/><stop offset="27.5%" stop-color="#dde3e9"/><stop offset="45.5%" stop-color="#b4c6d3"/><stop offset="79.8%" stop-color="#92aabc"/><stop offset="92.7%" stop-color="#7397ae"/><stop offset="100%" stop-color="#5487a1"/></linearGradient><linearGradient id="D" x1="54.74%" y1="2.26%" x2="48.14%" y2="114.06%"><stop offset="7.3%" stop-color="#fefeff"/><stop offset="27.5%" stop-color="#dde3e9"/><stop offset="45.5%" stop-color="#b4c6d3"/><stop offset="79.8%" stop-color="#92aabc"/><stop offset="92.7%" stop-color="#7397ae"/><stop offset="100%" stop-color="#5487a1"/></linearGradient><linearGradient id="E" x1="53.56%" y1="2.15%" x2="48.26%" y2="121.99%"><stop offset="7.3%" stop-color="#fefeff"/><stop offset="27.5%" stop-color="#dde3e9"/><stop offset="45.5%" stop-color="#b4c6d3"/><stop offset="79.8%" stop-color="#92aabc"/><stop offset="92.7%" stop-color="#7397ae"/><stop offset="100%" stop-color="#5487a1"/></linearGradient><linearGradient id="F" x1="59.52%" y1="9.83%" x2="44.65%" y2="125.33%"><stop offset="1.7%" stop-color="#fefeff"/><stop offset="48.3%" stop-color="#b6c5ce"/><stop offset="90.5%" stop-color="#95acbf"/></linearGradient><linearGradient id="G" x1="46.69%" y1="-0.18%" x2="52.21%" y2="98.94%"><stop offset="0%" stop-color="#fefeff"/><stop offset="91.6%" stop-color="#b6c5ce"/></linearGradient><linearGradient id="H" x1="60.50%" y1="1.51%" x2="39.55%" y2="102.18%"><stop offset="0%" stop-color="#fefeff"/><stop offset="92.1%" stop-color="#b4c6d3"/></linearGradient><linearGradient id="I" x1="46.30%" y1="6.06%" x2="53.50%" y2="99.65%"><stop offset="0%" stop-color="#eff1f4"/><stop offset="35.4%" stop-color="#d7dfe6"/><stop offset="100%" stop-color="#92aabc"/></linearGradient></defs><symbol id="J" overflow="visible"><g stroke="none" fill-rule="nonzero"><path d="M0 40.81c.495.296 1.103.22 1.652.216 1.37-.009 2.656-.071 4.012-.251l3.136-.424c.877-.055.726.493 1.136 1.103.62.923 1.983 1.463 3.018 1.699.695.158 1.308.213 1.985.462s1.292.506 2.001.661c.397.088.879.109 1.151.344.171.147.232.4.446.549.369.255.981.448 1.401.562 1.393.376.984 1.825 2.376 2.115 1.245.259 2.805 2.021 4.037 2.32 1.143.279 6.157-1.862 7.699-1.873 1.345-.009.351-1.38 1.565-1.872.663-.268 1.075-.268 1.851-.226 2.404.126 4.972.356 7.1-.958.308-.19.61-.493.996-.409l17.212-31.406-46.88-1.972L0 40.81z" fill="url(#A)" opacity=".29"/><path d="M60.674 13.343l-17.93 32.655.442-.129L60.96 13.5l-.286-.157zm-7.172 0L35.461 46.495a1.32 1.32 0 0 1 .153-.074l.319-.113 17.855-32.808-.287-.156zm-10.431 0L23.789 48.597l.268.19L43.357 13.5l-.286-.157zm-2.608 0L21.687 47.566c.086.068.18.124.279.169L40.749 13.5l-.286-.157zm-8.475 0L15.232 43.725l.308.116L32.274 13.5l-.285-.157zm-7.824.001L9.433 40.512c.086.082.143.191.198.318l14.82-27.331-.287-.155zm-4.563-.001L4.497 40.903l.392-.038L19.887 13.5l-.286-.157zm-3.912-.652L.221 40.916c.105.04.214.067.325.086l15.43-28.154-.286-.157zm5.216.652L5.888 40.744l.404-.06L21.191 13.5l-.286-.157zm7.171.001L12.082 42.899l.314.104 15.967-29.504-.287-.155z" fill="#96a2a9" opacity=".29"/><path d="M10.923 12.676c.446.28 1.186.626 1.924.557s1.336-.348 1.93-.278-.001.138.74.278 1.334.069 2.074.069.444.209 1.185.348 1.778-.278 2.518-.278l2.371.069c.591 0 .149.209.889.418s1.185.14 1.629 0 1.186 0 2.371.071 3.407.139 3.704-.139 1.628-.14 2.223 0 .591.418 1.036.487S37.446 14 38.038 14s1.185.071 1.925-.069 1.332-.557 1.778-.419.297.349.889.488 2.963-.139 3.259-.349 1.482.071 2.225.14.443-.418 1.331-.488 1.482.139 2.075.139 1.333.21 1.778.28 1.038-.28 1.631-.349 1.331.139 2.222.139.444-.349 1.334-.487 2.073-.14 2.22-.558-.74-.626-.74-.626-.949.122-1.186.069-1.003-.742-1.334-.836-.96.049-1.185 0-.918-.628-1.331-.628-1.126.02-1.335-.14.107-.634-.296-.835-1.832-.358-2.37-.488-.452-.545-.74-.557-.902.196-1.039 0 .187-.623.15-.836-2.05-.484-2.519-.488-1.666.148-2.074.349-1.085-.533-1.631-.626-1.335.235-1.48 0-.246-.606.147-.768.445-.447.297-.696-1.451-.941-2.223-1.046-1.558-.639-2.222-.628-.973-.34-1.483-.418-.932.126-1.628.141-2.133.614-2.668.627-2.235.458-1.926.765.693.396.653.563-1.115.179-1.543.276-.72-.143-1.332 0-1.375-.237-1.927-.141-1.083.512-1.186.628-.444.445-.889.556-.65.003-1.185-.067-1.203.585-1.776.557-.865.215-1.483.208-.726 1.058-1.63 1.117-1.681.946-2.369.975-.643.558-.891.835-1.098.328-1.777.489-.512.795-1.037.837c-.518.037-1.033.765-.587 1.043l-.006.002z" fill="url(#B)" opacity=".9"/><path d="M13.577 12.287c.365.215.973.48 1.578.427s1.095-.267 1.581-.213 0 .106.607.213 1.094.053 1.7.053.365.161.973.267 1.459-.213 2.066-.213l1.943.052c.487 0 .123.16.731.32s.973.108 1.336 0 .971 0 1.945.054 2.793.106 3.038-.107 1.336-.106 1.823 0 .485.32.849.374 1.581-.213 2.066-.213.972.053 1.58-.054 1.093-.427 1.456-.319.245.266.731.373 2.43-.108 2.673-.267 1.215.054 1.824.106.364-.32 1.093-.373 1.215.106 1.702.106 1.092.16 1.458.215.851-.215 1.337-.268 1.092.107 1.824.107.364-.268 1.095-.374c.726-.106 1.7-.106 1.82-.426s-.608-.48-.608-.48-.777.094-.97.052-.824-.567-1.096-.639-.787.037-.972 0-.754-.48-1.092-.48-.923.015-1.094-.108.087-.485-.243-.639-1.504-.274-1.945-.373-.371-.418-.606-.426-.738.15-.852 0 .153-.476.123-.639-1.682-.371-2.066-.375-1.366.113-1.703.267-.89-.407-1.338-.48-1.094.18-1.213 0-.204-.461.119-.586.365-.342.245-.533-1.188-.72-1.823-.8-1.278-.49-1.822-.479-.8-.26-1.216-.321-.765.097-1.336.108-1.75.471-2.189.479-1.834.351-1.58.586.569.302.537.43-.916.137-1.266.21-.592-.108-1.096 0-1.125-.182-1.577-.106a2.12 2.12 0 0 0-.973.48c-.084.088-.364.34-.73.426s-.532.001-.971-.053-.988.447-1.458.427-.71.164-1.216.159-.596.811-1.337.855-1.378.723-1.942.745-.529.428-.732.639-.899.252-1.458.375-.419.609-.851.639-.85.588-.485.801l.001-.001z" fill="url(#C)"/><path d="M22.962 14.907c.466.441 1.239.992 2.013.881s1.394-.551 2.014-.44-.002.22.773.44 1.393.111 2.166.111.465.329 1.239.551 1.858-.44 2.631-.44l2.477.11c.618 0 .155.33.93.66s1.238.221 1.702 0 1.239 0 2.479.11 3.559.221 3.868-.22 1.704-.222 2.324 0 .618.659 1.083.77 2.014-.44 2.633-.44 1.238.111 2.012-.111 1.393-.881 1.856-.662.312.551.93.773 3.096-.222 3.406-.552 1.55.112 2.324.222.465-.662 1.392-.772 1.548.221 2.167.221 1.393.331 1.858.442 1.085-.442 1.705-.552 1.39.218 2.321.218.463-.551 1.395-.77c.926-.22 2.166-.22 2.321-.88s-.775-.993-.775-.993-.991.194-1.238.11-1.048-1.173-1.394-1.324-1.004.078-1.24 0-.96-.992-1.39-.992-1.177.033-1.394-.221.112-1.001-.31-1.322-1.916-.565-2.476-.77-.473-.863-.773-.883-.942.313-1.086 0 .197-.982.156-1.32-2.141-.767-2.631-.772-1.741.232-2.167.552-1.135-.841-1.705-.992-1.396.37-1.548 0-.257-.957.153-1.214.465-.706.312-1.101-1.515-1.488-2.323-1.653S51.523.669 50.83.689s-1.019-.54-1.55-.661-.975.198-1.702.222-2.228.973-2.787.992-2.337.725-2.012 1.21.723.625.682.89-1.166.283-1.612.435-.754-.225-1.393 0-1.435-.374-2.012-.221-1.132.807-1.238.991-.463.704-.93.881-.679.003-1.238-.109-1.259.924-1.857.881-.902.34-1.55.329-.759 1.675-1.703 1.765-1.756 1.496-2.476 1.541-.671.882-.929 1.322-1.148.52-1.858.773-.535 1.259-1.084 1.322-1.082 1.216-.617 1.655l-.001-.001z" fill="url(#D)" opacity=".9"/><path d="M26.736 14.218c.411.292 1.094.657 1.776.584s1.233-.365 1.779-.292-.001.146.683.292 1.229.073 1.913.073.409.219 1.091.365 1.642-.292 2.325-.292l2.187.073c.546 0 .137.218.821.438s1.094.145 1.503 0 1.095 0 2.189.073 3.143.147 3.417-.146 1.502-.147 2.05 0 .546.439.957.512 1.778-.293 2.324-.293 1.093.075 1.776-.072 1.231-.585 1.639-.439.275.366.822.512 2.733-.146 3.007-.365 1.368.075 2.052.146.409-.439 1.229-.512 1.367.147 1.913.147 1.23.218 1.641.293.958-.293 1.504-.367 1.228.145 2.052.145.41-.365 1.231-.51 1.913-.147 2.048-.585-.683-.657-.683-.657-.876.129-1.093.072-.927-.777-1.231-.877-.886.051-1.096 0c-.204-.051-.846-.658-1.228-.657s-1.038.021-1.231-.148.099-.666-.272-.877-1.69-.374-2.186-.512-.416-.571-.683-.584-.832.207-.959 0 .173-.653.139-.877-1.893-.508-2.324-.512-1.537.153-1.915.365-1.001-.557-1.505-.657-1.231.246-1.366 0-.228-.635.134-.805.411-.469.275-.73-1.338-.986-2.049-1.097-1.439-.671-2.05-.659-.9-.356-1.368-.437-.861.13-1.503.145-1.967.646-2.461.658-2.063.48-1.776.803.639.415.602.589-1.029.188-1.424.288-.664-.148-1.23 0-1.267-.246-1.776-.145-.998.535-1.094.657-.409.467-.821.585-.6.001-1.094-.072-1.11.613-1.638.584-.799.225-1.37.218-.669 1.111-1.502 1.17-1.551.992-2.187 1.022-.594.585-.822.877-1.012.344-1.639.513-.473.836-.957.877c-.479.04-.952.804-.542 1.096l-.004.002z" fill="url(#E)"/><path d="M29.733 14.037c.003-1.244 1.227-4.5 2.75-4.188.835.173.953-.69 1.426-1.472s1.188-.905 1.981-.713 1.824-.909 2.186-1.437c.361-.523 2.902-.481 3.583-1.281.68-.794 1.721-.871 2.346-.916s1.926-1.956 2.483-1.995 1.622-.033 2.138.18c.511.211.998.16 1.815 1.846s2.206 2.736 2.83 2.691 3.075 1.49 3.768 1.438 1.315 1.404 2.023.855 1.851 1.056 2.158 1.284 2.256.724 2.254 1.97c-.001.531.9.223 1.91.659 1.35.584 2.874 1.855 2.493 2.025-.369.166-1.65-.069-3.151-.08-1.212-.01-2.798.614-3.25.2-.749-.682-1.462-.013-3.728.245-.797.091-1.44.504-2.484.444-.253-.015-1.158-.368-2.05-.452-.82-.078-1.739.231-2.071.255-.313.023-.353.366-1.041.748-.837.463-2.68.006-3.098-.649-.762-1.189-2.578-.979-2.983-.203s-2.009.146-3.064.721-2.818-.793-3.137-.519-1.299-.329-1.648-.303-1.722.795-2.469.35-1.776-.866-2.262-.831c-.48.034-1.703.371-1.703-.873l-.003.001z" fill="url(#F)"/><path d="M35.793 14.334c-.387-.872-.718-3.973.018-3.222s.545-.389.527-.988.113-.64.552-.59.819-.083.829-.488.894-1.715.971-2.345.555-.795.843-.894.497-.975.75-1.062a2.5 2.5 0 0 1 1.163-.001c.313.091.271-.697 1.185.391s1.978 1.328 2.266 1.226c.285-.097 2.296 2.421 2.613 2.312s1.444.103 1.615-.358.203-.672.42-.547.526.423.912 1.293.191 1.14-.035 1.418-.745 2.067-1.517 1.531-1.703.187-1.925.264-.302.706-.619.815-.769 1.876-1.506 1.124-1.8-.985-1.752-.398-.919.317-1.247.834-1.599-.253-1.667-.027-.109.64-.269.695-1.197.013-1.693-.217-1.121-.416-1.343-.34-.705.444-1.091-.424v-.001z" fill="url(#G)"/><path d="M43.784 4.275c1.127.415 1.569-.645 2.131-.876s1.314-.232 1.878-.232.376 1.156 1.253 1.156 1.067.046 1.82.185.939.921 1.878.968 1.253.923.879 1.151-.315.971-1.003 1.016-.374 1.155-1.128 1.43-1.19.555-2.13.599-.626.925-1.694 1.154-2.193.646-3.32.277-2.132-1.66-3.135-1.613-1.816-.924-1.504-1.292.749-.563 1.125-.887.877-.358.69-.819-.059-.877.191-1.386.94-1.244 2.07-.83h-.001z" fill="url(#H)"/><path d="M42.179 12.021c-1.611-.181-1.992.9-2.71 1.224s-1.736.463-2.498.57-.74-1.014-1.928-.852-1.453.159-2.498.169-1.457-.692-2.739-.558-1.883-.635-1.419-.924.231-.97 1.156-1.142.277-1.159 1.24-1.559 1.502-.744 2.764-.965.666-.989 2.061-1.404 2.842-1.019 4.443-.882 1 1.088 2.347.855 2.713.874 2.363 1.281-.513.326-.96.7.318.672.665 1.071.586.721.348 1.243-1.025 1.348-2.634 1.171h0z" fill="url(#I)"/></g></symbol></svg>