<svg xmlns="http://www.w3.org/2000/svg" xmlns:xlink="http://www.w3.org/1999/xlink" viewBox="0 0 76 73" fill="#fff" fill-rule="evenodd" stroke="#000" stroke-linecap="round" stroke-linejoin="round"><use xlink:href="#B" x=".5" y=".5"/><defs><linearGradient id="A" x1="50.00%" y1="100.00%" x2="50.00%" y2="0.00%"><stop offset=".4%" stop-color="#d1d3d4"/><stop offset="100%" stop-color="#fff"/></linearGradient></defs><symbol id="B" overflow="visible"><g stroke="none" fill-rule="nonzero"><path d="M54.402 4.036c-.251-.539-.333-.532-.555-.788-.392-.35-.461-.33-.707-.478-.593-.255-.913-.292-1.284-.376-2.694-.417-4.696-.438-6.672-.635l-4.899-.511c-1.317-.199-2.323-.483-2.793-.775-.46-.288-.376-.358-.422-.473h-1.153s-.032.14.053.521c.09.355.313.706.668 1.031.701.644 1.778 1.136 3.142 1.639l1.944.636-4.446.339c-3.071.315-6.218.577-9.764 1.656-.898.286-1.831.621-2.879 1.187-.99.607-2.389 1.295-3.486 3.599-.517 1.125-.637 2.699-.331 3.842.131.542.333 1.116.537 1.502.14.263.136.304.409.739l.152.256c1.303 1.766 2.136 2.226 3.093 2.932 3.086 1.964 5.775 3.03 8.387 4.117l-.045.022c-1.24.579-2.438 1.264-3.732 2.267-.642.519-1.361 1.09-2.123 2.222a5.5 5.5 0 0 0-.86 2.237 4.73 4.73 0 0 0 .357 2.501c.622 1.323 1.312 1.775 1.845 2.191.562.407 1.033.634 1.484.861.9.406 1.665.636 2.32.867l2.691.992c.454.216.527.464.545.473l1.133.213c-.039.033.374-.603.071-1.712-.287-1.043-1.082-2.179-2.023-3.344l-.561-.697 1.783-.28 7.413-.913 2.412-.536c.876-.27 1.755-.512 3.115-1.247.688-.483 1.576-.726 2.943-2.801.632-.927 1.192-3.077.775-4.719-.407-1.779-1.102-2.567-1.672-3.267-1.067-1.133-1.773-1.497-2.361-1.86l-1.568-.782c-3.617-1.429-6.503-1.829-9.566-2.461l-6.051-1.452c2.055-.775 4.404-1.422 6.653-1.978l8.305-1.872 3.986-.952c.708-.207 1.258-.316 2.257-.754.1-.043.325-.162.508-.281.051-.024.297-.21.44-.356l.232-.258a2.48 2.48 0 0 0 .354-.668c.174-.444.176-1.057-.054-1.617z" fill="#0576bd"/><path d="M75 35.793H.008l9.431-5.017h52.362z" fill="#939598"/><path d="M71.224 55.84H5.018L0 35.79h74.992z" fill="url(#A)"/><path d="M23.063 37.215h3.835v17.2h-3.835zm32.911 0H60.5v17.2h-4.525zm-8.23 0h4.184v17.2h-4.184zm-16.801 0h4.177v17.2h-4.177zm8.223 0h4.532v17.2h-4.532zm-24.674 0h4.525v17.2h-4.525z" fill="#59595b"/><g fill="#0576bd"><path d="M41.813 71.936h-.006z"/><path d="M49.776 55.254c-.634-.443-.783-.356-1.036-.448l-.614-.097-3.855-.491c-1.139-.233-2.2-.496-2.936-.915-.734-.432-.944-.901-.783-1.545.143-.621.404-1.141.506-1.576.123-.456.046-.664.069-.68l-.488-.006c-.015-.025-.011.258-.162.518-.122.297-.457.746-.775 1.478-.157.356-.282.889-.13 1.46.138.601.581 1.029 1.015 1.412.738.573 1.603.964 2.541 1.327l-2.29.251-2.573.457c-.904.272-1.798.372-3.077 1.443-.316.322-.695.74-.872 1.456a2.95 2.95 0 0 0 .14 1.88l.164.366.044.089.134.202.042.062c.086.116.041.102.253.338.156.179.357.381.511.512l.373.296c.97.694 1.79 1.061 2.606 1.441l1.836.753c-.396.181-.777.374-1.159.618-.532.365-1.304.681-1.883 1.893-.319.798-.024 1.606.278 1.979a2.86 2.86 0 0 0 .796.701c.483.279.872.408 1.218.543.69.243 1.126.459 1.369.599.275.144.201.355.247.367l.524-.003c-.004-.028.166-.386-.022-.829-.165-.509-.619-1.013-1.098-1.581l-.31-.372.609-.146 1.14-.182c1.22-.168 2.391-.187 4.187-.703.256-.094.437-.127.77-.294.263-.124.662-.304 1.164-.824.32-.424.614-.703.749-1.652.116-.834-.21-1.502-.496-1.962-.528-.71-.918-.908-1.203-1.106-1.112-.668-1.821-.816-2.62-1.103l-4.481-1.125-.592-.166 1.881-.549 4.535-.964 2.282-.474.654-.186c.103-.034.251-.077.501-.213l.155-.09a1.56 1.56 0 0 0 .486-.573c.262-.385.144-1.164-.32-1.588z"/></g></g></symbol></svg>