<svg xmlns="http://www.w3.org/2000/svg" xmlns:xlink="http://www.w3.org/1999/xlink" viewBox="0 0 77 62" fill="#fff" fill-rule="evenodd" stroke="#000" stroke-linecap="round" stroke-linejoin="round"><use xlink:href="#C" x=".5" y=".5"/><defs><linearGradient id="A" y2="23.68%" x2="57.53%" y1="65.57%" x1="33.58%"><stop stop-color="#636466" offset="1.1%"/><stop stop-color="#bcbec0" offset="51.7%"/><stop stop-color="#b7b9bb" offset="60.7%"/><stop stop-color="#aaacae" offset="71%"/><stop stop-color="#939597" offset="81.9%"/><stop stop-color="#747577" offset="93.1%"/><stop stop-color="#636466" offset="98.3%"/></linearGradient><linearGradient id="B" y2="85.36%" x2="85.35%" y1="14.65%" x1="14.64%"><stop stop-color="#363436" offset=".6%"/><stop stop-color="#484749" offset="19.8%"/><stop stop-color="#636466" offset="52.8%"/><stop stop-color="#9d9fa2" offset="87.6%"/></linearGradient></defs><symbol id="C" overflow="visible"><g stroke="none" fill-rule="nonzero"><path d="M10.665.015l58.382 33.872-18.143 22.49-49.155-41.38s-4.188-3.88.399-10.401C5.739-.507 10.664.015 10.664.015z" fill="url(#A)"/><path d="M75.001 45.672c0 8.037-6.516 14.55-14.55 14.55a14.55 14.55 0 0 1-14.548-14.55c0-8.034 6.513-14.55 14.548-14.55s14.55 6.516 14.55 14.55z" fill="url(#B)"/></g><path d="M60.732 29.164s-8.098-.752-12.995 5.716c-7.071 9.339-2.677 16.581-2.677 16.581M57.752 27.52s-7.849-.729-12.596 5.557c-6.854 9.077-2.591 16.118-2.591 16.118m12.31-23.386s-7.739-.717-12.42 5.461c-6.753 8.926-2.553 15.843-2.553 15.843m12.515-22.816s-7.648-.71-12.273 5.415c-6.677 8.845-2.525 15.704-2.525 15.704m12.341-22.701s-7.468-.694-11.983 5.288c-6.521 8.639-2.468 15.333-2.468 15.333m11.619-22.202s-7.292-.676-11.696 5.161c-6.366 8.428-2.41 14.963-2.41 14.963M44.48 19.489s-7.2-.668-11.553 5.098c-6.285 8.324-2.377 14.779-2.377 14.779m10.906-21.586s-6.841-.656-10.973 5.003c-5.972 8.169-2.261 14.505-2.261 14.505m10.968-20.832s-6.659-.649-10.688 4.955c-5.812 8.092-2.199 14.363-2.199 14.363m10.995-20.274s-6.659-.625-10.686 4.764c-5.812 7.778-2.199 13.81-2.199 13.81M35.03 14.047s-6.57-.61-10.541 4.651c-5.736 7.595-2.171 13.487-2.171 13.487m10.445-19.401s-6.479-.602-10.397 4.586c-5.659 7.495-2.141 13.304-2.141 13.304m10.271-19.094s-6.298-.585-10.108 4.46c-5.502 7.285-2.083 12.934-2.083 12.934m9.924-18.657s-6.213-.577-9.967 4.396c-5.42 7.18-2.051 12.748-2.051 12.748m9.747-18.598s-6.115-.567-9.819 4.332c-5.344 7.08-2.019 12.565-2.019 12.565m9.384-18.291s-5.941-.551-9.531 4.206c-5.187 6.869-1.965 12.196-1.965 12.196m9.038-17.795s-5.761-.533-9.245 4.078c-5.029 6.662-1.9 11.828-1.9 11.828M18.59 4.505s-5.761-.524-9.242 3.997c-5.029 6.527-1.904 11.589-1.904 11.589m8.687-17.007S10.923 1.965 7.44 6.484c-5.031 6.527-2.642 11.53-2.642 11.53m9.068-16.442S8.987.442 5.726 5.017c-4.711 6.61-2.477 11.672-2.477 11.672M11.787.811S7.155-.254 4.06 4.042c-4.47 6.198-2.349 10.946-2.349 10.946" stroke="#808285" stroke-linejoin="miter" fill="none" stroke-width=".802"/></symbol></svg>