<svg xmlns="http://www.w3.org/2000/svg" xmlns:xlink="http://www.w3.org/1999/xlink" viewBox="0 0 76 43" fill="#fff" fill-rule="evenodd" stroke="#000" stroke-linecap="round" stroke-linejoin="round"><use xlink:href="#I" x=".5" y=".5"/><defs><radialGradient id="A" cy="277%" cx="54%" r="102%" fx="54%" fy="277%"><stop stop-color="#a08371" offset="61.8%"/><stop stop-color="#9e8270" offset="81.2%"/><stop stop-color="#977d6b" offset="88.2%"/><stop stop-color="#8c7564" offset="93.1%"/><stop stop-color="#7b6a59" offset="97.1%"/><stop stop-color="#695e4d" offset="100%"/></radialGradient><linearGradient id="B" y2="2.95%" x2="0.94%" y1="97.05%" x1="99.06%"><stop stop-color="#383328" offset="1.1%"/><stop stop-color="#3e392e" offset="13.1%"/><stop stop-color="#4d4b3e" offset="29.4%"/><stop stop-color="#676759" offset="48.2%"/><stop stop-color="#767869" offset="57.3%"/></linearGradient><linearGradient id="C" y2="0.00%" x2="50.00%" y1="100.00%" x1="50.00%"><stop stop-color="#383328" offset="1.1%"/><stop stop-color="#4c493c" offset="16%"/><stop stop-color="#6a6b5d" offset="42.8%"/><stop stop-color="#767869" offset="57.3%"/></linearGradient><linearGradient id="D" y2="0.04%" x2="48.51%" y1="95.50%" x1="55.44%"><stop stop-color="#54483c" offset=".6%"/><stop stop-color="#63574c" offset="6.2%"/><stop stop-color="#81756d" offset="19.9%"/><stop stop-color="#998d86" offset="34.1%"/><stop stop-color="#aa9e99" offset="48.6%"/><stop stop-color="#b5a8a3" offset="63.9%"/><stop stop-color="#b8aba7" offset="80.9%"/></linearGradient><linearGradient id="E" y2="25.34%" x2="93.51%" y1="74.65%" x1="6.48%"><stop stop-color="#1a111b" offset=".6%"/><stop stop-color="#251f29" offset="7.9%"/><stop stop-color="#3a3744" offset="23.9%"/><stop stop-color="#474653" offset="38.2%"/><stop stop-color="#4b4b59" offset="49.4%"/><stop stop-color="#484755" offset="62%"/><stop stop-color="#3e3b48" offset="75.1%"/><stop stop-color="#2e2834" offset="88.3%"/><stop stop-color="#1a111b" offset="100%"/></linearGradient><linearGradient id="F" y2="14.18%" x2="60.43%" y1="92.15%" x1="36.56%"><stop stop-color="#695e4d" offset="1.1%"/><stop stop-color="#887e74" offset="16%"/><stop stop-color="#a39a96" offset="31.9%"/><stop stop-color="#b9b0b0" offset="48.1%"/><stop stop-color="#c8c0c3" offset="64.7%"/><stop stop-color="#d1c9ce" offset="81.7%"/><stop stop-color="#d4ccd2" offset="100%"/></linearGradient><linearGradient id="G" y2="4.18%" x2="31.12%" y1="95.82%" x1="74.94%"><stop stop-color="#695e4d" offset="1.1%"/><stop stop-color="#887e74" offset="16%"/><stop stop-color="#a39a96" offset="31.9%"/><stop stop-color="#b9b0b0" offset="48.1%"/><stop stop-color="#c8c0c3" offset="64.7%"/><stop stop-color="#d1c9ce" offset="81.7%"/><stop stop-color="#d4ccd2" offset="100%"/></linearGradient><linearGradient id="H" y2="71.13%" x2="95.32%" y1="28.87%" x1="4.68%"><stop stop-color="#1a111b" offset=".6%"/><stop stop-color="#1e1520" offset="24.4%"/><stop stop-color="#28222d" offset="51.2%"/><stop stop-color="#3a3743" offset="79.2%"/><stop stop-color="#4b4b59" offset="100%"/></linearGradient></defs><symbol id="I" overflow="visible"><g stroke="none" fill-rule="nonzero"><path d="M72.013 31.514L44.5 36.912 8.613 41.014l11.586-10.151 13.74-.717 13.945-3.793z" fill="url(#A)"/><path d="M71.979 31.546l2.665-3.657.207-13.329-2.665.819z" fill="url(#B)"/><path d="M7.177 21.738l1.436 19.275-7.179-.82L0 21.533z" fill="url(#C)"/><path d="M12.919 1.641L51.268 0v26.249l-17.022 4.103-19.685 1.436z" fill="url(#D)"/><path d="M45.117 18.662c0 6.116-4.866 11.075-10.87 11.075S23.38 24.778 23.38 18.662 28.246 7.589 34.247 7.589s10.87 4.957 10.87 11.073z" fill="url(#E)"/><path d="M46.756 2.46l4.512.105L74.85 14.56l-2.665.819z" fill="#e1d7d1"/><path d="M46.756 2.46l1.026 24.61 24.198 4.511.272-16.202z" fill="url(#F)"/><path d="M7.28 21.942L20.097 4.306l-6.973.821L0 21.533z" fill="#e1d7d1"/><path d="M20.097 4.306l.615 27-12.099 9.708-1.436-19.072z" fill="url(#G)"/><path d="M45.525 19.891a9.64 9.64 0 0 1-9.639 9.64c-5.322 0-9.638-4.317-9.638-9.64s4.317-9.64 9.638-9.64 9.639 4.318 9.639 9.64z" fill="url(#H)"/></g><g stroke="#1a111b" stroke-linejoin="miter" fill="none" stroke-width=".021"><path d="M31.171 28.71c-2.256-.614-4.307-2.92-5.105-4.64-1.852-3.996-.541-9.245 2.439-12.175 3.939-3.869 10.253-3.485 14.355.206"/><path d="M30.145 28.299c-2.255-.634-4.307-3.012-5.104-4.787-1.853-4.121-.542-9.537 2.438-12.559 3.939-3.993 10.254-3.595 14.356.213"/></g></symbol></svg>