<svg xmlns="http://www.w3.org/2000/svg" xmlns:xlink="http://www.w3.org/1999/xlink" viewBox="0 0 76 45" fill="#fff" fill-rule="evenodd" stroke="#000" stroke-linecap="round" stroke-linejoin="round"><style><![CDATA[.B{fill-rule:nonzero}.C{fill:#ad7963}.D{stroke:none}.E{fill:#bc967b}.F{stroke:#a49684}.G{stroke-linejoin:miter}.H{fill:#bcb6ad}.I{stroke-width:.28}.J{stroke-linecap:butt}.K{stroke-width:.563}.L{fill:#84715b}.M{fill:#dfd0c7}.N{fill:#bdb6a6}.O{stroke-width:.559}]]></style><use xlink:href="#E" x=".5" y=".5"/><defs><linearGradient id="A" y2="50.01%" x2="100.00%" y1="50.01%" x1="-0.00%"><stop stop-color="#a9a49c" offset="2.8%"/><stop stop-color="#b9b5ae" offset="18.8%"/><stop stop-color="#e2dfdc" offset="50%"/><stop stop-color="#d3d0ca" offset="57.8%"/><stop stop-color="#b5b0a5" offset="76%"/><stop stop-color="#a39d8e" offset="90.7%"/><stop stop-color="#9c9686" offset="100%"/></linearGradient><linearGradient id="B" y2="49.98%" x2="100.01%" y1="49.98%" x1="-0.00%"><stop stop-color="#bcb6ad" offset="2.8%"/><stop stop-color="#cbc6bf" offset="24.7%"/><stop stop-color="#e2dfdc" offset="52.3%"/><stop stop-color="#dfdcd8" offset="54.2%"/><stop stop-color="#c4bfb3" offset="73.9%"/><stop stop-color="#b3ad9c" offset="89.9%"/><stop stop-color="#ada694" offset="100%"/></linearGradient><linearGradient id="C" y2="0.04%" x2="49.98%" y1="100.01%" x1="49.98%"><stop stop-color="#a9a49c" offset="2.8%"/><stop stop-color="#b9b5ae" offset="18.8%"/><stop stop-color="#e2dfdc" offset="50%"/><stop stop-color="#d3d0ca" offset="57.8%"/><stop stop-color="#b5b0a5" offset="76%"/><stop stop-color="#a39d8e" offset="90.7%"/><stop stop-color="#9c9686" offset="100%"/></linearGradient><linearGradient id="D" y2="0.04%" x2="49.99%" y1="99.99%" x1="49.99%"><stop stop-color="#a9a49c" offset="2.8%"/><stop stop-color="#b9b5ae" offset="18.8%"/><stop stop-color="#e2dfdc" offset="50%"/><stop stop-color="#d3d0ca" offset="57.8%"/><stop stop-color="#b5b0a5" offset="76%"/><stop stop-color="#a39d8e" offset="90.7%"/><stop stop-color="#9c9686" offset="100%"/></linearGradient></defs><symbol id="E" overflow="visible"><g class="B D"><path d="M53.501 20.352c.825 0 1.601.032 2.415.14 2.002.265 4.015.256 6.034.192l8.03.035c.88 0 1.992.212 2.842-.033.208-.059.391-.221.607-.27.36-.082.742.018 1.109-.064v5.247l-20.939.843-.1-6.09z" fill="#647a6b"/><path d="M7.608 3.82c-.309.096-.407.157-.71-.005-.122-.065-.274-.146-.345-.271-.254.363-.229.776-.793.624-.198-.054-.753-.422-.897-.348-.273.14-.298.489-.687.401-.343-.078-.365-.489-.672-.569-.095.245-.334.386-.589.431-.459.08-.782-.122-1.025-.456-.042.148-.367.315-.495.309-.169-.007-.464-.221-.521-.386-.149.184-.743.119-.743.119v32.302l74.47 3.993-.063-14.891c-.552.264-1.156.429-1.833.259-.618-.156-1.053-.384-1.683-.259-1.768.351-3.63.195-5.485.195-1.195 0-2.265-.26-3.415-.326-1.047-.061-1.817.672-2.803.783-.922.104-1.942-.171-2.81-.405-.993-.266-1.636.025-2.624.132-.334.036-.686.013-1.025.013l-24.522-4.169L8.201 3.409c0-.001-.411.352-.595.41z" fill="#84a6ce"/><path d="M.001 34.127v9.639h74.567v-2.889c0-.569.086-1.212 0-1.777-.141-.953-.724-.688-1.573-.606-.672.065-1.26-.177-1.865-.346-1.542-.429-3.302-.446-4.917-.291-1.39.133-2.435-.979-3.853-.722-1.024.186-2.147-.404-3.381.378l-5.86-.402c-4.637-.317-9.834.46-14.472.142-5.495-.377-10.432-1.848-15.928-2.226l-13.588-.931-3.618-.249c-1.016-.07-2.383-.339-3.308.037-.726.292-1.417.241-2.206.241" fill="#491a13"/></g><path d="M8.403 17.78V.717L8.924 0h4.428l15.043 20.319h3.388V8.206h1.433l.196.587h14.067l.39-.522h1.107v10.03h4.884l-.065 13.351c-4.69 1.498-10.811 5.013-12.309.781.065.195 0-2.735 0-2.735l.782-.521c.261.912 3.582 1.758 3.712-.976s-3.126-2.345-3.777-1.238h-3.321c-1.368-1.411-2.213-.717-2.213-.717l-23.057-4.558-5.209-3.907z" class="B F G H I"/><g class="D"><path d="M35.071 17.91h12.275v2.573H35.071z" fill="#a49684" class="B"/><path d="M39.663 19.864h1.758v10.823l-1.726.052z" fill="url(#A)" class="B"/></g><path d="M3.518 36.666l55.4 1.217 1.303-2.171-9.899-.174c-2.953.086-7.814 3.733-11.028-1.998l-.087-3.994-.435-.434s-1.041 1.823-3.039.347L13.07 24.596l-3.212 1.042-.868 3.473-4.516-.088-.954 2.085v5.555z" class="B F G H I"/><g class="D"><path d="M35.82 20.688l.065 2.66s4.493.249 8.629-.097l.097-2.573s-4.59-.272-8.79.011z" fill="url(#B)" class="B"/><path d="M42.691 28.135c.097.586-1.465 1.14-1.465 1.14l.032-2.086s1.337.358 1.434.945z" fill="url(#C)" class="B"/><path d="M38.266 28.168c-.097.585 1.466 1.14 1.466 1.14l-.032-2.083s-1.334.358-1.433.945z" fill="url(#D)" class="B"/><g fill="#a49684"><path d="M32.725 9.476h15.403v8.759H32.725z" class="B"/><path d="M33.672 18.04h1.855v5.666h-1.855zm11.201 1.79h2.833v3.907h-2.833z" class="B"/></g></g><g class="G"><g stroke="#ffc20e" fill="none" class="J"><path d="M44.875 22.501h1.983" stroke-width=".578"/><path d="M46.729 22.501V15.16" class="K"/><path d="M46.729 15.272h16.542m-.358-.521H46.175" class="O"/><path d="M46.175 14.63v7.343" class="K"/><path d="M46.305 21.98H44.91" stroke-width=".586"/><path d="M44.839 21.395h.799" stroke-width=".604"/><path d="M45.523 21.377v-7.343m0 .132h17.031" class="K"/></g><g stroke="#bcb6ad" stroke-width="1.118"><path d="M4.472 15.999l4.299-.043-.044 13.371-4.298.045z" fill="none"/><g class="J"><path d="M4.472 29.021l4.255-.039m-4.255-3.214h4.342m-4.342-3.253h4.473m-4.473-3.262h4.342" fill="none"/><path d="M7.425 16v13.156M5.949 16v13.198" fill="none"/></g></g><g class="B F H I"><path d="M62.456 19.994h5.014v.684h-5.014zm1.009-.846h3.191v.162h-3.191z"/><path d="M63.087 19.864l.379-.554 3.138.055.434.563zm3.299-3.279h.564v2.453h-.564zm-3.322.023h.478v2.475h-.478zm2.692 0h.564v2.431h-.564zm-2.183-.043h.673v2.518h-.673zm1.511.021h.63v2.497h-.63zm-.738.023h.651v2.497h-.651zm-.717-.651h2.779v.477h-2.779zm3.843-2.019l-2.214 1.932.976.021zm-5.079-.043l1.346 1.996.976-.043z"/></g><path d="M67.384 14.155h7.403m-7.75.586h7.814m-8.205.565h7.99" stroke="#ffc20e" fill="none" class="J O"/></g><g class="B D"><path d="M59.265 24.324c-.242-.553-1.115-.368-.758.23.118.197.501.239.706.219.458-.045.238-.174.117-.449h-.066zm-4.364.521c-.243-.553-1.115-.368-.758.231.118.196.501.239.707.218.456-.046.237-.174.116-.449h-.066z" class="L"/><path d="M73.299 24.666c-.36-.05-.857.345-.547.651.596.588.417-.308.482-.487l.064-.165zm-15.63.147c-.361-.05-.856.345-.546.651.596.588.417-.308.481-.488l.066-.163z" class="C"/><path d="M67.896 24.421c-.248.014-.953-.322-1.044-.026-.078.253.192.329.357.417.175.094.623.386.695.04.04-.21-.009-.433-.009-.433zm-12.018.593c-.079.253.192.329.357.418.175.093.623.385.695.039.044-.206-.234-.203-.334-.365-.001 0-.629-.388-.719-.091z" class="E"/><path d="M62.326 24.161c-.217.246-.486.945.122.913.557-.03.076-.63.007-.881l-.13-.033zm-4.787-.292c-.217.246-.485.945.123.913.557-.029.075-.629.006-.881l-.129-.033z" class="M"/><path d="M56.531 24.228c-.868-.013-.14.867.389.752s.209-.712-.259-.719l-.13-.033z" class="N"/><path d="M57.66 25.114c.082.191.907.162 1.097.152.071-.224-.028-.587-.273-.655-.27-.076-.373.207-.652.17 0 0-.293.051-.174.334zm-2.4-.886c-.235.185-.292.179-.172.462.081.192.908.163 1.097.152.069-.224-.028-.586-.274-.655-.269-.076-.651.04-.651.04z" class="C"/><path d="M72.061 24.13c-.24-.554-1.113-.368-.756.229.117.197.5.24.708.219.456-.045.235-.174.115-.448h-.067zm2.183 0c-.242-.554-1.115-.368-.758.229.119.197.5.24.708.219.456-.045.235-.174.115-.448h-.066z" class="L"/><path d="M71.118 24.486c-.36-.05-.857.346-.547.651.596.588.417-.308.481-.487l.066-.165z" class="C"/><path d="M68.675 24.819c-.078.254.193.33.359.417.174.094.623.386.693.041.042-.207-.234-.203-.334-.366-.002-.001-.627-.388-.719-.093z" class="E"/><path d="M70.334 23.673c-.214.246-.485.946.123.913.557-.029.076-.629.008-.881l-.13-.033zm2.265.18c-.216.246-.485.945.123.913.555-.029.073-.63.006-.881l-.129-.033z" class="M"/><path d="M69.328 24.031c-.869-.012-.14.867.386.752.532-.116.213-.712-.256-.719l-.13-.034z" class="N"/><path d="M71.208 24.983c.081.192.391.502.527.161.188-.016.38.001.568-.011.071-.223-.028-.585-.273-.654-.269-.076-.372.208-.651.171 0 .001-.294.049-.172.334zm2.353-.462c-.235.185-.292.179-.172.462.081.192.907.162 1.096.15.072-.223-.028-.585-.271-.654-.271-.076-.653.042-.653.042zm-5.675-.026c.081.192.391.502.528.161.188-.016.378.001.57-.01.07-.224-.028-.586-.274-.655-.269-.075-.372.207-.653.171 0 .002-.29.051-.171.335zm-2.01-.301c-.361-.05-.856.345-.547.65.597.588.417-.308.481-.488l.064-.162z" class="C"/><path d="M60.796 24.389c-.247.014-.951-.322-1.043-.026-.077.253.192.329.358.417.175.094.623.386.694.04.043-.208-.009-.433-.009-.433z" class="E"/><path d="M64.964 24.097c-.242-.554-1.114-.368-.757.229.117.196.502.239.707.219.457-.046.237-.174.116-.448h-.064zm2.183 0c-.242-.554-1.114-.368-.758.229.117.196.501.239.707.219.457-.046.238-.174.116-.448h-.064z" class="L"/><path d="M63.205 24.324c-.361-.05-.856.345-.546.651.596.588.416-.308.48-.489l.066-.163z" class="C"/><path d="M61.088 23.875c-.079.253.192.329.357.417.174.094.623.386.694.04.042-.209-.961-.754-1.052-.458z" class="E"/><path d="M63.238 23.64c-.217.245-.487.945.123.912.557-.028.075-.629.007-.88l-.13-.031z" class="M"/><path d="M62.521 23.61c-.867-.013-.138.867.389.752.532-.116.21-.713-.259-.72l-.13-.033z" class="N"/><path d="M63.612 24.422c-.235.187-.293.179-.172.464.081.191.391.502.528.161.188-.016.38.001.569-.01.07-.224-.028-.586-.274-.655-.268-.076-.651.04-.651.04zm2.287.561c.08.192.391.502.528.161.187-.016.38.001.569-.011.069-.223-.028-.585-.274-.654-.269-.076-.371.208-.651.171 0 .002-.292.049-.172.334zm-6.407-.235c-.235.185-.29.179-.171.463.081.192.908.163 1.097.152.072-.224-.027-.586-.273-.655-.27-.076-.653.041-.653.041z" class="C"/></g></symbol></svg>