<svg xmlns="http://www.w3.org/2000/svg" xmlns:xlink="http://www.w3.org/1999/xlink" viewBox="0 0 76 65" fill="#fff" fill-rule="evenodd" stroke="#000" stroke-linecap="round" stroke-linejoin="round"><style><![CDATA[.B{fill-rule:nonzero}.C{stroke:none}.D{opacity:.8}.E{stroke:#aec4d0}.F{stroke-linejoin:miter}.G{fill:url(#I)}.H{stroke-width:.003}.I{fill:#5e895a}]]></style><use xlink:href="#N" x=".5" y=".5"/><defs><linearGradient id="A" x1="50.00%" y1="100.00%" x2="50.00%" y2="0.00%"><stop offset="0%" stop-color="#a9cae5"/><stop offset="70.9%" stop-color="#93bfe1"/></linearGradient><linearGradient id="B" x1="50.00%" y1="-0.00%" x2="50.00%" y2="100.00%"><stop offset="24.6%" stop-color="#96cde7"/><stop offset="75.8%" stop-color="#61b5da"/><stop offset="100%" stop-color="#40abd4"/></linearGradient><linearGradient id="C" x1="50.00%" y1="0.00%" x2="50.00%" y2="100.00%"><stop offset="24.6%" stop-color="#96cde7"/><stop offset="72.1%" stop-color="#6fbadd"/></linearGradient><linearGradient id="D" x1="50.00%" y1="100.00%" x2="50.00%" y2="-0.00%"><stop offset="0%" stop-color="#d7c39a"/><stop offset="100%" stop-color="#aa8d6b"/></linearGradient><linearGradient id="E" x1="0.01%" y1="50.00%" x2="100.02%" y2="50.00%"><stop offset="0%" stop-color="#c7b08a"/><stop offset="100%" stop-color="#c4ab85"/></linearGradient><linearGradient id="F" x1="0.00%" y1="50.00%" x2="100.00%" y2="50.00%"><stop offset="0%" stop-color="#5e895a"/><stop offset="69.1%" stop-color="#477444"/></linearGradient><linearGradient id="G" x1="-0.00%" y1="50.00%" x2="100.00%" y2="50.00%"><stop offset="0%" stop-color="#4e7d4b"/><stop offset="100%" stop-color="#5e895a"/></linearGradient><linearGradient id="H" x1="0.01%" y1="50.01%" x2="100.00%" y2="50.01%"><stop offset="0%" stop-color="#4e7d4b"/><stop offset="100%" stop-color="#5e895a"/></linearGradient><linearGradient id="I" x1="24.80%" y1="278.22%" x2="75.50%" y2="-141.32%"><stop offset="0%" stop-color="#fff"/><stop offset="34.3%" stop-color="#eef8fe"/><stop offset="88.8%" stop-color="#d3e0e7"/></linearGradient><linearGradient id="J" x1="25.10%" y1="316.02%" x2="75.12%" y2="-168.61%"><stop offset="0%" stop-color="#fff"/><stop offset="19.7%" stop-color="#eef8fe"/><stop offset="88.8%" stop-color="#e6ebec"/></linearGradient><linearGradient id="K" x1="25.10%" y1="315.88%" x2="75.13%" y2="-168.48%"><stop offset="0%" stop-color="#fff"/><stop offset="19.7%" stop-color="#eef8fe"/><stop offset="88.8%" stop-color="#e6ebec"/></linearGradient><linearGradient id="L" x1="50.00%" y1="0.00%" x2="50.00%" y2="100.00%"><stop offset="10.3%" stop-color="#c7b089"/><stop offset="100%" stop-color="#aa8d6b"/></linearGradient><linearGradient id="M" x1="50.75%" y1="0.03%" x2="48.75%" y2="99.96%"><stop offset="0%" stop-color="#fff"/><stop offset="100%" stop-color="#9c2124"/></linearGradient></defs><symbol id="N" overflow="visible"><g class="B C"><path d="M39.885 0h34.964v11.96H39.885z" fill="url(#A)"/><path d="M74.849 53.993V14.411v-3.598H47.627l-3.098 5.492-4.644-.421v38.109z" fill="url(#B)"/><path d="M74.849 38.893v20.655H39.885V38.893s.398.38 1.345.4 1.345-.4 1.345-.4.399.347 1.345.4 1.345-.4 1.345-.4.432.347 1.345.4 1.345-.4 1.345-.4.399.347 1.345.4 1.345-.4 1.345-.4a3.48 3.48 0 0 0 1.345.4c.746.053 1.345-.4 1.345-.4s.466.413 1.345.4 1.344-.4 1.344-.4a2.94 2.94 0 0 0 1.345.4c.745.02 1.345-.4 1.345-.4s.434.413 1.345.4 1.345-.4 1.345-.4.467.38 1.345.4 1.345-.4 1.345-.4.534.413 1.345.4 1.345-.4 1.345-.4.435.347 1.345.4 1.345-.4 1.345-.4.535.38 1.345.4 1.345-.4 1.345-.4.535.413 1.345.4 1.348-.4 1.348-.4z" fill="url(#C)"/><path d="M68.337 20.395l-.001-.001h-.155c-.256.032-.29.372-.149.535.069.081.148.15.207.232s.114.159.22.193c.239.077.458-.025.653-.141.175-.104.457-.202.332-.453-.107-.028-.201-.038-.306-.057s-.203-.047-.312-.077c-.152-.042-.306-.273-.489-.231zm-4.306 4.304c.024-.022.063-.053.079-.08s.009-.037.019-.06.029-.026.034-.046c.009-.042.011-.105.016-.143.007-.056-.003-.108-.018-.159a.5.5 0 0 0-.154-.238c-.061-.052-.15-.111-.196-.175 0 0-.105-.099-.175-.111s-.462.034-.686.032c-.194-.002-.403.099-.561.203l-.518.326-.596.374c-.067.026-.105.056-.145.078-.057.031-.092.036-.155.052a1.8 1.8 0 0 0-.319.123l-.139.072-.068.039c-.047.026-.064.025-.112.035-.134.031-.26.101-.386.156-.038.016-.135.039-.153.082-.032.08.107.09.157.108.107.038.265.03.382.016l.366-.06c.061-.008.129 0 .191 0 .073 0 .136-.017.207-.016.258.003.519-.078.765-.14.127-.031.25-.074.367-.13.111-.052.216-.144.334-.176.233-.058.518-.027.767-.027l-.001-.004.398-.016a.44.44 0 0 0 .3-.115zm-5.424 4.707l.815-.6c.214-.116.893-.232 1.223-.387s.718-.502.621-.58-.951.039-1.611.116l-2.523.329c-.369.097-.97.522-1.203.58s-.388.154-.621.213-.718.251-.621.425.835.174 1.397.251h0c.563.078 2.31-.193 2.523-.348zm12.607-12.41c.048-.093.028-.112-.089-.129a2.25 2.25 0 0 0-.305-.02c-.082.002-.161.036-.206.042-.085.01-.156.006-.233.026-.138.035-.309.022-.442.074l-.445.151c-.121.035-.26.123-.383.134l-.362.129c-.093.062-.334.142-.364.282-.041.192.314.209.415.234a.55.55 0 0 0 .517-.109c.182-.129.265-.235.493-.252a1.24 1.24 0 0 0 .499-.148c.166-.085.346-.118.516-.182.145-.055.31-.079.388-.232zm-1.3 1.052c-.038.056-.082.162-.046.232.042.079.172.055.253.082s.15.061.233.071c.147.018.168-.044.212-.155s.039-.152.027-.263c-.008-.076-.002-.222-.058-.276-.022-.006-.156.001-.234.024h.001c-.077.023-.291.14-.388.284zm-2.224-1.85c.098-.05.207-.108.277-.194.098-.122.088-.285.027-.324s-.134-.038-.208-.077a.85.85 0 0 0-.252-.084c-.184-.02-.396-.009-.551-.122-.113-.082-.233-.031-.376-.038-.259-.013-.343-.002-.504-.065-.657-.255-.143-.082-1.178-.219l-.75-.078c-.204.027-.429.056-.602-.058-.18-.119-.486-.082-.699-.135-.387-.097-.557-.046-.97-.097l-.718-.077-.563-.116c.019-.012-.471.051-.49.156-.035.179-.211.328-.364.411s-.311.119-.467.179l-.492.208-1.007.386-.338.104c-.089.022-.18.022-.278.032-.187.02-.371.062-.548.124-.342.119-.859.249-1.005.365s-.183.216-.232.336c-.056.134-.079.281-.063.413.009.078-.006.167.011.245h.001c.011.05.059.109.078.153.058.129.168.227.259.337.071.085.176.166.258.262.076.09.153.187.246.265.206.174.451.209.685.297.31.117.588.33.898.47.172.077.288.208.435.316s.274.188.446.244c.188.061.36.078.523.187.154.103.305.152.467.227l.46.186c.137.057.315.258.465.259s.259.181.259.181c.044.041.068.15.097.213.034.074.042.193.089.251.105.132.326-.169.408-.263.131-.149.303-.207.461-.309l.413-.286c.29-.187.608-.323.931-.463.363-.156.784-.156 1.171-.2l1.185-.186c.195-.022.414-.086.606-.117.209-.034.39-.059.589-.128l.569-.213c.172-.057.272-.126.407-.265s.216-.277.188-.483c-.012-.088-.032-.152-.084-.225-.07-.097-.119-.098-.221-.141-.07-.029-.133-.074-.211-.097-.096-.028-.192-.043-.28-.083-.159-.072-.29-.177-.445-.253-.135-.066-.245-.335-.097-.458.127-.105.369-.089.531-.115.091-.015.184-.061.29-.046.09.013.123.035.278.046s.272-.066.446-.143.446-.523.232-.464-.543.22-.698.226-.383-.061-.42-.252c-.044-.223.283-.135.422-.205zM48.412 28.386v-.004c.203-.051.434-.177.628-.245.178-.063.305-.198.485-.259.341-.115.644-.323.985-.462.144-.059.285-.139.417-.233.057-.041.153-.093.197-.14.058-.063.101-.155.16-.227.233-.28.452-.518.538-.877.051-.218-.111-.327-.175-.515-.049-.144.012-.377-.058-.587s-.194-.736-.194-.736l-.038-.451c-.013-.097-.381-1.587-.462-2.146-.055-.379-.203-.733-.173-1.067.028-.313-.032-.609.109-.893.128-.259.437-.508.647-.75.078-.09.441-.318.527-.405.165-.166.345-.326.538-.48s.404-.445.625-.586c.415-.265.873-.367 1.364-.591l.751-.29c.16-.066.651-.321.977-.472.192-.089.399-.118.603-.174.18-.05.361-.132.541-.181s.555-.28.757-.307.426-.093.627-.15l.576-.173c.153-.057.353-.124.434-.289.112-.231-.008-.33-.235-.387-.382-.096-.797-.081-1.189-.183-.384-.099-.79-.128-1.19-.23-.196-.05-.404-.076-.596-.154-.16-.065-.282-.17-.432-.265-.171-.11-.336-.134-.525-.179l-.621-.176c-.18-.045-.352-.108-.523-.173l-.222-.089c-.036-.019-.071-.044-.109-.065s-.176-.135-.344-.263c-.105-.079-.16-.16-.17-.229-.008-.059-.02-.095.122-.216.117-.099.191-.125.388-.184.125-.037.329-.062.441-.084.245-.075.503.028.552.022.199-.024 1.665.107 1.955-.035s.518.006.926-.027c.214-.017.94-.162 1.18-.168.696-.021.647-.091.855-.124s1.024-.02 1.627-.204c.404-.123 2.346-.446 2.315-.461-.154-.075-5.414-.114-5.736-.153-.819-.099-1.706-.034-1.887-.06s-.573-.005-.776-.027c-.086-.01-3.663.042-7.908.11l-7.812 4.062v17.14l.303-.018c.09-.019 2.056.12 2.141.089s.176-.091.264-.124l.466-.18c.386-.116.825-.61 1.237-.656.172-.02.337-.103.497-.175.142-.064.356-.796.484-.876l1.635-1.026c.19-.04.341-.061.517-.149.325-.157.624-.298.983-.389zm22.234-.81c-.021-.205-.985-1.055-1.293-1.25l-.002.001c-.309-.194-1.151-.564-1.272-.634s-.173-.241-.281-.264c-.115-.024-.184.124-.263.187-.188.149-.44-.019-.671.105-.395.214-.755.499-1.117.775s-.43.457-.815.69c-.21.127-.658.334-.882.409l-.355.111a1.77 1.77 0 0 0-.53.228c-.205.164-.322.271-.492.459-.159.176-.337.351-.522.483l-1.215.779c-.224.117-.65.456-1.203.573-.155.033-.449-.003-.585.061-.24.113-.214.252-.375.472-.079.108-.712.352-.173.636.136.072 1.198.007 2.158.096 1.006.094 1.937.337 3.244.247.728-.05 1.454-.757 2.126-.776 1.538-.043 2.792.456 3.123.359.986-.288.335-1.924.541-2.252s.874-1.29.853-1.494zm-13.241 2.761l-.001-.002c-.059-.009-.115-.044-.173-.058-.085-.021-.167-.026-.253-.039-.033-.005-.066-.021-.097-.021-.039 0-.072.026-.117.022l-.232-.02c-.162 0-.331.003-.485.037-.079.018-.149.021-.233.021-.09 0-.149.017-.233.038-.297.076-.619.039-.931.078-.082.01-.156-.011-.233-.021-.083-.01-.17.012-.253.002-.15-.018-.32-.039-.466-.002l-.193.059c-.084.021-.166.014-.253.024l-.485.039c-.157.019-.323.015-.485.015s-.323.034-.485.039l-.951.058c-.074.003-.151.027-.218.034-.084.009-.167.003-.248.023-.158.041-.323.117-.485.136-.079.01-.156 0-.233.017l-.252.059c-.158.035-.323.037-.485.057s-.33 0-.485.005-.505.112-.777.15-.738.252-.738.252 1.087.388 2.466.414c.74.014 1.564-.306 2.349-.347 1.32-.069 2.532.128 3.053.215 1.409.235 1.994-.352 2.023-.403a1 1 0 0 1 .141-.169c.094-.094.215-.133.316-.207a1.08 1.08 0 0 0 .272-.295c.027-.046.095-.114.069-.171-.035-.074-.146-.031-.209-.041zm9.351-19.632c-.448-.024-1.626.095-1.626.095l-3.854.904-.769.053-.002.003c-.168.004-.331.031-.585.095s-.716.021-.977.078-1.319.16-1.319.16l-2.567-.004s-.595.129-.605.214.026.134.131.203.158.081.221.097c.103.025.207.019.311.031.194.023.374.101.545.2.144.083.268.186.419.259.177.085.325.126.511.161l.312.071c.105.03.198.018.311.031.182.021.304.076.49.129s.359.162.542.183c.1.011.206-.084.306-.073l.29.046c.403.06.912.259 1.32.258.211-.001.335.128.543.103s.437.001.647.001l.647.032c.106.012.198.046.311.046s.201.022.312.052l.595.155.257.052c.113.029.222.009.338.024.19.023.396.045.595.027.175-.016.453.02.543.078s.28-.033.387.023l.802.364c.139.053.267.104.41.134l.419.073c.293.062.581.169.875.262.28.089.57.111.859.176.197.044.389.042.568.128.166.08.331.129.493.206l.491.206c.162.075.327-.074.491-.026.173.05.363.084.538.161.162.072.239.228.375.322a1.25 1.25 0 0 0 .22.116c.064.028.153.052.213.097.183.141-.061.269-.206.285-.208.023-.335.046-.512.16a1.57 1.57 0 0 0-.389.335c-.133.169-.11.342-.11.561 0 .106.013.215-.026.309-.032.076-.09.135-.136.2-.1.141-.16.308-.272.446-.137.168-.291.163-.466.237-.165.069-.341.221-.496.311-.096.055-.38.145-.395.271-.124.02-.187.24-.125.322.074.099.313.315.421.348l.388.103c.066.023.137.012.202.037s.117-.012.18.014c.083.035.132-.043.13.059-.001.032-.039.151-.056.175-.061.082-.219.145-.299.192-.123.072-.237.135-.337.229-.054.051-.098.109-.168.145-.04.021-.069.008-.123.006a1.21 1.21 0 0 0-.389.103c-.047.042-.072.138-.103.206-.016.034-.048.072-.072.104s-.088.083-.103.108c-.109.178.227.263.355.279.2.023.403-.081.577.018.072.041.149.098.219.142.082.052.146.068.234.102.359.139.82.028 1.196.123.177.045.366.066.543.128.199.069.36.176.569.233.352.096.673.285.982.471.17.103.368.162.546.224s.347.15.516.213.329.156.484.252V10.746l-8.093-.042zM51.353 21.347l.308 1.003c.062.123.241.65.295.623.075-.037.148 0 .227-.032.104-.043.175-.03.291-.044.188-.022.39-.086.569-.13.191-.047.54-.065.725-.128.358-.123.79-.086 1.132-.27.184-.099.444-.109.637-.111.216-.001.582-.163.781-.206.344-.075.508-.191.845-.317.081-.031.437-.149.526-.159.196-.022.375-.114.558-.159s.571.002.75-.079c.16-.073.61-.211.764-.27.147-.056.161-.186.112-.397-.045-.191-.867-.367-1.014-.423-.168-.063-.339-.082-.506-.166-.14-.071-.339-.185-.393-.33-.033-.088-.274-.108-.271-.208.003-.113-.71-.403-.863-.495-.069-.042-.443-.138-.549-.148-.19-.018-.281-.327-.453-.39-.352-.13-.538-.423-.733-.715-.223-.334-.175-.413-.175-.699 0-.042-.868.354-.862.317-.46.132-.784.636-1.142.864-.29.185-.87.537-1.08.756-.125.13-.468.402-.556.54-.153.24-.059.518-.092.771-.057.427.062.637.169 1.003zm10.481 5.487l.001-.001.38-.098c.074-.024.191-.13.254-.188s.103-.13.144-.21.159-.268-.026-.461c-.056-.067-.096-.082-.048-.169.031-.056.076-.107.109-.162.04-.069.054-.139-.016-.19s-.122-.022-.195-.004c-.3.075-.612.072-.921.115-.066.009-.127.002-.191.015-.057.012-.11.034-.163.045-.129.027-.247.033-.379.051-.252.035-.496-.017-.749-.016-.128.001-.25-.016-.383.001-.068.008-.139-.006-.207.003l-.191.028c-.12.01-.239.048-.35.1-.06.028-.115.04-.176.058s-.095.074-.162.093-.172.072-.236.098c-.081.033-.165.047-.24.082a4.87 4.87 0 0 1-.509.203c-.16.053-.303.146-.446.223l-.227.123c-.081.042-.153.099-.236.147-.213.125-.469.19-.69.297s-.431.195-.681.195c-.132 0-.256 0-.37.044-.103.04-.2.092-.298.146-.207.113-.706.207-.686.239s.258.07.366.063.339.015.494 0c.169-.015.328.001.495 0 .174-.001.364.033.541.032l.478.016c.25 0 .492-.077.714-.162s.457-.14.689-.19c.124-.028.261-.019.382-.045.112-.025.241-.031.355-.044.068-.008.136-.009.204-.004.059.005.102.024.159.032a.88.88 0 0 0 .208-.003c.066-.008.122.006.187 0 .11-.01.226-.048.338-.061.122-.014.248-.028.368-.063l.351-.111.366-.076.415-.08.398-.05c.123-.028.26-.034.38-.064zm-2.321-5.227c.105.019.445.054.601.072.217.024.391.049.591.139.09-.087-.009-.371-.058-.464-.041-.076-.185-.231-.275-.294s-.161-.188-.186-.165-.016.104-.047.15-.111.146-.166.195a1.57 1.57 0 0 1-.337.181c-.196.081-.633.162-.563.186h-.001c.07.023.335-.02.44 0zm-8.027 5.731c-.053.048-.229.154-.156.29s.712.076.854.019c.262-.105.584-.036.83-.198.048-.032.098-.076.156-.097.068-.026.16-.014.237-.014.179 0 .324-.011.467-.131.083-.07.159-.163.27-.179.129-.019.295.037.413-.014.104-.044.144-.15.232-.218s.239-.085.345-.097c.087-.01.356-.09.427-.116.107-.038.248-.097.37-.096.148.001.268.002.392-.073.082-.049.262-.136.302-.24s.201-.24.275-.286c.133-.084.284-.06.427-.096s.226-.09.345-.179c.062-.047.281-.177.34-.223.128-.099.261-.101.421-.101.169 0 .323-.02.485-.04.307-.037.6-.187.893-.274s.6-.177.854-.325c.245-.143.418-.381.636-.546.119-.09.255-.137.393-.193l.403-.154c.244-.095.51-.186.76-.248a.72.72 0 0 0 .153-.06c.034-.019.077-.262-.093-.287-.064-.01-.133.011-.196.002l-.194-.038a1.44 1.44 0 0 1-.345-.14c-.061-.034-.221-.161-.279-.205-.099-.072-.203-.136-.311-.192l-.368-.174c-.132-.054-.234-.111-.349-.175-.055-.03-.097-.049-.146-.087-.059-.045-.111-.098-.175-.136-.117-.069-.284-.097-.412-.129-.151-.037-.305-.075-.466-.078-.299-.006-.618-.094-.912-.057-.155.019-.319.004-.466.038l-.446.092-.834.194c-.064.022-.132.025-.195.042-.069.019-.143.058-.214.078-.133.036-.271.085-.407.132a2.17 2.17 0 0 1-.446.097l-.451.058c-.108.015-.21.03-.307.062s-.194.106-.291.151c-.087.041-.191.087-.291.102-.059.009-.287-.022-.349-.021-.189.006-.38.124-.548.189a1.4 1.4 0 0 1-.307.083c-.063.008-.237-.002-.349-.001s-.49.097-.543.116-.115.043-.156.078-.105.105-.132.159c-.068.135-.068.3-.018.441.099.282.082.559.189.832.059.149.175.28.175.444v.484c-.001.28-.013.569-.118.829l.001.003a1.62 1.62 0 0 1-.481.643l-.295.265z" fill="url(#D)"/><path d="M59.656 27.956l-2.523.329c-.368.097-.97.522-1.203.58s-.388.154-.621.213-.718.251-.62.425.835.174 1.397.251h0c.563.078 2.309-.193 2.523-.348l.815-.6c.213-.117.893-.232 1.223-.387s.718-.503.621-.58-.951.039-1.611.116zm-.142-6.349c.105.019.445.054.601.072.217.024.391.049.591.139.09-.087-.01-.371-.059-.464a1.21 1.21 0 0 0-.275-.294c-.089-.063-.161-.188-.186-.165s-.016.104-.047.15-.111.147-.166.196a1.57 1.57 0 0 1-.337.181c-.196.081-.633.162-.563.186h-.001c.07.023.335-.02.44 0zm10.402-3.559c-.038.056-.082.162-.046.232.042.079.172.055.254.082s.15.061.233.071c.147.018.168-.044.212-.155s.039-.152.027-.263c-.009-.076-.002-.222-.058-.276-.022-.006-.156.001-.234.024h.001c-.077.023-.291.14-.388.284zm1.3-1.052c.048-.093.028-.112-.089-.129a2.25 2.25 0 0 0-.305-.02c-.082.002-.161.036-.206.042-.085.01-.156.006-.233.026-.138.035-.309.022-.442.074l-.445.151c-.121.035-.26.123-.383.135l-.362.129c-.093.062-.334.142-.364.282-.041.192.314.209.415.234a.55.55 0 0 0 .517-.109c.182-.129.265-.235.493-.252.188-.014.335-.064.499-.148s.346-.118.516-.182c.145-.055.31-.079.388-.232zm-7.881 7.834l.398-.016a.44.44 0 0 0 .299-.115c.024-.022.063-.053.079-.08s.009-.037.019-.06.029-.026.034-.046c.01-.041.011-.105.016-.143a.39.39 0 0 0-.018-.16.5.5 0 0 0-.154-.238c-.061-.052-.15-.111-.196-.175 0 0-.105-.099-.175-.111s-.462.034-.686.032c-.194-.002-.403.099-.561.203l-.518.326-.596.374c-.067.026-.105.056-.145.078-.057.031-.092.036-.155.052a1.79 1.79 0 0 0-.319.123l-.139.072-.067.039c-.047.026-.064.025-.112.035-.134.031-.26.101-.387.156-.038.016-.135.039-.153.082-.032.081.107.091.157.108.107.037.265.03.382.016l.366-.06c.061-.008.129 0 .191.001.073 0 .136-.017.207-.016.258.003.519-.078.765-.139.126-.031.249-.074.367-.13.111-.052.216-.144.334-.175.233-.058.518-.027.767-.027l-.001-.004zm-5.928 5.506l-.002-.002c-.059-.009-.115-.044-.173-.058-.085-.021-.167-.026-.253-.039-.033-.005-.066-.021-.097-.02-.039 0-.072.026-.117.022l-.232-.02c-.162 0-.331.003-.485.037-.079.018-.149.021-.233.021-.09 0-.149.017-.233.038-.297.076-.619.04-.931.078-.082.01-.156-.011-.233-.021-.083-.01-.17.012-.253.002-.15-.018-.32-.039-.466-.002l-.193.059c-.084.021-.166.014-.253.024l-.485.039c-.157.019-.323.015-.485.015s-.323.034-.485.039l-.951.058c-.074.003-.151.027-.218.034-.084.009-.167.003-.248.023-.158.041-.323.117-.485.136-.08.01-.157 0-.233.017l-.252.059c-.158.035-.323.037-.485.057s-.33 0-.485.005-.505.112-.777.15-.738.252-.738.252 1.087.388 2.466.414c.74.014 1.564-.306 2.349-.347 1.32-.069 2.532.128 3.053.215 1.409.235 1.994-.352 2.023-.403.033-.056.095-.123.141-.169.094-.094.215-.134.316-.207a1.08 1.08 0 0 0 .272-.295c.027-.046.095-.115.069-.171-.035-.074-.146-.031-.209-.041zm5.135-4.63c.031-.056.076-.107.109-.162.04-.069.054-.139-.016-.19s-.122-.022-.195-.004c-.3.075-.612.278-.921.321-.066.009-.128.002-.191.015-.057.012-.111.034-.163.045-.129.027-.247.033-.379.051-.252.035-.496.188-.749.19-.128.001-.25-.016-.383.001-.067.008-.139-.006-.207.003l-.191.028a1.05 1.05 0 0 0-.35.1c-.06.028-.115.04-.176.058s-.094.074-.162.093-.172.072-.236.098c-.081.033-.165.047-.24.083-.17.078-.338-.059-.51-.003-.16.053-.598.102-.673.141-.081.042-.153.099-.236.147-.213.125-.469.19-.69.297s-.432.195-.681.195c-.132 0-.256 0-.371.044-.103.04-.2.092-.298.146-.207.113-.706.207-.686.239s.258.07.366.063.339.015.494 0c.169-.016.328.001.495 0 .174-.001.364.033.541.032l.478.016c.25 0 .492-.077.714-.162s.457-.14.689-.19c.124-.028.261-.018.383-.045.112-.025.241-.031.355-.044.068-.008.136-.009.204-.004.059.005.102.024.159.032.064.008.144.004.208-.004s.122.006.187 0c.11-.01.226-.048.338-.061.122-.014.248-.028.368-.063l.351-.111.366-.076.415-.08.398-.05.381-.063.001-.002.38-.098c.073-.024.191-.13.254-.188s.103-.13.144-.21.159-.268-.025-.46c-.057-.069-.097-.083-.049-.17zm5.798-5.312h-.002-.155c-.256.032-.29.372-.149.535.069.081.148.15.207.232s.114.159.22.193c.239.077.458-.025.653-.142.175-.104.457-.202.333-.453-.107-.028-.201-.038-.306-.057s-.204-.047-.312-.077c-.152-.042-.306-.273-.489-.231zm-13.78 6.619c.104-.044.144-.15.232-.218s.239-.085.344-.097c.087-.01.356-.09.427-.116.107-.038.248-.097.37-.096.148.001.267.002.392-.073.082-.049.262-.136.302-.24s.202-.24.275-.286c.133-.084.284-.06.427-.096s.226-.09.345-.179c.062-.047.281-.177.34-.223.128-.099.261-.101.421-.101.169 0 .323-.02.485-.04.307-.037.6-.187.893-.274s.6-.177.854-.325c.245-.143.418-.381.636-.546.119-.091.255-.137.393-.193l.404-.154c.244-.095.51-.186.76-.248a.72.72 0 0 0 .153-.06c.034-.019.077-.262-.093-.288-.063-.01-.133.011-.196.002l-.194-.038a1.44 1.44 0 0 1-.345-.14c-.061-.034-.222-.161-.279-.205-.099-.072-.203-.136-.311-.192l-.368-.174c-.132-.054-.234-.111-.349-.175-.055-.03-.097-.049-.146-.087-.059-.045-.111-.098-.175-.136-.117-.07-.284-.097-.412-.129-.151-.037-.305-.075-.466-.078-.299-.006-.618-.094-.912-.057-.155.019-.319.004-.466.038l-.446.092-.834.193c-.064.022-.132.025-.195.042-.069.019-.143.058-.214.078-.133.036-.271.085-.407.132-.146.05-.293.078-.446.097l-.451.058c-.108.015-.209.03-.307.062s-.194.106-.291.151c-.087.041-.192.087-.291.102-.059.009-.287-.022-.349-.02-.19.006-.38.124-.548.189a1.4 1.4 0 0 1-.307.083c-.063.008-.237-.002-.349-.001s-.49.097-.543.115-.115.043-.155.078a.61.61 0 0 0-.132.159c-.068.135-.067.3-.018.441.065.183.082.364.114.543.058-.131.195-.248.365-.297.274-.08.129-.177.323-.338s.832-.356 1.251-.452.43-.239.817-.416.531 0 .999-.129 2.114-.724 2.905-.708a5.57 5.57 0 0 1 1.549.241c.21.064.129.145.307.225l.597.273-.003-.002c.209.08.452.466.456.468 0 .096-.006.207-.052.287-.039.068-.093.132-.138.2-.107.162-.275.275-.444.362-.162.084-.351.143-.468.289l-.129.148c-.046.054-.058.111-.113.158-.05.042-.101.075-.153.104-.064.034-.097.032-.165.048-.136.032-.242.077-.387.077-.137 0-.27-.032-.404-.047-.129-.015-.98.259-1.082.296-.066.024-.349.03-.412.03-.145 0-.395.067-.53.118-.107.04-.589.374-.648.383s-.643.147-.707.147c-.029 0-.582.383-.707.383-.14 0-.633.093-.766.118-.249.047-.778.313-1.031.383-.13.036-1.359.16-1.576.344l-.295.266c-.053.048-.229.154-.156.29s.712.076.854.019c.262-.105.583-.036.83-.198.048-.032.099-.076.156-.097.068-.026.159-.014.237-.014.179 0 .324-.011.467-.131.083-.07.159-.163.271-.179.129-.02.295.035.413-.015zm13.133-10.816c.098-.05.207-.108.277-.194.098-.122.088-.285.027-.324s-.134-.038-.208-.077c-.068-.035-.179-.077-.252-.084-.184-.02-.396-.009-.551-.122-.113-.082-.233-.031-.375-.038-.259-.013-.343-.002-.504-.065-.657-.255-.143-.082-1.178-.218l-.75-.078c-.204.027-.429.056-.602-.058-.18-.119-.486-.082-.699-.135-.387-.097-.557-.046-.97-.097l-.718-.077-.563-.116c.019-.012-.471.051-.49.156-.035.179-.211.328-.364.411s-.311.12-.467.179l-.492.208-1.008.386-.338.104c-.089.022-.18.022-.277.032a2.46 2.46 0 0 0-.548.124c-.342.119-.859.249-1.005.365s-.182.216-.232.336c-.056.134-.079.281-.063.413.009.078-.006.167.011.245l.001.001c.01.05.059.109.078.153.059.129.168.227.259.337.071.085.176.166.258.262.076.09.153.187.246.265.206.174.451.208.685.297.31.117.588.33.898.47.172.077.288.208.435.316s.274.189.446.244c.188.061.36.078.523.187.154.103.305.152.467.227l.46.186c.137.057.315.258.465.259s.259.181.259.181c.044.04.068.15.097.212.034.074.042.193.089.251.105.132.326-.169.409-.263.131-.149.303-.207.461-.309l.413-.286c.29-.187.608-.323.931-.463.363-.156.783-.156 1.171-.2l1.185-.186c.194-.022.414-.086.606-.117.209-.034.39-.059.59-.128l.569-.213c.172-.057.272-.126.407-.265s.216-.277.188-.483c-.012-.088-.032-.152-.084-.225-.07-.097-.119-.098-.221-.141-.07-.029-.133-.074-.211-.097-.096-.028-.192-.043-.28-.083-.159-.072-.29-.177-.445-.253-.135-.066-.245-.335-.097-.458.128-.106.369-.089.531-.115.091-.015.184-.061.29-.046.09.013.123.035.279.046s.272-.066.446-.143.446-.522.233-.464-.543.22-.698.226-.383-.061-.42-.252c-.044-.223.283-.135.422-.205zm-1.288.694c-.279.276-.275.441-.095.781.132.249.219.471.44.653.103.086.203.144.295.239.072.075.064.185.202.21.115.416-1.049.213-1.269.201-.481-.027-.935-.15-1.419-.095-.41.047-.84.01-1.222-.148l-.677-.256c-.196-.07-.473-.265-.646-.205-.082.028-.57-.244-1.151-.3-.64-.063-1.488-.064-1.465.01.011.035.39.365.793.542.25.109.838.178 1.102.271.562.196.888.493.909.542.091.207.546.23.368.445-.102.124-.589.18-.738.284-.178.125-.459.427-.677.442l-.795-.442c-.301-.349-.642-.474-1.037-.654-.403-.184-.668-.368-1.047-.579-.542-.3-1.448-.164-1.838-.658-.464-.587.105-1.317.653-1.556l1.789-.773.825-.346c.196-.104.489-.363.718-.344-.315.278-.438.496-.303.593s.278.13.689.062c.396-.066.446-.093.81-.254.19-.084.401-.264.564-.322.134-.048.343-.037.502-.029.298.013.526.106.802.17.225.052.468.043.7.095l.854.23c.477.083 1.431-.133 1.585.501.072.295-.026.495-.222.69zm.353-6.188c-.448-.024-1.626.095-1.626.095l-3.854.904-.769.053-.002.003c-.168.004-.331.031-.585.095s-.716.021-.977.078-1.319.16-1.319.16l-2.567-.004s-.595.129-.605.214.025.134.131.203.158.081.221.097c.103.025.207.019.31.031.194.023.375.101.545.2.144.083.268.186.419.259.177.085.325.126.511.161l.312.071c.105.03.198.018.311.031.182.021.304.076.49.129s.359.162.542.183c.1.011.206-.084.306-.073l.29.046c.403.06.912.259 1.32.258.211-.001.335.128.543.103s.437.001.647.001l.647.032c.106.012.198.046.311.046a1.05 1.05 0 0 1 .312.052l.595.155.257.052c.113.029.222.009.338.024.19.023.396.045.595.027.175-.016.453.02.543.078s.28-.033.387.023l.802.364c.139.053.267.104.41.134l.419.073c.293.062.581.169.875.262.28.089.57.111.859.176.197.044.389.042.568.128.166.08.331.129.494.206l.491.206c.162.075.327-.074.491-.026.173.05.363.084.538.161.162.072.239.228.375.322.072.05.144.082.221.115.064.028.153.052.213.097.183.141-.061.269-.206.285-.208.023-.335.046-.512.16-.142.091-.28.197-.389.334-.133.169-.11.342-.11.561 0 .106.013.215-.026.309-.032.076-.09.135-.136.2-.1.141-.16.308-.273.446-.137.168-.29.163-.466.237-.165.069-.341.221-.496.311-.096.055-.38.145-.395.271-.124.02-.187.24-.126.322.074.099.313.315.421.348l.388.103c.066.023.137.012.202.037s.117-.012.18.014c.083.035.132-.043.13.059-.001.032-.039.151-.056.175-.061.082-.219.145-.299.193-.123.072-.237.135-.337.229-.054.051-.098.109-.168.145-.04.021-.069.008-.123.006a1.21 1.21 0 0 0-.389.103c-.047.043-.072.138-.103.206-.016.034-.048.072-.072.104-.027.037-.088.083-.103.108-.109.178.227.263.355.279.2.023.403-.081.577.018.072.041.149.099.219.143.082.052.146.068.234.102.359.139.82.028 1.196.123.177.045.366.067.543.128.199.069.36.176.569.233.351.096.673.285.982.471.17.103.368.162.546.224s.347.15.516.213.329.156.484.252v-3.024c-.006-.003-.687-.131-1.053-.293-.36-.159-.408-.24-.777-.36-.562-.182-.82-.239-1.006-.402-.144-.126-.31-.284-.384-.421s-.066-.546.002-.683c.082-.163.191-.583.214-.746.024-.172-.039-.52.09-.64.185-.174.431-.454.734-.431.155.012.438-.052.59-.017.161.036-.193-.358-.362-.387-.309-.052-.681-.245-.957-.413-.3-.182-.573-.373-.912-.483a3.48 3.48 0 0 0-.621-.129c-.111-.016-.181-.006-.286-.052-.095-.042-.186-.109-.277-.161-.144-.081-.339-.203-.496-.227-.212-.033-.418-.026-.623-.071-.356-.078-.639-.311-.982-.393l-.26-.075c-.102-.038-.184-.051-.286-.077-.183-.046-.383-.06-.568-.104-.192-.046-.407-.12-.596-.18-.157-.049-.308-.14-.465-.181-.111-.029-.341-.008-.41-.11.067-.178.285-.238.461-.297.188-.064.413-.217.564-.216s.243-.022.376-.025c.194-.005.365-.072.561-.085l.558-.043c.353-.031.686-.095 1.033-.052.403.05.808-.033 1.215-.033h.633c.23-.002.435.071.656.119.198.043.396.059.594.096.214.041.429.013.645.041.462.06.944.044 1.42.044l.975-.003v-.002-2.895l-8.094-.041zm-6.881 9.964c-.045-.191-.867-.367-1.014-.423-.168-.063-.339-.082-.507-.166-.14-.071-.339-.185-.393-.33-.033-.087-.274-.108-.271-.208.003-.113-.71-.403-.863-.495a2.65 2.65 0 0 0-.549-.148c-.19-.018-.281-.327-.453-.39-.351-.13-.538-.423-.733-.715-.223-.334-.175-.413-.175-.699 0-.042-.867.354-.862.317-.459.132-.785.636-1.142.864-.29.185-.87.537-1.08.756-.125.13-.467.402-.556.54-.153.24-.059.518-.093.772-.056.427.063.638.17 1.003l.309 1.003c.062.123.24.65.295.623.076-.038.148 0 .227-.032.103-.043.175-.03.291-.044.188-.022.39-.086.569-.13.191-.047.54-.065.725-.128.358-.123.79-.086 1.132-.27.184-.099.444-.109.637-.111.216-.001.582-.163.781-.206.344-.075.508-.191.845-.317.081-.031.437-.149.526-.159.196-.022.375-.114.558-.159s.571.002.75-.079c.16-.073.61-.211.764-.27.146-.056.16-.186.111-.397zm-1.605-10.003c-.82-.099-1.706-.034-1.887-.06s-.573-.005-.776-.027l-1.327.027a4.66 4.66 0 0 0-1.015.109c-.355.077-.581.364-.879.542-.224.134-1.381.134-1.395.352-.016.241.646.314.802.354.453.118.698.181.944.546.353.523 1.158.742 1.729.957.469.176 1.012.225 1.509.303l1.621.263c.196.047.375.162.538.288.147.113.5.261.466.471-.062.383-.897.49-1.211.572-.41.107-.834.322-1.227.437-.206.06-.463.129-.673.225-.185.085-.338.233-.515.32-.422.206-.805.488-1.312.457a.73.73 0 0 0-.621.169c-.233.165-.455.103-.721.191-.28.093-.322.313-.239.591.074.245-.392.578-.596.781s-.535.439-.803.707c-.148.148-.265.542-.278.835l-.001.679c.004.203-.269.459-.18.808.131.516-.028 1.341-.112 1.574-.148.476-.42 1.014-.527 1.089-.268.187-.472.524-.624.585-.493.197-1.037.668-1.662 1.048-.265.161-1.37.176-1.926.587l-2.553 1.757c-.793.58-1.872.878-2.932.495v3.197l.303-.018c.09-.019 2.056.12 2.141.089s.175-.091.264-.124l.466-.181c.386-.116.825-.61 1.237-.656.171-.02.337-.103.497-.175.142-.064.355-.796.484-.876l1.635-1.026c.19-.04.341-.061.518-.149.325-.157.624-.298.982-.388l.001-.004c.203-.051.435-.177.628-.245.178-.063.305-.198.485-.259.341-.115.644-.323.985-.462.144-.059.285-.139.417-.233.057-.041.153-.093.197-.14.058-.063.101-.155.16-.227.233-.28.453-.518.538-.877.051-.218-.111-.328-.175-.516-.049-.144.012-.377-.059-.587s-.194-.736-.194-.736l-.038-.451c-.013-.097-.381-1.587-.462-2.146-.055-.379-.203-.733-.172-1.067.028-.313-.032-.609.109-.893.128-.259.438-.508.647-.75.078-.09.441-.318.527-.405.165-.166.345-.326.538-.48s.404-.445.625-.586c.415-.265.873-.367 1.364-.591.324-.108.878-.453 1.039-.518.136-.056.305-.084.555-.185l.134-.058c.192-.089.399-.118.603-.174.179-.05.36-.132.54-.181s.555-.28.757-.307.426-.093.627-.15l.576-.173c.154-.057.353-.125.434-.289.112-.231-.008-.33-.235-.387-.382-.096-.797-.081-1.189-.183-.384-.099-.79-.128-1.19-.231-.196-.05-.404-.076-.596-.154-.16-.065-.282-.17-.432-.265-.171-.11-.336-.134-.525-.179l-.62-.176c-.18-.045-.352-.108-.523-.173l-.221-.089c-.036-.019-.071-.044-.109-.065s-.176-.135-.344-.263c-.105-.08-.16-.16-.17-.229-.008-.059-.02-.095.122-.216.116-.099.191-.125.388-.184.125-.037.33-.062.441-.084.244-.075.503.028.552.022.199-.025 1.665.107 1.955-.036s.518.006.926-.027c.214-.017.94-.161 1.18-.168.696-.02.647-.091.855-.124s1.024-.02 1.627-.204c.404-.123 2.346-.446 2.314-.461-.154-.077-5.414-.115-5.735-.154z" fill="#7cc0e1" class="D"/><path d="M62.568 19.683a.52.52 0 0 0-.161-.064c-.048-.011-.094-.034-.142-.048-.058-.017-.118-.026-.172-.05-.231-.106-.44-.261-.705-.267a1.34 1.34 0 0 1-.355-.06c-.107-.035-.178-.128-.284-.163-.116-.038-.223-.055-.346-.028s-.227-.006-.339-.035a2.2 2.2 0 0 1-.601-.243c-.209-.127-.369-.264-.626-.186-.105.032-.184.109-.286.143-.118.041-.223.046-.351.031-.133-.015-.229-.066-.35-.112-.113-.042-.237-.035-.351-.083l-.208-.079c-.085-.026-.13-.022-.254-.028s-.425-.132-.431-.111c-.005.092.192.141.254.159.124.035.236.052.351.116.094.052.185.111.272.175s.156.159.243.23c.149.121.352.297.554.29.128-.004.266-.034.399-.016l.163.028.204.019c.115.022.179.14.208.238.032.108-.003.236.063.335.075.111.187.097.303.128.125.032.214.068.323.138l.634.37c.231.123.474.163.733.191.119.012.262.01.379-.003a.73.73 0 0 0 .323-.12c.17-.105.404-.317.507-.372s.028-.179.066-.235.133-.128.109-.204c-.053-.01-.081-.053-.125-.081v-.002h.001zm-1.262 2.874l.003.002c-.207-.079-.414-.191-.59-.27s-.096-.159-.303-.222-.749-.223-1.53-.238-2.407.572-2.87.699-.603-.048-.986.127-.392.316-.807.411-1.044.288-1.236.447-.048.114-.319.193-.46.472-.365.679.128.208.208.621-.071 1.021.016 1.033c.127.017.331.016.459.016.135 0 .26-.026.383-.064s.239-.107.367-.142l.749-.175c.131-.025.26-.032.398-.032.123 0 .269.01.378-.036.091-.037.154-.118.244-.154.045-.018.095-.056.142-.065.068-.013.139-.01.208-.019.032-.004.06-.013.096-.012s.066.018.096.018c.063 0 .138-.018.208-.018.061 0 .131.009.191 0s.117-.046.176-.064c.101-.032.181-.116.27-.175s.182-.115.287-.155c.134-.05.255-.052.398-.052.062 0 .13-.008.191 0s.109.023.174 0c.1-.036.196-.104.284-.158.043-.027.086-.06.132-.079.061-.027.12-.028.187-.036l.387-.045c.133-.016.27.018.398.033.133.015.264.047.399.047.143 0 .248-.044.383-.076.067-.016.1-.014.163-.047.051-.028.102-.061.151-.103.055-.047.067-.103.112-.156l.128-.147c.116-.144.303-.203.463-.286.167-.086.334-.198.439-.358l.136-.197c.044-.078.051-.188.051-.283-.004-.001-.244-.383-.45-.462zm6.263-4.379h0c-.094-.113-.24-.14-.379-.178-.082-.023-.297-.119-.369-.204s-.181-.136-.224-.209c-.059-.102-.112-.209-.14-.318a1.24 1.24 0 0 0-.047-.147c-.029-.077-.011-.102.064-.123.122-.035.224-.016.35 0 .133.017.26-.089.319-.191.064-.11.052-.208.004-.321-.043-.101-.099-.219-.115-.33-.018-.124-.019-.262-.049-.38-.057-.223-.062-.248-.302-.368-.218-.11-.401-.092-.641-.132-.121-.02-.224.025-.348.011-.054-.006-.116-.041-.174-.049-.066-.009-.14-.077-.207-.077-.112 0-.251-.059-.331.022-.029.029-.057-.002-.079.034-.016.025-.025.053-.047.077s-.062.038-.071.075c-.044.01-.072-.173-.112-.153-.056.028-.112.034-.172.051-.094.026-.159.125-.21.206s-.096.22-.174.282c-.093.074-.216.112-.316.163-.043.022-.097.043-.142.048l-.192.031-.383.047c-.067.007-.12.033-.191.033s-.138 0-.207 0c-.129-.001-.225.056-.338.076l-.506.068c-.091.011-.168-.018-.255-.017s-.178-.016-.271-.016h-.271c-.093 0-.171.022-.255.032s-.165.007-.255.016c-.084.008-.165.03-.252.05-.039.116.178.171.252.188.118.026.244.012.367.016.138.004.249.074.366.14a1.1 1.1 0 0 0 .367.118c.134.02.201-.021.314-.087.093-.054.192-.123.308-.123.261 0-.095.328-.144.445s-.079.254-.079.254a.3.3 0 0 0 .036.155c.032.051.091.072.139.1s.069.043.095.095c.03.057.019.122.049.175.055.101.233.045.331.067.107.024.178.111.255.175.192.156.427.133.656.187.238.057.484.093.734.13.127.019.258.062.382.076l.399.031c.322-.002.656.041.972.08.063.008.13.004.191.011l.207.019.432.065.366.094c.065.017.126.022.191.031.071.011.132.04.207.032.153-.014.182-.152.132-.274-.054-.13-.147-.208-.232-.31zm-6.001-.787h0c-.084-.05-.158-.103-.256-.126-.05-.012-.106-.013-.163-.012s-.106-.025-.158-.033c-.109-.015-.216-.02-.32-.058s-.184-.096-.287-.132-.23-.009-.334-.032c-.098-.021-.184-.059-.275-.108-.112-.059-.258-.029-.331-.019s-.243.061-.223.079.108.03.156.052l.151.072c.089.04.153.116.239.159.093.047.227.056.33.068.066.008.1.009.16.031s.115.036.172.067l.275.159c.123.058.243.048.379.063l.37.028c.08.006.287.047.287-.08.001-.077-.11-.143-.17-.179z" class="I"/><path d="M54.41 17.868c-.083-.046-.209-.096-.307-.107-.064-.007-.251.322-.283.37-.02.031-.075.081-.113.094-.172.093.069.157.189.172s.209.08.334.08.224-.034.331-.099c.114-.069.087-.157.023-.253s-.071-.198-.174-.256z" fill="url(#E)"/><path d="M63.137 15.034h0c-.056-.034-.14-.022-.188-.036s-.096-.064-.096-.064c-.043-.007-.13.021-.172.035a.6.6 0 0 0-.152.072c-.075.055-.222.137-.2.24.197.098.431-.01.623-.041.053-.009.262-.022.269-.099.002-.024-.062-.094-.084-.108zm-5.551-3.418h.002c-.064-.114-.299-.132-.371-.154-.199-.06-.242-.152-.453-.15-.195.002-.364-.094-.543-.155a1.14 1.14 0 0 0-.543-.049l-.622.05c-.195.018-.426.007-.622.05-.341.075-.669.353-1.06.253-.016-.011-.033-.018-.052-.02 0 0-.078-.04-.156-.026s-.191.095-.184.181c.007.092.194.146.261.155.199.028.302.047.501.046.205-.001.29.049.478 0 .085-.022.33-.059.415-.081.108-.028.358.002.465.025.205.044.382.045.591.063l.628.056c.196.027.345.119.545.077.173-.036.804-.018.951-.124.042-.032-.204-.145-.232-.197zm6.144 3.621s-.103-.011-.191.032-.366.088-.316.251c.078.037.174.006.252-.014.09-.023.19-.005.272-.046.061-.031.164-.073.192-.144.038-.097-.135-.079-.208-.079z" class="I"/><path d="M74.85 8.491l-2.264.2c-.864.124-1.528.726-1.744.737-.226.011-.436.008-.658-.056a2.9 2.9 0 0 0-.622-.106c-.199-.014-.406-.008-.607-.002-.168.005-.328.038-.505.068-.211.035-1.033.446-1.244.447-.116.001-.229.031-.343.032-.101.001-.191.035-.29.039l-1.079.085c-.385.009-.782.014-1.159-.004-.366-.017-.709.485-1.063.473-.399-.013-.791.623-1.194.676-.365.048-.68.162-1.025.232-.375.077-.711.583-1.075.675-.38.096-.348.153-.739.106-.11-.013-.516-.02-.627-.034-.104-.012-.636-.321-.853-.321s-.398-.102-.619-.102c-.215 0-.461.083-.677.085-.11.001-.369.053-.483.054s-.296.124-.402.133c-.22.02-.485-.006-.647.052s-.373.29-.362.335.156.084.212.098l.305.059c.212.025.377.055.569.153.068.035.115.093.181.13s.159.073.232.11c.168.084.325.122.495.172.077.022.158.065.237.073.108.011.222-.008.332.005a2.39 2.39 0 0 1 .541.129c.172.064.328.186.492.233.184.052.39-.025.596-.026.178-.001.375.06.544.102a4.42 4.42 0 0 0 .574.098c.206.024.39-.074.589-.098.101-.012.192 0 .285-.024.114-.029.208-.028.316-.007.422.08.808.233 1.211.366.191.063.365.112.569.129.212.018.398-.018.621-.026h1.319c.113.003.225.11.337.123.101.012.206-.064.305-.04.085.021.556.128.549-.082l7.731.675 1.138.255V8.491h.001z" fill="url(#F)"/><path d="M50.22 18.816c.158-.077.216-.222.478-.355.107-.054.412-.089.515-.143.41-.217.496-.45.379-.495l-.367-.123c-.255-.063-.108-.064-.375-.064-.137 0-.263-.016-.398-.016-.07 0-.122-.016-.191-.016-.062 0-.129.006-.19-.003.04-.078.205-.111.285-.144.119-.05.222-.047.351-.062l.352-.059c.073-.02.263-.1.271-.191.005-.047-.039-.128-.049-.174-.013-.059-.013-.115-.035-.172-.036-.091-.093-.198-.171-.259-.083-.065-.201-.11-.304-.131-.092-.018-.245-.038-.299-.127s.068-.171.139-.222c.047-.034.096-.066.149-.088.046-.019.085-.05.139-.052s.62-.005.702-.044c.114-.053.214-.08.334-.115.111-.032.26-.047.382-.032.128.015.26.016.383.049.24.063.536-.003.781-.001.126.001.257-.016.383-.031.105-.012.273-.057.362.035s-.009.208-.059.283c-.04.059-.173.172-.141.251.113.056.216.022.332-.001l.366-.06c.178-.021.452-.113.495-.317.015-.073.017-.105.095-.139.072-.032.128-.036.207-.036l.382.016c.129.001.266-.02.383-.068.106-.044.19-.115.29-.166.08-.041.236-.062.113-.183-.066-.066-.189-.096-.275-.107-.112-.015-.237 0-.351 0-.1 0-.313-.007-.329-.016s.033-.026.077-.045.325-.035.508-.019l.287.032c.087.01.183.01.271.033a2.03 2.03 0 0 0 .526.063c.1 0 .176-.025.271-.06.048-.018.095-.027.14-.055.039-.025.076-.027.113-.047s.085-.072.13-.108c.015-.012.064-.041.076-.051.019-.016.038-.039.055-.057.074-.078.036-.207-.02-.29-.026-.038-.061-.067-.079-.11-.03-.073-.034-.105-.092-.164-.082-.082-.178-.156-.291-.187a2.2 2.2 0 0 0-.334-.064c-.066-.008-.109-.002-.175 0s-.138-.022-.195-.028l-.378-.035c-.058-.006-.111-.022-.163-.004s-.104.056-.155.084c-.116.062-.301.091-.428.029-.016-.066.016-.099.076-.121.053-.02.118-.036.176-.035.081.001.301-.04.271-.159-.024-.101-.171-.164-.255-.202-.101-.046-.21-.1-.32-.115-.129-.017-.239 0-.354-.044-.106-.04-.214-.099-.315-.159-.218-.129-.442-.196-.685-.246l-.383-.061c-.122-.019-.192-.07-.291-.138-.04-.027-.084-.06-.128-.08-.06-.026-.107-.024-.172-.039l-.351-.092-.398-.079-.383-.064c-.129-.02-.255-.016-.383-.031-.135-.016-.258-.068-.398-.065-.123.003-.252.053-.367.079-.127.028-.266.016-.398.016-.224.001-.415-.162-.621-.239-.234-.088-.509-.08-.754-.107-.129-.014-.265 0-.395-.004-.067-.002-.126-.024-.191-.032s-.14 0-.207.001c-.118 0-.492-.072-.558-.08s-.138-.006-.195-.012c-.257-.029-.521.01-.762.043-.078.011-.157.014-.236.012l.28-.497.101.008a1.71 1.71 0 0 0 .399.018c.096-.011.216-.269.302-.302.057-.022.116-.019.175-.032.244-.055.503-.047.765-.047.134 0 .282.018.414 0 .123-.017.251-.033.383-.031.067 0 .124-.017.191-.016s.115-.026.175-.033c.131-.016.261.002.384-.03.258-.066.541-.047.813-.048.067 0 .124.016.191.016s.141-.009.207 0l.383.064c.259.03.518-.027.781.005s.531-.097.797-.097c.139 0 .251-.032.383-.049l.383-.03c.327-.038.64.003.957-.066.137-.029.285.024.43.013.063-.005.421-.023.381-.125h-.001c-.044.001-.119-.033-.158-.049-.064-.026-.138-.196-.208-.211-.058-.012-.098-.067-.159-.074l-.207-.016-.399-.031c-.151.001-.298-.047-.446-.067-.125-.017-.253-.045-.383-.044l-.383.016c-.12.001-.238.037-.35.013-.124-.026-.242.056-.367.012s-.268-.072-.399-.091l-.191-.032c-.068-.016-.136-.007-.207-.015s-.139-.04-.207-.049c-.077-.009-.149.001-.224-.015-.146-.033-.312-.016-.463-.016-.141 0-.279-.005-.414-.035-.148-.032-.3-.03-.446-.08l-.467-.151c-.078-.025-.164-.025-.239-.051s-.151-.05-.234-.068c-.281-.058-.571-.045-.862-.044-.168 0-2.057-.389-2.224-.408l-2.136-.214c-.822.101-2.103-.801-2.715-1.105-.471-.234-1.235-.25-1.803-.358v18.045s.596-.064.938-.276c.187-.115.891-.053 1.371-.395.384-.273.824-.874 1.37-1.054s1.483-.595 2.227-.604l1.681.007c.246.042.446.164 1.012-.221.406-.277.209-.173.533-.343.315-.165.402-.398.479-.544s.275-.426.272-.758c-.003-.305.226-.615.168-.879-.076-.348.2-.602.271-.891.071-.301-.465-.678.013-.909z" fill="url(#G)"/><g fill="url(#H)"><path d="M58.855 20.817l-.002-.005a1.47 1.47 0 0 0-.318-.207c-.056-.023-.121-.017-.164-.028s-.082-.029-.123-.051c-.092-.048-.166-.115-.226-.191-.068-.086-.107-.201-.176-.299-.062-.087-.142-.171-.222-.237-.092-.075-.194-.159-.303-.207s-.222-.061-.328-.102l-.322-.128c-.107-.044-.211-.068-.318-.107-.117-.042-.211-.133-.316-.211l-.258-.182c-.097-.057-.211-.111-.319-.132-.12-.023-.278-.064-.398-.035s-.215.117-.318.178-.265.105-.383.128-.242-.052-.334-.109c-.111-.07-.24-.111-.352-.182s-.365.059-.467-.019c-.111-.085-.365.059-.535.299-.177.25-.149.414-.282.689-.086.178-.335.441-.401.602-.143.348-.065.583-.108 1.003-.005.05.042.533.079.567.291.267.331.481.7.435.295-.036.661-.042.943-.147l.563.055c.248-.03.473.071.69-.032.049-.023.106-.036.159-.047.061-.013.114-.04.175-.048s.128.008.191 0l.176-.031c.225-.025.47-.122.672-.219a3.18 3.18 0 0 1 .302-.127l.14-.056c.057-.025.131-.017.192-.044l.282-.131c.112-.051.232-.075.351-.096.242-.041.503-.128.753-.187a1.9 1.9 0 0 0 .346-.131l.176-.078c.071-.036.139-.09.084-.152z"/><path d="M74.849 13.639v.002l-.975.003c-.476 0-.958.016-1.42-.044-.216-.028-.431 0-.645-.041l-.594-.097c-.221-.048-.426-.121-.656-.119h-.634c-.407 0-.811.083-1.215.033-.346-.043-.68.021-1.032.052l-.558.043c-.195.013-.367.081-.561.085-.133.003-.225.027-.376.025s-.376.152-.564.216c-.176.059-.395.12-.462.297.069.102.299.081.41.11.156.041.308.132.465.181l.596.18c.185.044.385.058.568.104.101.026.184.039.286.078a2.32 2.32 0 0 0 .26.075c.343.083.625.315.982.393.204.044.41.038.622.071.158.024.353.145.496.227.091.052.452.057.563.072a3.52 3.52 0 0 1 .621.129c.339.11.705 0 1.005.182.277.167.601.011.913.035.252.019.487-.036.937-.068l.967-.071v-.562-1.593h.001z"/></g></g><path d="M55.693 3.085c.041-.102.755-.426.939-.325s.408-.02.572-.081.245-.061.469-.041.47.021.592-.02.98-.142 1.204-.203.53-.061.714-.061.551-.081.714-.081a6.26 6.26 0 0 1 .633.041c.143.02.346-.061.53.081s.694.203.878.203.551.324.755.324.755.062.979.02.307-.061.388-.04.163.06.122.162-.225.122-.429.142-1 .183-1.265.102-.98-.041-1.123-.041-.367.061-.571.061-.96.162-1.143.06-.694-.162-.837-.102-.592 0-.919.041-.796-.081-.898-.061-.245.061-.347.061a8.06 8.06 0 0 1-.857-.081c-.205-.04-.49-.081-.633-.081s-.51.02-.469-.081h0z" class="B D E F G H"/><path d="M56.815 3.015c.032-.068.588-.283.731-.216s.317-.014.444-.054a.79.79 0 0 1 .365-.027c.175.014.365.014.461-.013s.762-.095.937-.135a2.75 2.75 0 0 1 .556-.041c.143 0 .428-.054.556-.054s.381.014.492.027.27-.041.413.053.54.135.682.135.429.216.588.216.588.202.762.176.238-.122.302-.108.127.04.095.108-.246.081-.404.094a4.53 4.53 0 0 1-.914-.095c-.206-.053-.762.054-.873.054s-.286.04-.445.04-.746.108-.889.041-.54-.108-.651-.067-.46 0-.714.027-.62-.054-.699-.041-.19.041-.27.041a7.22 7.22 0 0 1-.667-.054 3.73 3.73 0 0 0-.492-.054c-.111 0-.397.013-.365-.054z" fill="url(#J)" class="B C"/><path d="M63.516 4.654c.035-.086.642-.362.799-.276s.347-.017.486-.069.209-.052.399-.035.399.018.503-.017.833-.121 1.024-.173.451-.052.607-.052.469-.069.608-.069a5.34 5.34 0 0 1 .538.035c.122.017.295-.052.452.069s.59.172.746.172.468.276.642.276.642.052.833.017.261-.052.33-.034.139.051.104.138-.191.103-.365.121-.85.155-1.076.086-.833-.035-.955-.035-.313.052-.486.052-.816.138-.972.052-.59-.138-.711-.086-.504 0-.781.034-.677-.069-.764-.052-.208.052-.295.052-.556-.034-.729-.069-.416-.069-.538-.069-.433.018-.398-.068h-.001v-.001z" class="B D E F G H"/><g class="C"><path d="M64.471 4.596c.027-.058.499-.241.621-.184s.27-.011.378-.046a.67.67 0 0 1 .311-.023c.148.011.311.012.391-.011s.648-.08.797-.115.351-.035.472-.035.365-.045.472-.045.324.011.418.023.23-.034.351.046.459.115.581.115.365.183.5.183.5.172.648.149.203-.103.256-.092.109.034.081.092-.209.069-.344.081-.601-.035-.776-.081-.649.046-.743.046-.243.034-.378.034-.635.092-.756.034-.459-.092-.554-.057-.392 0-.608.023-.527-.045-.594-.034-.162.034-.23.034-.432-.023-.567-.045a3.22 3.22 0 0 0-.419-.046c-.093 0-.336.012-.309-.045h0z" fill="url(#K)" class="B"/><path d="M39.885 63.661v-8.075c3.317.151 6.927-.149 10.265-.342 6.503-.376 6.758-4.279 9.892-4.671 4.569-.571 4.124-1.981 7.008-2.361 1.415-.186 2.794-.531 3.765-.48 1.861.098 2.763 1.327 4.033 1.335v14.593H39.885h0z" fill="url(#L)" class="B"/><path d="M0 0h34.965v11.96H0z" fill="url(#A)" class="B"/><path d="M34.965 56.094V16.512v-5.654H7.742l-3.098 5.491L0 17.985v38.109z" fill="url(#B)" class="B"/><path d="M34.965 43.005V63.66H0V43.005s.399.38 1.345.4 1.345-.4 1.345-.4.399.347 1.345.4 1.345-.4 1.345-.4.432.347 1.345.4 1.345-.4 1.345-.4.399.347 1.345.4 1.345-.4 1.345-.4a3.48 3.48 0 0 0 1.345.4c.746.053 1.345-.4 1.345-.4s.467.413 1.345.4 1.345-.4 1.345-.4a2.94 2.94 0 0 0 1.345.4c.745.02 1.345-.4 1.345-.4s.434.413 1.345.4 1.345-.4 1.345-.4.468.38 1.345.4 1.345-.4 1.345-.4.534.413 1.345.4 1.345-.4 1.345-.4.435.347 1.345.4 1.345-.4 1.345-.4.535.38 1.345.4 1.345-.4 1.345-.4.535.413 1.345.4 1.346-.4 1.346-.4z" fill="url(#C)" class="B"/><path d="M14.614 28.385c.028-.008.054-.034.083-.044.056-.02.106-.027.159-.048s.117-.023.176-.043.115-.031.176-.048l.334-.095c.05-.017.159-.032.116-.104-.019-.031-.098-.054-.132-.059-.068-.011-.144.001-.208.017-.055.014-.117.016-.175.031-.066.016-.124.041-.191.049s-.128 0-.192.014c-.125.028-.254.008-.382 0l-.399-.015-.382.015c-.115.01-.227.055-.335.097s-.229.067-.339.122c-.1.05-.184.11-.283.167s-.205.112-.318.151-.225.035-.352.051a2.84 2.84 0 0 0-.334.064c-.122.029-.343.167-.301.172s.365.043.459.005.122-.013.176-.018l.191-.016a1.52 1.52 0 0 0 .335-.047l.319-.08c.103-.026.215-.024.319-.05.063-.016.125-.006.191-.012s.113-.039.175-.049.103-.014.159-.03.118-.025.176-.033c.07-.01.123-.013.192-.032l.162-.047h-.002l.321-.076c.035-.008.072.002.105-.008zm4.108 1.021l.815-.6c.214-.116.893-.232 1.223-.387s.718-.502.621-.58-.951.039-1.611.116l-2.523.329c-.369.097-.97.522-1.203.58s-.388.154-.621.213-.718.251-.621.425.835.174 1.397.251h0c.563.078 2.309-.193 2.523-.348zm.906-7.799c.105.019.445.054.601.072.217.024.391.049.591.139.089-.087-.01-.371-.059-.464-.041-.076-.185-.231-.275-.293s-.161-.188-.186-.165-.016.104-.047.15-.111.146-.166.196c-.07.062-.247.143-.337.181-.195.081-.633.162-.562.186h-.001c.07.023.335-.02.44 0zm-7.732 5.465l-.295.266c-.053.048-.229.154-.156.29s.712.076.854.019c.262-.105.584-.036.83-.198.049-.032.099-.076.156-.097.068-.026.16-.014.237-.014.179 0 .324-.011.467-.131.083-.07.159-.163.27-.179.129-.019.295.037.414-.014.104-.044.144-.15.232-.218s.239-.085.345-.097c.087-.01.356-.09.427-.116.107-.038.248-.097.37-.096.149.001.268.002.393-.073.081-.049.262-.136.302-.24s.202-.24.275-.286c.133-.084.284-.06.427-.096a.87.87 0 0 0 .345-.179c.063-.047.282-.177.34-.223.128-.099.261-.101.422-.101.168 0 .323-.02.485-.04.307-.037.599-.186.893-.274s.6-.177.854-.325c.245-.142.418-.381.636-.546.119-.09.255-.137.393-.193l.403-.154a6.38 6.38 0 0 1 .761-.248c.053-.014.104-.034.153-.06.034-.019.077-.262-.093-.288-.063-.01-.133.011-.197.002-.057-.008-.133-.026-.194-.039-.104-.02-.254-.09-.345-.14-.061-.034-.221-.161-.279-.205a2.39 2.39 0 0 0-.311-.192l-.368-.174c-.132-.054-.233-.111-.349-.175-.054-.03-.096-.049-.146-.086-.059-.045-.11-.098-.175-.136-.117-.069-.284-.097-.412-.129-.151-.037-.305-.075-.466-.078-.299-.006-.618-.094-.912-.057-.155.019-.319.004-.466.038l-.446.092-.834.193c-.064.022-.131.025-.195.042-.069.019-.143.058-.214.078-.133.036-.271.085-.407.132-.146.05-.293.078-.446.097l-.451.058a1.69 1.69 0 0 0-.307.062c-.101.034-.194.106-.291.151-.087.041-.192.087-.291.102-.059.009-.287-.022-.349-.021-.19.006-.38.124-.548.189a1.41 1.41 0 0 1-.307.083c-.063.008-.237-.002-.349-.001s-.49.097-.543.116-.115.043-.156.078-.105.105-.132.159c-.068.135-.067.3-.018.441.1.282.082.559.189.832.059.149.175.28.175.444v.484c-.001.28-.013.569-.118.829l.002.003a1.62 1.62 0 0 1-.48.641zm17.772-4.305h-.337c-.218 0-.42.004-.622-.045-.152-.037-.373-.094-.511-.194-.085-.062-.137-.191-.233-.231s-.143-.105-.211-.125c-.08-.025-.178-.029-.261-.05l-.233-.053c-.1-.029-.107-.06-.154-.155-.031-.062-.048-.148-.084-.205-.041-.066-.116-.081-.183-.121-.125-.075-.212-.189-.277-.316-.158-.312-.485-.267-.749-.154-.13.056-.234.127-.312.257-.034.057-.077.113-.103.175s-.089.139-.108.207c-.15.044-.195.134-.363.088-.099-.027-.325-.106-.356-.161s-.191-.102-.156-.026.078.149.136.202c.052.048.156.113.227.153.142.08.338.17.49.188.21.024.38.041.57.103.178.058.286.173.441.277.061.04.122.1.186.13.109.051.205.007.304.004.173-.006.332.109.467.208s.319.213.49.233c.102.012.191-.003.285.024.103.031.189.081.286.124v-.001c.167.073.336.121.492.213l.446.277c.152.082.335.184.413-.039l.175-.496c.031-.095.231-.401.157-.471-.054-.051-.242-.018-.312-.018zM13.25 29.213c-.122 0-.229-.002-.334.034l-.267.101c-.21.078-.433.049-.641.135-.104.043-.194.074-.287.14-.059.042-.239.146-.179.169s.316.068.388.058l.155-.018c.047-.006.093-.032.135-.041.102-.022.209-.013.311-.039a1.11 1.11 0 0 1 .271-.038c.11.001.205-.026.311-.039.203-.025.361-.054.509-.208l.155-.154c.048-.053.188-.1.157-.179-.078.062-.287-.007-.377.02v-.002c-.105.03-.19.059-.309.059zm12.013-6.284c.131.073.253.145.393.18l.519.122.44.109c.146.037.296.05.434.103.123.047.241.114.367.15l.202.057c.058.015.169.066.235.042.057-.143-.229-.201-.306-.228l-.467-.182c-.263-.076-.522-.146-.775-.263l-.362-.176c-.133-.05-.28-.072-.414-.128-.121-.051-.269-.09-.384-.159-.104-.063-.206-.196-.341-.175 0 0-.164-.036-.155.026s.151.222.241.303h-.002c.122.11.235.141.375.22zm4.767-4.881c-.038.056-.082.162-.046.232.042.079.172.055.253.082s.15.061.233.071c.147.018.168-.044.212-.155s.039-.152.027-.263c-.008-.076-.002-.222-.058-.276-.022-.006-.157.001-.234.024h.001c-.077.023-.291.14-.388.284zm-2.224-1.85c.098-.05.207-.108.276-.194.099-.121.088-.285.028-.324s-.134-.038-.208-.077c-.068-.035-.179-.077-.252-.084-.184-.02-.396-.009-.551-.122-.113-.082-.233-.031-.375-.038-.259-.013-.343-.002-.504-.065-.657-.255-.143-.082-1.178-.218l-.75-.078c-.204.027-.429.056-.602-.058-.18-.119-.486-.082-.698-.135-.387-.097-.557-.046-.971-.097l-.718-.077-.563-.116c.019-.012-.47.051-.49.156-.035.179-.211.328-.364.411s-.311.119-.467.179l-.492.208-1.008.386-.338.104c-.089.022-.18.022-.277.032a2.46 2.46 0 0 0-.548.124c-.343.119-.859.249-1.005.365s-.182.216-.232.336c-.056.134-.079.281-.063.413.009.078-.006.167.011.245v.001c.01.05.059.109.079.153.058.129.168.227.259.337.071.085.176.166.258.262.076.09.153.187.246.265.206.174.45.209.685.297.309.117.588.33.898.47.172.077.288.208.435.316s.274.188.446.244c.187.061.359.078.523.187.154.103.305.152.466.227l.46.186c.137.057.315.258.465.259s.259.18.259.18c.043.041.068.15.097.213.035.074.042.193.089.251.105.132.326-.169.408-.263.131-.149.303-.207.461-.309l.413-.286c.29-.187.608-.323.931-.463.363-.156.783-.156 1.171-.2l1.185-.186c.195-.022.414-.086.606-.117.208-.034.39-.059.59-.128l.569-.213c.172-.057.272-.126.408-.265s.216-.277.188-.483c-.012-.088-.032-.152-.084-.225-.07-.097-.119-.098-.222-.141-.07-.029-.133-.074-.211-.097-.096-.028-.193-.043-.28-.083-.158-.072-.29-.177-.445-.253-.135-.066-.245-.335-.097-.458.128-.105.369-.089.531-.115.091-.015.184-.061.29-.046.09.013.123.035.278.046s.272-.066.446-.143.446-.523.233-.464-.543.22-.698.226-.383-.061-.42-.252c-.043-.223.284-.135.422-.205zm1.415 8.973c-.214-.077-1.048-.425-.99-.251s.175.328.291.463v.001c.116.135.796.425.932.503s.213.232.33.329.33.039.408.077-.095-.249-.132-.316-.054-.2-.112-.297-.514-.432-.727-.509zM8.527 28.386v-.004c.203-.051.435-.177.628-.245.177-.063.305-.198.485-.259.341-.116.644-.323.985-.462.144-.059.285-.139.417-.233.057-.041.153-.093.197-.14.058-.063.1-.155.16-.227.233-.28.453-.518.538-.877.051-.218-.112-.328-.175-.516-.049-.144.012-.377-.059-.587s-.194-.736-.194-.736l-.038-.451c-.013-.097-.065-.154-.026-.264.056-.197.475-.337.627-.412.075-.037.148 0 .227-.032.104-.043.175-.03.291-.044.188-.022.39-.086.569-.13.191-.047.54-.065.725-.128.358-.123.79-.086 1.132-.27.184-.099.444-.11.638-.111.216-.001.582-.163.781-.206.344-.075.508-.191.845-.318a4.48 4.48 0 0 1 .526-.159c.196-.022.375-.114.557-.159s.571.002.75-.079c.16-.073.61-.211.765-.27.146-.056.161-.186.111-.397-.045-.191-.867-.367-1.014-.423-.168-.063-.339-.082-.506-.166-.14-.071-.339-.185-.393-.33-.033-.088-.273-.108-.271-.208.003-.113-.71-.402-.862-.494a2.65 2.65 0 0 0-.549-.148c-.19-.018-.281-.327-.453-.39-.351-.13-.538-.423-.733-.715-.223-.334-.175-.413-.175-.699s.124-.43.367-.651.651-.321.977-.472c.192-.089.399-.118.603-.174.18-.05.361-.132.541-.181s.555-.28.757-.307.426-.093.627-.15l.576-.173c.153-.057.354-.124.434-.289.112-.231-.007-.33-.235-.387-.382-.096-.797-.081-1.189-.183-.384-.099-.79-.128-1.19-.23-.196-.05-.404-.076-.596-.154-.161-.065-.282-.17-.432-.265-.171-.11-.336-.134-.525-.179l-.621-.176c-.18-.045-.352-.108-.523-.173l-.221-.089c-.036-.019-.07-.044-.109-.065s-.176-.135-.344-.263c-.105-.079-.16-.16-.169-.229-.008-.059-.02-.095.122-.216.116-.099.191-.125.388-.184.125-.037.329-.062.441-.084.245-.075.503.028.552.022.199-.024 1.665.107 1.955-.035s.518.006.926-.027c.214-.017.94-.162 1.179-.168.696-.021.647-.091.855-.124s1.023-.02 1.628-.204c.404-.123 2.345-.446 2.314-.461-.154-.075-5.414-.114-5.735-.153-.819-.099-1.706-.034-1.887-.06s-.574-.005-.776-.027c-.086-.01-3.663.042-7.908.11L0 14.749v17.14l.303-.018c.09-.019 2.056.12 2.141.089s.176-.091.264-.124l.466-.181c.386-.116.825-.61 1.237-.656.172-.02.337-.103.497-.175.143-.064.356-.796.484-.876l1.635-1.026c.19-.04.341-.061.517-.149.325-.157.624-.298.982-.388zm21.581-4.923c-.053.082-.066.131-.052.206a.21.21 0 0 0 .148.188c.085.035.18.05.265.071.13.032.373.165.519.104h.001c.063-.027.084-.125.134-.175s.126-.078.168-.142c.039-.059.082-.13.112-.198.027-.064.135-.235.149-.238.043-.105-.308-.237-.389-.274-.15-.068-.336-.172-.492-.206-.088-.02-.242-.023-.331 0-.132.035-.092.098-.078.201a.55.55 0 0 1-.031.283c-.021.05-.071.099-.123.181zm1.222-6.467c.048-.093.028-.112-.089-.129a2.25 2.25 0 0 0-.305-.02c-.081.002-.161.036-.205.042-.085.01-.156.006-.233.026-.138.035-.309.022-.442.074l-.445.151c-.12.035-.259.123-.382.134l-.362.129c-.093.062-.334.142-.364.282-.041.192.314.209.414.234a.55.55 0 0 0 .517-.109c.183-.129.265-.235.493-.252a1.24 1.24 0 0 0 .499-.148c.166-.085.346-.118.516-.182.145-.055.309-.079.388-.232zm-9.38 9.837v-.001l.381-.098c.074-.024.191-.13.254-.188s.103-.131.144-.21.159-.268-.026-.461c-.056-.067-.096-.082-.048-.169.031-.056.076-.107.109-.162.04-.069.054-.139-.016-.19s-.122-.022-.195-.003c-.3.075-.612.072-.921.115-.066.009-.128.002-.191.014-.057.012-.11.034-.163.045-.129.027-.247.033-.379.051-.252.035-.496-.017-.749-.016-.128.001-.25-.016-.383.001-.068.008-.139-.006-.207.003l-.191.028c-.12.01-.239.048-.35.1-.06.028-.115.04-.176.058s-.094.074-.162.093-.172.072-.235.098c-.081.033-.165.047-.24.083-.17.078-.338.146-.51.203-.16.053-.303.146-.446.223l-.227.123c-.081.042-.153.099-.236.147-.213.125-.469.19-.69.297s-.432.195-.681.195c-.132 0-.256 0-.37.044-.103.04-.2.092-.298.146-.207.113-.706.207-.686.239s.258.07.366.063.339.015.494 0c.169-.016.328.001.494 0 .175-.001.364.033.542.032l.478.016c.25 0 .493-.077.714-.162s.457-.14.689-.19c.124-.028.262-.018.383-.045.112-.025.241-.031.354-.044.068-.008.136-.009.204-.004.059.005.102.024.159.032.064.009.144.004.207-.003s.122.006.187 0c.11-.01.226-.048.338-.061.121-.014.248-.028.368-.063l.351-.111.366-.076.415-.08.398-.05c.124-.028.261-.034.382-.064zm10.753-3.3c-.097-.059-.213-.08-.318-.116-.098-.034-.223-.05-.322-.085s-.236-.156-.247-.128.026.096.033.154c.008.065-.013.13-.007.206v.001c.013.168.109.129.259.129.125 0 .22.012.33.058s.198.109.311.128c.069.012.053.018.116-.025.023-.015.1-.082.1-.109-.002-.051-.211-.187-.254-.213zm.049.862c-.031.045-.053.105-.026.172.067.019.132.074.2.084v-.001c.087.012.157-.018.234-.028.085-.01.175.011.259.001s.18-.041.228-.083.27-.205.26-.325c-.08-.026-.316-.161-.514-.082-.105.051-.14-.056-.207 0s-.15.069-.232.104a.61.61 0 0 0-.203.159zm.518.505h0c-.186-.047-.402-.001-.582-.065-.148-.053-.256-.222-.311-.361-.047-.117-.045-.196-.2-.214-.109-.012-.208 0-.309-.026s-.169-.031-.254-.103-.108-.152-.207-.051c-.07.071-.066.158-.162.206-.067.033-.169.056-.31-.001s-.155.078-.155.078c.03.18.289.237.414.289.151.062.267.225.369.349s.247.232.38.348.332.142.486.207a.89.89 0 0 0 .577.045c.168-.043.398-.094.486-.283.092-.196-.032-.37-.222-.419zm-6.399-14.196c-.448-.024-1.626.095-1.626.095l-3.854.904-.769.053-.002.003a2.56 2.56 0 0 0-.585.095c-.255.064-.716.021-.977.078s-1.319.16-1.319.16l-2.567-.004s-.595.129-.605.214.025.134.131.203.158.081.222.097c.103.025.206.019.31.031.194.023.374.101.545.2.144.083.268.186.419.259.176.085.325.126.511.161l.312.071c.106.03.198.018.311.031.182.021.304.076.49.129s.359.162.542.183c.1.011.206-.084.306-.073l.29.046c.403.061.912.259 1.32.258.211-.001.335.128.543.103s.437.001.647.001l.647.032c.106.012.198.046.311.046s.201.022.312.052l.595.155.257.052c.113.029.222.009.338.024.19.023.396.045.595.027.175-.016.453.02.543.078s.28-.033.388.023l.801.364c.139.053.267.104.41.135l.419.073c.293.062.581.169.875.262.28.089.57.111.86.176.197.044.389.042.568.128.166.08.331.129.493.206l.491.206c.162.075.327-.074.492-.026.173.05.363.084.538.161.162.072.238.228.374.322.072.05.144.082.221.116.064.028.153.052.213.097.182.141-.061.269-.206.285a1.01 1.01 0 0 0-.512.16c-.142.091-.28.197-.389.334-.134.169-.11.342-.11.561 0 .106.013.215-.026.309-.032.076-.09.135-.136.2-.1.141-.161.308-.273.446-.137.168-.291.163-.466.237-.166.069-.341.221-.496.311-.096.055-.308.18-.395.271-.107.115-.187.24-.126.322.073.099.313.315.421.348l.388.103a.66.66 0 0 0 .202.037c.065.002.117-.012.181.014.083.035.132-.043.13.059a.61.61 0 0 1-.056.175c-.061.082-.219.145-.299.193-.123.072-.238.135-.337.229-.054.051-.098.109-.168.145-.041.021-.07.008-.123.006s-.342.061-.388.103-.072.138-.104.206c-.016.034-.048.072-.071.104-.027.037-.088.083-.104.108-.109.178.227.263.355.279.2.023.403-.081.577.018.072.041.149.099.22.143.082.052.146.068.233.102.359.139.82.028 1.196.123.176.045.366.066.543.128.199.069.36.176.569.233.351.096.673.285.982.471.17.103.368.162.546.224s.347.15.516.213.329.156.484.252V10.746l-8.094-.042zm7.584 13.97c-.119-.042-.452-.228-.492-.206s-.078.082-.097.135c-.028.075.006.178.02.252.016.087.01.113.084.174.05.042.099.101.17.079.04-.08.055-.159.06-.249.054-.004.138.093.158.144.038.098-.028.152-.058.24-.066.19-.105.329-.266.483-.058.056-.11.124-.174.168-.075.052-.166.086-.233.147-.144.129-.201.271-.07.433.107.132.156.282.258.412.128.164.33.124.486.039.075-.041.138-.09.207-.136.075-.05.151-.075.234-.121.074-.041.148-.072.223-.1v-1.525l-.062-.04c-.109-.077-.328-.286-.447-.328zm-3.694 2.901c-.021-.205-.985-1.055-1.293-1.25h-.002c-.308-.194-1.151-.564-1.272-.634s-.173-.241-.281-.264c-.116-.024-.184.124-.263.186-.188.149-.44-.019-.671.105-.395.214-.755.499-1.117.775s-.43.457-.815.69c-.21.127-.658.334-.882.409l-.356.111c-.137.03-.42.14-.53.228-.205.164-.323.271-.492.459-.159.176-.337.351-.522.483-.421.3-.771.547-1.215.779-.224.117-.65.456-1.203.573-.155.033-.449-.003-.585.062-.24.113-.214.252-.375.472-.079.108-.712.352-.173.636.136.072 1.199.007 2.158.096 1.006.093 1.937.337 3.244.246.728-.05 1.454-.757 2.126-.776 1.538-.043 2.792.456 3.123.359.986-.288.335-1.924.541-2.252s.874-1.29.854-1.494zm-7.311-2.742l-.001-.004.398-.016a.44.44 0 0 0 .299-.115c.025-.022.063-.053.079-.079s.009-.037.019-.06.029-.026.033-.046c.01-.041.012-.105.016-.143a.39.39 0 0 0-.018-.16.5.5 0 0 0-.154-.238c-.061-.052-.15-.111-.196-.175 0 0-.105-.099-.175-.111s-.462.034-.686.032c-.193-.002-.403.099-.561.203l-.518.326-.597.374c-.066.026-.105.056-.145.078-.057.031-.093.036-.155.052-.114.029-.215.075-.319.123l-.139.072-.067.039c-.046.026-.064.025-.112.035-.134.031-.26.101-.387.156-.038.016-.135.039-.152.082-.032.081.106.09.157.108.107.038.266.03.382.016l.366-.06c.062-.008.13 0 .192 0 .073 0 .136-.017.207-.016.258.003.518-.078.765-.139a1.9 1.9 0 0 0 .367-.13c.111-.052.216-.144.333-.175.233-.058.518-.027.767-.027zm-5.929 5.502l-.001-.002c-.059-.009-.115-.044-.173-.058-.084-.021-.168-.026-.253-.039-.033-.005-.066-.021-.097-.02-.04 0-.073.026-.118.022l-.232-.02a2.26 2.26 0 0 0-.486.037c-.079.018-.149.021-.233.021-.09 0-.149.017-.233.038-.297.076-.619.04-.931.078-.082.01-.156-.011-.233-.021-.083-.01-.17.012-.253.002-.15-.018-.32-.039-.466-.002l-.193.059c-.085.021-.166.014-.253.024l-.485.039c-.157.019-.323.015-.486.015s-.323.034-.485.039l-.951.058c-.074.003-.151.027-.218.034-.084.009-.167.003-.247.024-.158.041-.323.117-.485.136-.079.01-.156 0-.233.018l-.252.059c-.158.035-.324.037-.485.057s-.33 0-.485.005-.505.112-.776.15-.738.252-.738.252 1.087.388 2.466.414c.74.014 1.564-.306 2.349-.347 1.32-.069 2.532.128 3.053.215 1.409.235 1.994-.352 2.023-.402a1 1 0 0 1 .141-.169c.094-.094.214-.133.316-.207.108-.08.2-.18.271-.295.027-.046.096-.114.069-.171-.035-.074-.146-.031-.208-.041zm-6.93-2.134l-.001-.001c-.11.042-.232.073-.355.088s-.256.007-.367.05c-.097.038-.198.056-.29.108-.048.027-.093.072-.135.104-.032.025-.178.066-.132.075s.281.004.329-.006l.133-.022c.035-.002.05.009.079.013.052.007.116.006.163.012a1.38 1.38 0 0 0 .347-.012c.224-.034.429-.089.639-.175l.541-.191.319-.067c.082-.021.254-.016.27-.136-.026-.02-.048-.016-.078-.019-.122-.011-.278-.017-.399 0l-.354.044c-.232.049-.48.046-.709.135zm13.113-2.323h0c.083.061.418.043.558-.019.036-.016.079-.046.115-.073.026-.019.062-.035.088-.055.035-.027.078-.049.113-.079a.66.66 0 0 0 .079-.079c.029-.034.18-.182.143-.28-.079-.038-.146-.006-.221.025s-.133.029-.222.036c-.153.012-.302.021-.446.063-.077.022-.126.069-.191.112-.048.032-.124.057-.164.107s-.381.177-.347.21.412-.029.494.032zm5.524-4.666c.175-.104.456-.202.332-.453-.108-.028-.201-.038-.306-.057s-.204-.047-.312-.077c-.152-.042-.306-.273-.489-.231l-.002-.001h-.155c-.256.032-.29.372-.148.535l.207.232c.062.085.114.159.22.193.238.077.458-.026.653-.142zm-3.722-.958c-.024.012-.031.029-.051.043-.031.022-.062.023-.089.039-.041.025-.096.072-.131.108-.074.074-.128.163-.186.243-.025.035-.064.071-.081.111-.03.071.006.077.073.095.121.032.199-.056.306-.087.122-.035.26-.025.383-.048.105-.019.244-.045.331-.112.19-.145-.229-.373-.347-.377-.031-.001-.049.023-.08.015h0c-.03-.007-.104-.044-.128-.032z" fill="url(#D)" class="B"/><path d="M22.683 19.684a.52.52 0 0 0-.161-.064c-.048-.011-.094-.034-.142-.048-.058-.017-.118-.026-.172-.051-.231-.106-.441-.261-.705-.267-.116-.003-.25-.026-.355-.059s-.178-.128-.284-.163c-.116-.038-.222-.055-.346-.028s-.227-.007-.339-.035c-.207-.052-.417-.131-.601-.243-.209-.127-.369-.264-.626-.186-.105.032-.184.109-.286.143a.75.75 0 0 1-.351.031c-.133-.016-.229-.066-.35-.112-.113-.042-.237-.036-.351-.083l-.208-.079c-.085-.026-.13-.022-.255-.028s-.425-.132-.431-.111c-.006.092.192.141.254.159.124.035.236.052.351.116.096.053.183.111.272.175s.156.159.243.23c.149.121.352.297.554.29.128-.004.266-.034.399-.015l.163.028.204.019c.115.022.179.14.208.238.031.108-.003.236.063.334.075.111.187.098.303.128.125.032.214.068.323.138l.634.37c.231.123.474.163.733.191a1.89 1.89 0 0 0 .379-.003c.122-.014.213-.052.323-.12.17-.105.404-.317.507-.372s.028-.179.066-.235.132-.128.109-.204c-.053-.01-.081-.053-.125-.081v-.002h0zm-1.262 2.874l.003.002c-.207-.079-.414-.191-.59-.27s-.096-.159-.303-.222-.749-.223-1.53-.238-2.407.572-2.87.699-.603-.048-.986.127-.392.316-.807.411-1.044.288-1.236.447-.048.254-.319.334-.46.332-.365.538.128.208.207.621-.071 1.021.016 1.032c.127.017.331.016.46.016a1.28 1.28 0 0 0 .383-.064c.123-.038.239-.107.367-.142l.749-.175a2.12 2.12 0 0 1 .398-.032c.123 0 .268.01.378-.036.091-.037.155-.118.244-.154.044-.018.095-.055.142-.065.068-.013.139-.01.208-.019.032-.004.06-.014.096-.012s.066.018.096.018c.063 0 .138-.018.207-.018.061 0 .131.009.191 0s.117-.045.176-.064c.101-.032.181-.116.27-.175s.182-.116.287-.155c.134-.05.255-.052.398-.052.063 0 .13-.008.191 0s.109.023.174 0c.1-.036.196-.104.284-.158.044-.027.086-.06.131-.079.061-.027.119-.028.187-.036l.386-.045c.133-.016.271.018.398.033.133.015.264.047.399.047.143 0 .248-.044.382-.076.068-.016.101-.013.163-.047.051-.028.102-.061.151-.103.055-.047.066-.103.112-.156l.128-.147c.116-.145.303-.203.463-.286.167-.086.333-.198.439-.358l.136-.197c.044-.078.051-.188.051-.283-.005-.002-.244-.383-.451-.462zm6.263-4.379h0c-.094-.114-.24-.14-.379-.178-.082-.023-.297-.119-.369-.204s-.181-.136-.224-.209a1.29 1.29 0 0 1-.14-.318 1.16 1.16 0 0 0-.047-.147c-.03-.077-.011-.102.064-.123.123-.035.224-.016.35 0 .133.017.26-.089.319-.191.064-.11.052-.208.004-.321-.043-.101-.099-.22-.115-.33-.018-.124-.019-.262-.049-.38-.057-.223-.062-.248-.302-.368-.218-.11-.4-.092-.642-.132-.12-.02-.224.024-.348.011-.054-.006-.116-.041-.174-.049-.066-.009-.14-.077-.207-.077-.112 0-.25-.059-.331.022-.029.029-.057-.002-.079.034-.017.025-.025.053-.048.077s-.062.038-.071.075c-.044.01-.072-.173-.112-.153-.056.028-.112.034-.172.051-.094.026-.159.126-.21.207s-.096.219-.175.283c-.093.074-.216.112-.316.163-.044.022-.097.043-.143.048l-.192.031-.383.047c-.067.007-.12.033-.191.033s-.138 0-.207 0c-.128-.001-.225.056-.338.076l-.506.068c-.091.011-.168-.018-.255-.017s-.177-.016-.271-.016h-.271c-.093 0-.17.022-.255.032s-.165.007-.255.016-.165.03-.252.05c-.039.116.178.172.252.188.118.026.244.012.367.016.138.004.25.074.366.14a1.1 1.1 0 0 0 .367.118c.134.02.201-.021.314-.087.094-.054.193-.123.308-.123.261 0-.095.329-.144.445s-.079.254-.079.254c-.007.041.016.122.036.155.032.051.091.072.139.1s.069.043.095.095c.03.057.019.122.049.175.055.101.232.045.33.067.107.024.178.111.255.175.192.157.427.133.656.187.238.057.484.093.734.13.127.019.258.062.382.076l.399.031c.322-.002.656.041.972.08.063.008.131.004.191.011l.207.019.431.065.366.094c.065.017.126.022.191.031.071.011.132.04.207.032.153-.015.181-.152.132-.274-.054-.13-.147-.208-.232-.31zm-6.001-.787h0c-.085-.05-.158-.103-.256-.126-.05-.012-.105-.013-.163-.012s-.106-.025-.159-.033c-.109-.015-.216-.02-.32-.058s-.184-.096-.287-.132-.23-.009-.334-.032c-.098-.021-.184-.059-.275-.108-.112-.059-.258-.029-.331-.019s-.243.061-.223.079.108.03.155.052l.151.072c.089.04.153.116.239.159.094.047.227.056.33.068.066.008.1.009.16.032s.115.036.173.067l.274.159c.124.058.243.048.379.063l.371.028c.08.006.287.047.287-.079.001-.077-.111-.143-.171-.179zm-7.158.476c-.083-.046-.209-.096-.308-.107-.064-.007-.251.322-.282.37-.021.031-.075.081-.113.094-.172.093.069.158.189.172s.21.08.335.08a.6.6 0 0 0 .331-.099c.114-.069.087-.157.024-.253s-.071-.198-.175-.256zm8.728-2.835h0c-.056-.034-.14-.022-.188-.036s-.096-.064-.096-.064c-.043-.007-.13.021-.172.035s-.11.041-.152.072c-.075.055-.222.137-.2.24.197.098.431-.01.623-.041.053-.009.262-.022.269-.099.002-.024-.062-.094-.085-.108zm-5.551-3.418h.002c-.064-.114-.298-.132-.371-.154-.199-.06-.242-.152-.453-.15-.194.002-.364-.094-.543-.155-.185-.063-.347-.073-.543-.049l-.623.05c-.195.018-.427.007-.622.05-.341.075-.669.353-1.06.253-.015-.011-.033-.018-.052-.02s-.078-.04-.156-.026-.191.095-.183.181c.007.092.194.146.261.155.199.028.302.047.501.046.204-.001.29.049.477 0 .085-.022.33-.059.415-.081.108-.028.358.002.464.025.205.044.382.045.591.063l.628.056c.196.027.344.119.545.077.173-.036.804-.018.951-.124.043-.032-.204-.145-.232-.197zm6.144 3.621s-.104-.011-.191.032-.366.088-.316.251c.078.037.174.006.252-.014.09-.023.19-.005.272-.046.062-.031.164-.073.192-.144.038-.097-.135-.079-.207-.079z" class="B I"/><path d="M34.964 8.491l-2.265.2c-.864.124-1.528.726-1.744.737a1.94 1.94 0 0 1-.658-.056 2.9 2.9 0 0 0-.621-.106c-.199-.014-.407-.008-.608-.002-.168.005-.328.038-.504.068-.212.035-1.033.446-1.244.447-.116.001-.229.031-.343.032-.101.001-.192.035-.289.039l-1.079.085a16.4 16.4 0 0 1-1.159-.004c-.366-.017-.709.485-1.063.473-.399-.013-.791.623-1.193.676-.364.048-.68.162-1.025.232-.375.077-.711.583-1.075.675-.38.096-.348.153-.738.106-.11-.013-.516-.02-.626-.034-.104-.012-.636-.321-.853-.321s-.399-.102-.619-.102-.461.083-.676.085c-.11.001-.369.053-.484.054s-.296.124-.402.133c-.22.02-.485-.006-.647.052s-.373.29-.362.335.156.084.212.098a2.92 2.92 0 0 0 .305.059c.212.025.378.055.569.153.069.035.116.093.181.13s.159.073.232.11c.168.084.325.122.494.172.077.022.158.065.237.073.108.011.223-.008.331.005a2.4 2.4 0 0 1 .541.129c.171.064.328.186.492.233.184.052.39-.025.596-.026.178-.001.375.06.544.102a4.43 4.43 0 0 0 .574.098c.206.024.39-.074.589-.098.101-.012.192 0 .285-.024a.67.67 0 0 1 .316-.007c.422.08.808.233 1.211.366a2.39 2.39 0 0 0 .569.129c.212.018.398-.018.621-.026h1.319c.113.003.226.11.337.123.101.012.206-.064.305-.04l.265.071c.079.021.248.025.307.067l-.023-.015 7.731.674 1.138.049V8.491h.001z" fill="url(#F)" class="B"/><g fill="url(#H)"><path d="M34.965 13.639v.002l-.976.003c-.475 0-.958.016-1.42-.044-.216-.028-.431 0-.645-.041l-.594-.097c-.221-.048-.426-.121-.656-.119h-.634c-.407 0-.811.083-1.215.033-.346-.043-.68.021-1.032.052l-.558.043c-.195.013-.367.081-.561.085-.133.003-.225.027-.376.025s-.376.152-.564.216c-.176.059-.395.12-.462.297.069.102.299.081.41.11.156.041.308.132.465.181l.596.18c.185.044.385.058.568.104.101.026.184.039.286.078a2.31 2.31 0 0 0 .26.075c.343.083.625.315.982.393.204.044.41.038.622.071.158.024.352.145.496.227.092.052.182.12.277.161.105.046.175.036.286.052.208.028.418.062.621.129.338.11.612.301.912.484.276.168.649.361.957.413.169.028.54-.005.9.154s1.047-.131 1.053-.129v-1.546-1.594h0z" class="B"/><path d="M.971 29.455c.131.049.065-.121.199-.089.116.028.417-.129.534-.103s.248.047.366.016.225-.09.335-.155c.215-.127.435-.229.687-.258.05-.005.106-.026.159-.033.065-.009.117.026.174.033.133.016.253.007.383-.001.119-.007.214-.065.319-.107l.383-.147c.06-.017.115-.047.175-.064.071-.02.134-.022.208-.031.124-.016.248-.033.382-.032.062 0 .113-.011.175-.016l.207-.015c.122-.015.237-.053.35-.081.257-.061.495.197.75.102a.89.89 0 0 1 .191-.051c.061-.009.126-.008.191-.015a1.06 1.06 0 0 0 .334-.112c.118-.059.224-.125.336-.194.055-.034.094-.072.16-.092s.12-.023.19-.033c.113-.015.241-.012.351-.046l.319-.096c.109-.028.229-.03.334-.067a2.93 2.93 0 0 0 .338-.151c.104-.052.177-.135.267-.199.047-.033.098-.047.148-.072.059-.03.081-.065.126-.115.072-.078.199-.133.3-.171.063-.024.399-.25.418-.286.03-.054.047-.105.072-.164l.128-.333c.041-.111.098-.199.112-.318.017-.13-.005-.261-.064-.378-.051-.104-.078-.217-.043-.337.03-.099.104-.195.155-.286.056-.098.117-.203.132-.318.008-.061-.001-.129-.001-.191 0-.075-.016-.122-.028-.191s-.01-.126-.019-.19-.043-.144-.064-.207c-.043-.126-.071-.246-.028-.381.034-.112.094-.214.177-.298.077-.077.176-.127.246-.215a.47.47 0 0 1 .275-.17c.12-.026.21.047.335.047.12 0 .226-.048.334-.079.056-.016.117-.019.175-.032s.106-.033.159-.048l.323-.108a1.13 1.13 0 0 1 .188-.035c.07-.008.119-.042.191-.047.123-.009.231-.05.351-.063.056-.006.115-.026.175-.032l.207-.016c.248-.03.5-.119.717-.223a.72.72 0 0 1 .159-.047c.061-.013.114-.04.176-.048s.128.008.191 0l.176-.031c.225-.025.47-.122.673-.219.099-.048.2-.09.302-.127l.14-.056c.057-.025.131-.017.192-.044l.282-.131a1.43 1.43 0 0 1 .351-.096c.242-.041.503-.128.753-.187.119-.028.232-.078.347-.131l.176-.078c.071-.035.139-.09.084-.152l-.002-.005c-.055-.062-.263-.184-.318-.206s-.121-.017-.163-.029-.082-.029-.124-.051c-.091-.048-.167-.115-.227-.191-.068-.086-.107-.201-.176-.298a1.25 1.25 0 0 0-.222-.237c-.092-.075-.194-.159-.303-.207s-.222-.061-.328-.102l-.322-.128c-.107-.044-.211-.068-.318-.107-.117-.042-.211-.133-.316-.211l-.258-.182a1.05 1.05 0 0 0-.319-.132c-.12-.023-.278-.064-.399-.035s-.216.117-.318.178-.265.104-.383.128-.243-.052-.335-.109c-.111-.07-.24-.111-.352-.182l-.338-.218c-.111-.085-.158-.21-.239-.318-.167-.223-.459-.264-.714-.287-.129-.012-.25-.022-.367-.067l-.367-.124c-.255-.063-.53-.064-.797-.064-.137 0-.262-.016-.399-.016-.07 0-.121-.016-.191-.016-.062 0-.129.006-.19-.003.04-.078.206-.111.285-.144.119-.05.222-.047.351-.062l.351-.059c.073-.02.263-.1.271-.191.005-.047-.039-.128-.049-.174-.013-.059-.013-.115-.035-.172-.036-.091-.093-.198-.171-.259-.083-.065-.201-.11-.304-.131-.092-.018-.245-.038-.299-.127s.068-.171.138-.222c.047-.034.096-.066.149-.088.046-.019.085-.05.139-.052s.619-.005.702-.044c.114-.053.214-.08.334-.115a1.03 1.03 0 0 1 .383-.032c.127.015.26.016.383.049.239.063.536-.003.781 0 .126.001.256-.016.383-.031.105-.013.273-.057.362.035s-.009.208-.059.283c-.04.059-.173.171-.141.251.114.056.216.022.332-.001l.367-.06c.178-.021.452-.113.495-.317.015-.073.017-.105.095-.139.072-.032.129-.036.207-.036l.382.016a1.03 1.03 0 0 0 .383-.068c.106-.044.19-.115.29-.166.08-.041.236-.062.112-.183-.066-.066-.189-.096-.275-.107-.112-.015-.237 0-.351 0a2.79 2.79 0 0 1-.329-.016c-.016-.008.033-.026.077-.045s.325-.035.508-.019l.287.032c.087.01.183.01.271.033a2.03 2.03 0 0 0 .526.063c.1 0 .176-.025.271-.06.049-.018.095-.027.14-.055.039-.025.076-.027.113-.047s.085-.072.131-.108c.015-.011.064-.041.076-.051.019-.016.038-.039.055-.057.073-.078.036-.207-.02-.29-.026-.038-.061-.067-.079-.11-.03-.074-.034-.106-.092-.164-.081-.082-.178-.156-.291-.187s-.216-.05-.334-.064c-.065-.008-.109-.002-.175 0s-.138-.022-.195-.028l-.379-.035c-.058-.006-.111-.022-.163-.004s-.104.056-.155.084c-.116.062-.301.091-.428.029-.015-.066.017-.099.077-.121.053-.02.117-.036.176-.035.081.001.301-.04.272-.159-.025-.101-.171-.164-.256-.202-.1-.046-.21-.1-.319-.115-.129-.017-.238 0-.355-.044-.106-.04-.214-.099-.315-.159-.218-.129-.442-.196-.685-.246l-.383-.061c-.122-.019-.192-.07-.291-.138-.039-.027-.084-.06-.128-.08-.06-.026-.107-.024-.172-.039l-.35-.092-.398-.079-.383-.064c-.128-.02-.255-.016-.383-.031-.135-.017-.258-.068-.398-.065-.123.003-.252.053-.367.079-.127.028-.266.016-.399.016-.224.001-.415-.162-.621-.239-.234-.088-.509-.08-.754-.107-.129-.015-.264 0-.395-.004-.067-.002-.126-.024-.191-.032s-.14 0-.207.001c-.119 0-.492-.072-.558-.08s-.138-.006-.195-.012c-.257-.029-.521.01-.762.043a1.5 1.5 0 0 1-.237.012l.28-.497.101.008c.125.015.269.033.399.018.096-.011.216-.269.302-.302.057-.022.115-.019.175-.032.244-.055.503-.047.766-.047.134 0 .282.018.414 0a2.62 2.62 0 0 1 .383-.031c.067 0 .124-.017.191-.016s.116-.026.175-.033c.131-.016.261.002.384-.03.258-.067.541-.047.813-.048.067 0 .124.016.191.016s.141-.009.207 0l.383.064c.259.03.518-.027.781.005s.531-.097.797-.097c.138 0 .251-.032.382-.049l.383-.03c.327-.038.64.003.957-.066.137-.029.285.024.43.013.063-.005.421-.023.381-.125h-.001c-.044.001-.119-.033-.158-.049-.064-.026-.138-.197-.207-.211-.058-.012-.098-.067-.159-.074l-.207-.016-.399-.031c-.151.001-.299-.047-.446-.067-.125-.017-.253-.045-.382-.044l-.383.016c-.12.001-.238.037-.349.013-.124-.026-.242.056-.368.012s-.268-.072-.399-.091l-.191-.032c-.069-.016-.136-.007-.207-.015s-.139-.041-.207-.049c-.077-.009-.149.001-.224-.016-.146-.033-.312-.016-.463-.016-.141 0-.278-.005-.414-.035-.148-.033-.3-.03-.446-.08l-.467-.151c-.078-.025-.165-.025-.239-.051s-.151-.05-.234-.068c-.281-.058-.571-.045-.862-.044-.168 0-2.058-.389-2.224-.408l-2.136-.214c-.822.101-2.103-.801-2.715-1.105C1.331 7.762.567 7.747 0 7.638v21.969c.103.01.205-.182.301-.158.225.058.445-.078.671.006z" class="B"/></g></g><path d="M15.808 3.085c.041-.102.755-.426.939-.325s.408-.02.572-.081.245-.061.469-.041.47.021.592-.02.98-.142 1.204-.203.531-.061.714-.061.551-.081.714-.081.49.02.633.041.347-.061.53.081.694.203.878.203.552.324.755.324.755.062.979.02.307-.061.388-.04.163.06.122.162-.224.122-.429.142-1 .183-1.265.102-.98-.041-1.123-.041-.368.061-.571.061-.96.162-1.144.06-.694-.162-.837-.102-.592 0-.918.041-.796-.081-.898-.061-.245.061-.347.061a8.05 8.05 0 0 1-.857-.081 4.22 4.22 0 0 0-.633-.081c-.143 0-.51.02-.469-.081h0z" class="B D E F G H"/><path d="M16.93 3.015c.032-.068.587-.283.731-.216s.317-.014.445-.054.19-.041.365-.027.365.014.46-.013.762-.095.937-.135a2.75 2.75 0 0 1 .556-.041c.143 0 .429-.054.555-.054s.381.014.492.027.27-.041.413.053.54.135.683.135.429.216.587.216.588.202.762.176.238-.122.302-.108.127.04.095.108-.245.081-.404.094-.707-.041-.913-.095-.762.054-.873.054-.286.04-.445.04-.746.108-.889.041-.539-.108-.651-.067-.46 0-.714.027-.62-.054-.699-.041-.19.041-.27.041-.508-.027-.667-.054-.381-.054-.492-.054-.396.013-.365-.054z" fill="url(#J)" class="B C"/><path d="M23.631 4.654c.035-.086.642-.362.799-.276s.347-.017.486-.069.208-.052.399-.035.399.018.503-.017.833-.121 1.024-.173.451-.052.608-.052.469-.069.608-.069a5.32 5.32 0 0 1 .538.035c.122.017.295-.052.452.069s.59.172.746.172.468.276.642.276.642.052.833.017.261-.052.33-.034.139.051.104.138-.191.103-.365.121-.85.155-1.076.086-.833-.035-.955-.035-.313.052-.486.052-.816.138-.972.052-.59-.138-.712-.086-.504 0-.781.034-.677-.069-.764-.052-.208.052-.295.052-.556-.034-.729-.069-.416-.069-.538-.069-.433.018-.398-.068h-.001v-.001z" class="B D E F G H"/><g class="C"><path d="M24.586 4.596c.027-.058.5-.241.621-.184s.27-.011.378-.046.162-.034.311-.023.311.012.392-.011.648-.08.797-.115.351-.035.473-.035.365-.045.473-.045a4.7 4.7 0 0 1 .419.023c.094.012.23-.034.351.046s.459.115.581.115.364.183.5.183.5.172.648.149.203-.103.256-.092.108.034.081.092-.209.069-.344.081a3.84 3.84 0 0 1-.777-.081c-.176-.046-.649.046-.743.046s-.243.034-.378.034-.635.092-.756.034-.459-.092-.554-.057-.392 0-.608.023-.527-.045-.594-.034-.162.034-.23.034-.432-.023-.567-.045-.324-.046-.418-.046-.336.012-.309-.045h-.001 0z" fill="url(#K)" class="B"/><path d="M0 63.661v-8.075c3.318.151 6.928-.149 10.266-.342 6.503-.376 6.758-4.279 9.892-4.671 4.569-.571 4.124-1.981 7.008-2.361 1.415-.186 2.793-.531 3.765-.48 1.861.098 2.763 1.327 4.033 1.335v14.593H0h0z" fill="url(#L)" class="B"/><path d="M69.793 29.071c.206-.328.874-1.29.853-1.495s-.985-1.055-1.293-1.25h-.002c-.309-.194-1.151-.564-1.272-.634s-.173-.242-.281-.264c-.116-.024-.184.124-.263.186-.188.149-.44-.019-.671.105-.395.214-.755.499-1.117.776s-.43.457-.815.69c-.21.127-.658.334-.882.409l-.355.111c-.137.03-.42.14-.53.228a3.67 3.67 0 0 0-.492.459 3.4 3.4 0 0 1-.522.483l-1.215.779c-.224.117-.65.456-1.203.573-.155.033-.449-.003-.585.062-.24.113-.214.252-.375.472-.079.109-.712.352-.173.636.136.072 1.198.007 2.158.096 1.006.093 1.937.337 3.244.246.728-.05 1.454-.757 2.126-.775 1.538-.043 2.792.456 3.123.359.986-.287.335-1.924.541-2.251zm-.474-.93a1.63 1.63 0 0 0-.258 1.148c.032.208-.253.486-.487.617-.229.129-.726.237-.983.234-.325-.004-1.573-.606-1.898-.643-.686-.077.26.917-.437.999-.666.078-.727-.113-1.417-.023-.412.053-.659.189-1.078.142-.266-.03-.244-.321-.459-.459-.041-.394-.199-.392.124-.572.241-.134.188-.254.587-.502l1.302-.78c.302-.185.653-.294.971-.464.259-.138.532-.366.795-.464l1.413-.766c.415-.324 1.319.107 1.652.384.409.34.484.685.174 1.148z" fill="#7cc0e1" class="B D"/></g><path d="M39.943 42.968s.398.38 1.345.4 1.345-.4 1.345-.4.399.347 1.345.4 1.345-.4 1.345-.4.432.347 1.345.4 1.345-.4 1.345-.4.399.347 1.345.4 1.345-.4 1.345-.4a3.48 3.48 0 0 0 1.344.4c.745.053 1.345-.4 1.345-.4s.467.413 1.345.4 1.344-.4 1.344-.4.6.38 1.345.4 1.345-.4 1.345-.4.434.413 1.345.4 1.344-.4 1.344-.4.467.38 1.345.4 1.345-.4 1.345-.4.534.413 1.345.4 1.345-.4 1.345-.4.435.347 1.345.4 1.345-.4 1.345-.4.535.38 1.345.4 1.345-.4 1.345-.4a2.3 2.3 0 0 0 1.345.4 2.64 2.64 0 0 0 1.203-.314m-34.82-4.16c0 0 .398.38 1.345.399s1.345-.4 1.345-.4.399.347 1.345.4 1.345-.4 1.345-.4.432.347 1.345.4 1.345-.4 1.345-.4.399.347 1.345.4 1.345-.4 1.345-.4a3.48 3.48 0 0 0 1.344.4c.745.053 1.345-.4 1.345-.4s.467.413 1.345.4 1.344-.4 1.344-.4a2.94 2.94 0 0 0 1.345.4c.745.02 1.345-.4 1.345-.4s.434.413 1.345.4 1.344-.4 1.344-.4.467.38 1.345.4 1.345-.4 1.345-.4.534.413 1.345.4 1.345-.4 1.345-.4.435.347 1.345.4 1.345-.4 1.345-.4.535.38 1.345.4 1.345-.4 1.345-.4.535.413 1.345.4a2.63 2.63 0 0 0 1.235-.331" stroke="#9c2124" stroke-dasharray="0.12268800000000002" fill="none" stroke-width=".028"/><g class="B C"><path d="M46.327 41.742c.049.032.12.056.196.056.113 0 .178-.059.178-.146 0-.078-.046-.125-.161-.168-.139-.051-.225-.124-.225-.243 0-.133.11-.232.276-.232.086 0 .151.02.187.042l-.03.09c-.027-.016-.083-.041-.16-.041-.116 0-.161.07-.161.128 0 .08.052.119.17.165.145.056.216.125.216.251 0 .132-.096.247-.297.247a.44.44 0 0 1-.218-.056l.029-.092zm.703-.152c.003.151.097.212.21.212a.4.4 0 0 0 .17-.032l.02.08c-.039.018-.107.039-.205.039-.189 0-.301-.125-.301-.31s.109-.329.287-.329c.201 0 .253.174.253.287a.27.27 0 0 1-.004.052h-.43 0zm.326-.08c.001-.07-.029-.18-.154-.18-.114 0-.162.103-.171.18h.325zm.675.219c0 .053.003.105.009.147h-.1l-.009-.077h-.004c-.034.048-.1.091-.187.091-.124 0-.187-.087-.187-.176 0-.148.132-.229.368-.228v-.013c0-.049-.014-.142-.139-.14-.059 0-.118.016-.161.046l-.025-.075a.4.4 0 0 1 .203-.053c.187 0 .233.128.233.249v.229h0zm-.108-.166c-.122-.003-.259.019-.259.138-.003.029.007.057.027.077s.048.031.077.029c.081 0 .133-.051.151-.103.004-.013.005-.025.005-.035v-.106zm.555-.586h.111v.898h-.111v-.898zm.36.613c.003.151.098.212.21.212.079 0 .129-.014.17-.032l.02.08a.5.5 0 0 1-.205.039c-.189 0-.301-.125-.301-.31s.109-.329.287-.329c.202 0 .253.174.253.287a.27.27 0 0 1-.004.052h-.43 0zm.327-.08c.002-.07-.029-.18-.154-.18-.114 0-.162.103-.171.18h.325zm.288-.247l.12.343.049.158h.004l.052-.158.119-.343h.116l-.241.613h-.106l-.233-.613h.119zm.614.327c.003.151.098.212.21.212.08 0 .129-.014.17-.032l.02.08a.5.5 0 0 1-.205.039c-.189 0-.301-.125-.301-.31s.109-.329.287-.329c.201 0 .253.174.253.287 0 .017-.001.035-.004.052h-.43 0zm.327-.08c.002-.07-.029-.18-.154-.18-.114 0-.162.103-.171.18h.325zm.245-.533h.111v.898h-.111v-.898zm.566.477l-.005-.191h.098l.005.122h.004c.028-.082.096-.134.171-.134.011 0 .02.001.03.003v.105c-.011-.003-.023-.003-.038-.003-.078 0-.134.058-.149.142-.003.017-.004.035-.004.052v.327h-.112v-.422zm.543-.363c0 .038-.027.068-.071.068s-.067-.03-.067-.068.028-.07.07-.07.068.03.068.07zm-.124.785v-.613h.111v.613h-.111zm.281-.113c.034.02.092.043.148.043.079 0 .117-.039.117-.091s-.032-.081-.113-.111c-.111-.041-.163-.1-.163-.173 0-.099.081-.18.211-.18.062 0 .116.016.149.038l-.027.081c-.037-.024-.081-.037-.125-.037-.066 0-.101.038-.101.084s.035.073.115.105c.105.039.16.092.16.184 0 .109-.084.185-.228.185a.35.35 0 0 1-.172-.043l.027-.084zm.578-.173c.002.151.097.212.21.212.079 0 .129-.014.17-.032l.02.08a.5.5 0 0 1-.205.039c-.189 0-.301-.125-.301-.31s.109-.329.287-.329c.201 0 .253.174.253.287a.27.27 0 0 1-.004.052h-.43 0zm.326-.08c.001-.07-.029-.18-.154-.18-.114 0-.162.103-.171.18h.325z" fill="#9c2124"/><path d="M44.937 43.291v-2.425h.922l-1.845-1.529-1.73 1.529h.884v2.435a3.28 3.28 0 0 0 .808.14c.428.024.742-.056.96-.15z" fill="url(#M)"/></g></symbol></svg>