<svg xmlns="http://www.w3.org/2000/svg" xmlns:xlink="http://www.w3.org/1999/xlink" viewBox="0 0 76 34" fill="#fff" fill-rule="evenodd" stroke="#000" stroke-linecap="round" stroke-linejoin="round"><use xlink:href="#F" x=".5" y=".5"/><defs><linearGradient id="A" x1="13.66%" y1="78.36%" x2="97.87%" y2="13.08%"><stop offset="14.6%" stop-color="#60676f"/><stop offset="95.8%" stop-color="#597b6e"/></linearGradient><linearGradient id="B" x1="81.28%" y1="105.66%" x2="16.66%" y2="8.16%"><stop offset="15.8%" stop-color="#88ab7a"/><stop offset="70.3%" stop-color="#597b6e"/><stop offset="100%" stop-color="#6b7c77"/></linearGradient><linearGradient id="C" x1="59.81%" y1="130.55%" x2="27.52%" y2="2.40%"><stop offset="15.8%" stop-color="#88ab7a"/><stop offset="57%" stop-color="#698b73"/><stop offset="79.4%" stop-color="#6a8375"/><stop offset="100%" stop-color="#6b7c77"/></linearGradient><linearGradient id="D" x1="52.31%" y1="85.32%" x2="35.96%" y2="5.82%"><stop offset="0%" stop-color="#759876"/><stop offset="52.7%" stop-color="#597b6e"/><stop offset="100%" stop-color="#6b7c77"/></linearGradient><linearGradient id="E" x1="33.47%" y1="15.86%" x2="73.23%" y2="161.08%"><stop offset="0%" stop-color="#c18345"/><stop offset="55.2%" stop-color="#8d7460"/><stop offset="87.9%" stop-color="#857163"/></linearGradient></defs><symbol id="F" overflow="visible"><g stroke="none" fill-rule="nonzero"><path d="M29.098 4.957l4.619-2.841L37.611.137c.684-.26.859-.087 1.37 0s.727.431 1.239.515.856-.13 1.284-.043.343.044.684.131.515 0 .515 0 .697 1.478.681 2.238-1.255 2.522-2.253 3.336c-.991.815-5.959 4.326-5.959 4.326l-6.07-5.683h-.004z" fill="url(#A)"/><path d="M68.541 19.598s-3.643-1.431-4.621-2.145-9.413-6.346-10.302-7.062-5.376-4.022-6.262-4.647-2.087-2.682-2.887-3.038S41.982.827 41.716.74s.224 1.519-.042 2.145-1.281 2.266-2.088 3.307-5.687 3.483-5.687 3.483l18.03 14.839 16.606-4.916h.006 0z" fill="url(#B)"/><path d="M26.831.887c2.948.959 9.675 5.399 9.675 5.399l6.269 5.638s7.989 6.489 7.603 9.282c-.226 1.631-5.867 2.977-5.867 2.977l-6.824 4.132-6.768-2.795-9.997-6.884-8.677-6.543s.498-2.161.956-2.72c1.012-1.231 11.145-7.771 11.145-7.771l2.486-.715z" fill="#787c7e"/><path d="M27.222 2.073c2.689.876 8.837 4.933 8.837 4.933l5.724 5.15s7.301 5.929 6.948 8.48c-.206 1.49-5.359 2.72-5.359 2.72l-6.237 3.776-6.181-2.555-9.133-6.287-7.923-5.979s.454-1.975.871-2.485c.926-1.124 10.181-7.099 10.181-7.099l2.274-.651z" fill="#6e7273"/><path d="M27.717 3.976c2.368.77 7.767 4.335 7.767 4.335l5.036 4.529s6.416 5.213 6.104 7.456c-.178 1.31-4.708 2.389-4.708 2.389l-5.484 3.318-5.436-2.245-8.028-5.528-6.966-5.254s.4-1.737.766-2.185c.814-.988 8.95-6.241 8.95-6.241l1.999-.575z" fill="#686c6e"/><path d="M27.962 6.134c1.905.62 6.248 3.488 6.248 3.488l4.048 3.64s5.163 4.191 4.91 5.994c-.146 1.053-3.788 1.922-3.788 1.922l-4.41 2.67-4.37-1.807-6.455-4.445-5.602-4.225s.321-1.396.615-1.758c.655-.793 7.199-5.016 7.199-5.016l1.603-.462z" fill="#606566"/><path d="M28.704 8.393c1.417.462 4.653 2.597 4.653 2.597l3.015 2.71s3.843 3.123 3.657 4.467c-.109.784-2.822 1.431-2.822 1.431l-3.283 1.988-3.255-1.345-4.81-3.31-4.174-3.15s.241-1.04.46-1.308c.488-.591 5.36-3.736 5.36-3.736l1.197-.345z" fill="#595e5f"/><path d="M28.633 10.033c.941.308 3.09 1.726 3.09 1.726l2.005 1.803s2.558 2.076 2.431 2.968c-.07.521-1.875.951-1.875.951l-2.181 1.323-2.166-.895-3.195-2.2-2.774-2.093s.16-.691.306-.867c.326-.396 3.561-2.485 3.561-2.485l.799-.23z" fill="#4e5254"/><path d="M31.313 13.577c.672.206 2.203 1.162 2.203 1.162l1.431 1.216s1.82 1.398 1.733 2.001c-.053.351-1.335.642-1.335.642l-1.556.891-1.546-.603-2.277-1.483-1.977-1.411s.113-.466.216-.588c.233-.264 2.542-1.674 2.542-1.674l.566-.154z" fill="#3d4142"/><path d="M21.685 17.681c2.656 0 8.79 1.653 12.512.937 3.429-.663 8.577-6.693 8.577-6.693 1.479.558 8.135 8.197 7.984 9.282-.225 1.631-5.866 2.977-5.866 2.977l-6.825 4.132s-5.161-1.925-6.768-2.795c-1.393-.755-11.006-7.839-9.614-7.839z" fill="#787c7e"/><path d="M45.412 29.218s-8.142-5.453-9.469-5.676c-.615-.103-1.875-.89-3.215-1.755-1.557-1.009-3.219-2.124-4.088-2.404-1.625-.52-12.147-7.768-13.477-8.289-.729-.285-1.709-.592-2.921.526-1.239 1.14-6.873 7.535-7.438 7.768C3.555 19.902 0 31.878 0 31.878l19.475.471 25.934-3.129.002-.002z" fill="url(#C)"/><path d="M36.827 26.166s3.322-3.565 4.564-3.682 4.531-1.647 5.031-2.139 1.143-1.284 1.319-1.59-.022-1.153.122-1.094 1.027.917 1.458 1.14 1.014 1.334 1.486 1.695l3.313 2.684c.467.407 4.958 3.702 5.471 4.115.522.415 2.576.864 2.576.864s-4.737 3.78-8.21 3.828-9.431-.609-10.342-1.634-7.394-1.24-8.327-1.706c-.926-.47 1.543-2.484 1.543-2.484l-.005.003z" fill="url(#D)"/><path d="M22.291 6.068l-.069 3.243c-.02.398.014.63.045 1.011.027.278.211.669.322.881.169.31.441.779.51.229.041-.307-.206-.624-.291-.883-.05-.149-.222-.359-.236-.531.135-.034.47-.258.57-.12.17.219-.086.643.115.788.112.087.526.577.539.143.045-1.096-.078-3.631-.07-4.388l.014-2.93c.256-.128.502.072.742.183.632.289 1.369.405 1.972.78.373.234.718.215 1.109.424.526.287 1.099.461 1.49 1.023.16.233.075.726.26.969.278.381.507.557.764.934.118.159.233 1.35.382 1.147.071-.095.164-1.229.199-1.4.114-.544.272-.604.071-1.136-.121-.323-.206-.792-.262-.926l-.5-.975c-.086-.161-.078-.476-.201-.572-.239-.181-.695-.62-1.072-.809l-2.782-1.322-.564-.316c-.187-.112-.621-.348-1.016-.498-.274-.105-.574-.39-.834-.489-.226-.084-.538-.326-.721-.329 0 0-.329 1.149-.345 1.608l-.138 4.26h0z" fill="#f4bb1f"/><path d="M22.718 5.242a582.41 582.41 0 0 1-.23 4.291c.174.018.544.198.661-.03l-.102-1.317-.166-1.583c-.009-.441-.096-.954-.164-1.361M23.364 1c1.04.466 1.884 1.024 3.224 1.809-.082-.004-1.232-.253-2.75-.662 0 0-.186-.648-.474-1.147"/><path d="M30.932 6.612l1.056-.025c.191-.004 1.031.05 1.227.155.365.193.163 1.057.374 1.443.289.528.805-.073 1.201.164.103.055.09.336.183.428.134.134.391.056.561.152.367.209.18.637.197 1.233.011.44.126.642-.161.828-.275.182-.816.006-1.111-.019-.492-.043-.958.1-1.442.062-.763-.055-1.55.023-2.317.004-.284-.006-1.318-.243-1.318-.243.009-.259-.086-.775.074-.876.279-.179.542.134.575-.287.02-.314-.046-.345-.169-.546-.175-.295-.196-.367-.298-.692-.134-.409-.325-.836-.288-1.324.629.122.852-.482 1.083.147.004-.199.668-.499.572-.604" fill="#f4bb1f"/><path d="M30.503 10.069c.024.237-.031.07.088.175.169.153.827.06 1.05.019.367-.064.797.067 1.167-.035.387-.104.297-.143.344-.684.117-1.341.402-2.303-.814-2.592-.272-.062-.777-.178-1.019.019-.052.041-.551.247-.607.339-.241.436-.08.89-.192 1.367-.039.155-.119.14-.065.294m3.237.76c-.003.217.201 1.098.288 1.015.075-.07.088-1.394.116-1.748.226-.085.46-.278.693-.302-.482-.009-1.107-.001-1.084.069l-.013.966h0zm-3.203 1.478c.21.352-.732.287-.861.26-.314-.069-.642-.1-.952.01-.25.092-.631.053-.865.209-.371.243-.318.76-.14 1.228.351.918 1.256.765 1.894.776l2.759.048 1.081.017c.408.032 1.092.177 1.477-.016.211-.109.519-.666.552-.999.032-.379-.033-.775-.234-.969-.328-.33-1.2-.168-1.584-.205-.135-.011-.263-.003-.396-.007-.277-.004-.554.005-.84-.022l.096-.429c-.638-.078-1.343.02-1.986.01m-7.478.308c.112.383-.466.852-.468 1.264 0 .439.067.94.32 1.18.278.27.906.015 1.258.075.277.049.677.12.963.063.175-.04.234-.016.42.006.066-.357-.133-.407-.351-.495.012-.291-.16-.069-.274-.217-.101-.135-.145-.458-.24-.651l-.705-1.373c-.126-.209-.534-.67-.794-.498-.137.095-.313.868-.222.956" fill="#231f20"/><path d="M32.095 7.422c-.465.043-1.055-.498-1.245.331-.063.292-.105.56.064.7.225.197.817.071 1.103.058.075-.284.075-.769.016-1.046"/><path d="M31.601 20.837s1.983 1.591 1.995 2.552c.014 1.469-2.806 3.562-2.551 5.009.245 1.389 4.355 2.396 4.355 2.396h7.105l9.801 1.11c3.313.114 9.936-.624 13.216-1.11C72.425 29.772 75 32.874 75 32.874s-.987-3.05-2.576-3.897c-4.397-2.341-14.669 1.182-19.357.985-2.358-.097-8.022-1.173-10.736-1.565-1.487-.215-6.008-.11-6.008-.11s-2.436-.982-2.349-1.701c.078-.664 1.418-2.071 1.588-2.716.224-.844-.937-1.884-.937-1.884l-3.024-1.149h0z" fill="url(#E)"/></g></symbol></svg>