<svg xmlns="http://www.w3.org/2000/svg" xmlns:xlink="http://www.w3.org/1999/xlink" viewBox="0 0 76 47" fill="#fff" fill-rule="evenodd" stroke="#000" stroke-linecap="round" stroke-linejoin="round"><style><![CDATA[.B{stroke-width:.075}.C{stroke-linejoin:miter}.D{fill:#939598}.E{fill-rule:nonzero}.F{stroke-linecap:butt}]]></style><use xlink:href="#H" x=".5" y=".5"/><defs><linearGradient id="A" y2="101.29%" x2="49.40%" y1="-1.29%" x1="50.60%"><stop stop-color="#5e9395" offset=".6%"/><stop stop-color="#6c9694" offset="34.4%"/><stop stop-color="#8e9f90" offset="94.3%"/></linearGradient><linearGradient id="B" y2="64.68%" x2="93.25%" y1="25.51%" x1="-16.44%"><stop stop-color="#808285" offset="0%"/><stop stop-color="#bcbec0" offset="100%"/></linearGradient><linearGradient id="C" y2="0.00%" x2="50.00%" y1="100.00%" x1="50.00%"><stop stop-color="#5e9395" offset=".6%"/><stop stop-color="#6c9694" offset="34.4%"/><stop stop-color="#8e9f90" offset="94.3%"/></linearGradient><linearGradient id="D" y2="50.00%" x2="0.00%" y1="50.00%" x1="100.00%"><stop stop-color="#7faa7f" offset="0%"/><stop stop-color="#749670" offset="100%"/></linearGradient><linearGradient id="E" y2="50.02%" x2="100.05%" y1="50.02%" x1="-0.02%"><stop stop-color="#7faa7f" offset="0%"/><stop stop-color="#749670" offset="100%"/></linearGradient><linearGradient id="F" y2="52.93%" x2="70.08%" y1="47.07%" x1="29.93%"><stop stop-color="#d7c39a" offset="0%"/><stop stop-color="#aa8d6b" offset="100%"/></linearGradient><linearGradient id="G" y2="104.29%" x2="49.81%" y1="-4.27%" x1="50.19%"><stop stop-color="#d7c39a" offset="0%"/><stop stop-color="#aa8d6b" offset="100%"/></linearGradient></defs><symbol id="H" overflow="visible"><g stroke="#414042"><g class="B E"><path d="M6.765 42.714h43.167L65.142 3.659H33.487z" fill="url(#A)" class="C"/><path d="M48.779 33.289l4.182-10.443c1.082-2.639 1.869-5.506 1.167-8.595s-2.149-6.404-3.687-7.47-3.586-1.541-6.313-2.28-6.669-1.32-8.603-1.389-4.917.043-4.917.043l-.478 1.052 9.113.495c3.146.401 5.653 1.217 5.653 1.217l4.114 2.563 2.762 5.445s-.17 5.735-1.048 7.716c-2.752 6.205-8.501 16.067-8.501 16.067l6.557-4.422z" fill="url(#B)"/></g><path d="M33.66 3.359v1.202" fill="none" class="B C F"/><g class="E"><path d="M10.115 33.286s14.598-8.876 19.27-12.402 10.123-9.044 10.123-9.044l4.933 2.004s-6.035 7.359-10.329 11.101-17.441 12.766-17.441 12.766l-6.556-4.425z" fill="#bcbec0" class="B"/><path d="M39.508 11.84l4.933 2.004-1.658-5.011-2.603-.91z" fill="#a7a9ac" class="B"/><path d="M15.309 41.223h29.166V37.56s-.15.139-.281.146-.464-.146-.464-.146-.283.128-.463.146-.51-.146-.51-.146-.403.152-.603.146-.464-.146-.464-.146-.166.139-.417.146-.556-.146-.556-.146-.223.152-.464.146-.51-.146-.51-.146-.283.139-.557.146-.556-.146-.556-.146-.216.139-.51.146-.464-.146-.464-.146-.294.139-.556.146-.556-.146-.556-.146-.387.128-.696.146-.556-.146-.556-.146-.314.128-.649.146-.51-.146-.51-.146-.104.175-.464.146-.417-.146-.417-.146-.375.152-.603.146-.417-.146-.417-.146-.245.139-.649.146-.649-.146-.649-.146-.366.139-.649.146-.464-.146-.464-.146-.314.116-.649.146-.649-.146-.649-.146-.206.139-.556.146-.602-.146-.602-.146-.207.139-.51.146-.556-.146-.556-.146-.137.139-.464.146-.557-.146-.557-.146-.292.152-.602.146-.51-.146-.51-.146-.244.116-.51.146-.464-.146-.464-.146-.192.152-.464.146-.51-.146-.51-.146-.323.139-.603.146-.51-.146-.51-.146-.011.139-.417.146-.556-.146-.556-.146-.178.152-.464.146-.464-.146-.464-.146-.259.139-.556.146-.51-.146-.51-.146-.208.175-.464.146-.417-.146-.417-.146-.123.128-.464.146-.464-.146-.464-.146-.092.163-.417.146-.606-.293-.606-.293v3.81z" fill="url(#C)" class="B C"/><path d="M40.18 7.923l2.603.91-4.191-3.016 1.588 2.106" class="B D"/><g class="C"><path d="M37.217 4.723c-1.984-.756-7.499-1.028-7.499-1.028S18.174 13.422 13 19.281C9.23 23.55 0 33.288 0 33.288l10.114-.003s14.598-8.876 19.27-12.402 10.123-9.044 10.123-9.044l.673-3.917c0 .001-1.092-2.487-2.963-3.199z" fill="url(#D)" class="B"/><path d="M48.78 33.288l4.182-10.443c1.082-2.639 1.561-6.671 1.167-8.595s-2.937-6.096-3.892-6.956-3.38-2.055-6.107-2.794-6.669-1.012-8.603-1.081l-4.917-.265L34.155.231s16.805-.375 24-.169l16.548.617-14.062 32.61h-11.86z" fill="url(#E)" class="B"/></g><path d="M48.78 33.288l4.182-10.443c1.082-2.639 1.561-6.671 1.167-8.595s-2.937-6.096-3.892-6.956-3.38-2.054-6.107-2.794-6.669-1.012-8.603-1.081l-4.917-.265.257-.222 4.267.144c2.335.064 9.798.069 14.8 3.495 2.432 1.747 4.547 5.587 4.984 8.265.572 3.507-.188 5.541-.496 6.878s-4.264 11.575-4.264 11.575h-1.376z" class="B D"/><path d="M60.639 45.573V33.288L74.701.678v10.931z" fill="url(#F)" class="B"/></g><path d="M38.928 20.12l-3.962-3.943m-7.401 13.826l-4.608-4.755m23.464 4.957l5.311-4.312m-1.108-4.01l3.478-3.675m-2.329-4.28l1.452-1.968M49.01 8.483l.708-1.608m-4.79-.935l.332-1.087m-5.857-.135V3.708" fill="none" class="B C F"/><g class="E"><path d="M37.217 4.723c-1.984-.756-7.499-1.028-7.499-1.028l-.287.243c2.881.282 5.685.446 7.474 1.151.816.321 2.281 2.002 2.588 2.898-.141 1.324-.363 2.129-.649 3.627L33.135 17.1C29.028 21.068 8.838 33.288 8.838 33.288l1.276-.003s14.598-8.876 19.27-12.402 10.123-9.044 10.123-9.044l.672-3.917c0 .001-1.092-2.487-2.963-3.199z" class="B D"/><path d="M10.114 33.285l6.557 4.425 9.841 1.179 1.476 1.772h2.916l1.476-1.772 9.841-1.179 6.557-4.422h11.86v12.285H0V33.288z" fill="url(#G)" class="B"/><path d="M10.115 33.285l6.557 4.425 9.841 1.179 1.476 1.772h2.916l1.476-1.772 9.841-1.179 6.557-4.422h1.376l-7.418 5.316-9.928 1.304-1.38 1.712h-3.802l-1.546-1.712-9.861-1.304-7.382-5.316z" class="B D"/></g></g></symbol></svg>