<svg xmlns="http://www.w3.org/2000/svg" xmlns:xlink="http://www.w3.org/1999/xlink" viewBox="0 0 76 55" fill="#fff" fill-rule="evenodd" stroke="#000" stroke-linecap="round" stroke-linejoin="round"><style><![CDATA[.B{stroke-width:.037}.C{stroke:#967d5f}.D{fill-rule:nonzero}.E{fill:none}.F{stroke-width:.075}]]></style><use xlink:href="#b" x=".5" y=".5"/><defs><linearGradient id="A" x1="0.00%" y1="50.00%" x2="100.00%" y2="50.00%"><stop offset=".6%" stop-color="#89ac7b"/><stop offset="100%" stop-color="#c3bd92"/></linearGradient><linearGradient id="B" y2="11.96%" x2="49.11%" y1="99.96%" x1="52.24%"><stop stop-color="#008fc9" offset="0%"/><stop stop-color="#2c9dcd" offset="16.7%"/><stop stop-color="#51a9d0" offset="33.8%"/><stop stop-color="#6fb3d2" offset="51%"/><stop stop-color="#84bad4" offset="67.9%"/><stop stop-color="#91bed5" offset="84.4%"/><stop stop-color="#95bfd5" offset="100%"/></linearGradient><linearGradient id="C" x1="50.00%" y1="100.00%" x2="50.00%" y2="0.00%"><stop offset="26.4%" stop-color="#daf0f4"/><stop offset="99.4%" stop-color="#fff"/></linearGradient><linearGradient id="D" x1="100.00%" y1="50.00%" x2="0.00%" y2="50.00%"><stop offset="0%" stop-color="#345647"/><stop offset="100%" stop-color="#003d3b"/></linearGradient><linearGradient id="E" y2="50.00%" x2="0.12%" y1="50.00%" x1="99.95%"><stop stop-color="#466c5a" offset=".6%"/><stop stop-color="#0b4947" offset="100%"/></linearGradient><linearGradient id="F" y2="50.00%" x2="-0.12%" y1="50.00%" x1="99.95%"><stop stop-color="#466c5a" offset=".6%"/><stop stop-color="#0b4947" offset="100%"/></linearGradient><linearGradient id="G" x1="100.00%" y1="50.00%" x2="-0.00%" y2="50.00%"><stop offset=".6%" stop-color="#466c5a"/><stop offset="100%" stop-color="#0b4947"/></linearGradient><linearGradient id="H" y2="49.98%" x2="-0.01%" y1="49.98%" x1="100.01%"><stop stop-color="#345647" offset="0%"/><stop stop-color="#003d3b" offset="100%"/></linearGradient><linearGradient id="I" y2="50.00%" x2="-0.18%" y1="50.00%" x1="99.99%"><stop stop-color="#345647" offset="0%"/><stop stop-color="#003d3b" offset="100%"/></linearGradient><linearGradient id="J" y2="43.33%" x2="-2.13%" y1="58.83%" x1="100.30%"><stop stop-color="#8ed8f8" offset=".6%"/><stop stop-color="#daf0f4" offset="100%"/></linearGradient><linearGradient id="K" y2="38.02%" x2="-0.24%" y1="51.21%" x1="99.73%"><stop stop-color="#8ed8f8" offset=".6%"/><stop stop-color="#daf0f4" offset="100%"/></linearGradient><linearGradient id="L" y2="11.06%" x2="49.91%" y1="105.94%" x1="49.91%"><stop stop-color="#daf0f4" offset="26.4%"/><stop stop-color="#fff" offset="99.4%"/></linearGradient><linearGradient id="M" x1="49.34%" y1="104.21%" x2="54.15%" y2="-2.39%"><stop offset="0%" stop-color="#4a694a"/><stop offset="100%" stop-color="#789747"/></linearGradient><linearGradient id="N" y2="20.28%" x2="99.33%" y1="86.67%" x1="-8.41%"><stop stop-color="#008fc9" offset="0%"/><stop stop-color="#4ba7cf" offset="28.7%"/><stop stop-color="#80b8d3" offset="51.8%"/><stop stop-color="#95bfd5" offset="62.9%"/><stop stop-color="#95bfd5" offset="87.1%"/><stop stop-color="#b9e3eb" offset="100%"/></linearGradient><linearGradient id="O" x1="51.04%" y1="-0.23%" x2="49.74%" y2="100.84%"><stop offset=".6%" stop-color="#8ed8f8"/><stop offset="100%" stop-color="#daf0f4"/></linearGradient><linearGradient id="P" y2="50.00%" x2="100.00%" y1="50.00%" x1="-0.00%"><stop stop-color="#345647" offset="0%"/><stop stop-color="#003d3b" offset="100%"/></linearGradient><linearGradient id="Q" y2="50.01%" x2="99.99%" y1="50.01%" x1="-0.03%"><stop stop-color="#466c5a" offset=".6%"/><stop stop-color="#0b4947" offset="100%"/></linearGradient><linearGradient id="R" y2="50.02%" x2="99.92%" y1="50.02%" x1="-0.09%"><stop stop-color="#345647" offset="0%"/><stop stop-color="#003d3b" offset="100%"/></linearGradient><linearGradient id="S" y2="50.00%" x2="100.00%" y1="50.00%" x1="0.01%"><stop stop-color="#345647" offset="0%"/><stop stop-color="#003d3b" offset="100%"/></linearGradient><linearGradient id="T" x1="-0.52%" y1="316.89%" x2="102.17%" y2="-215.09%"><stop offset="0%" stop-color="#daf0f4"/><stop offset="99.4%" stop-color="#fff"/></linearGradient><linearGradient id="U" x1="0.53%" y1="281.84%" x2="100.30%" y2="-191.33%"><stop offset="0%" stop-color="#daf0f4"/><stop offset="99.4%" stop-color="#fff"/></linearGradient><linearGradient id="V" x1="50.77%" y1="7.07%" x2="48.37%" y2="104.02%"><stop offset=".6%" stop-color="#8ed8f8"/><stop offset="100%" stop-color="#daf0f4"/></linearGradient><linearGradient id="W" y2="50.02%" x2="100.00%" y1="50.02%" x1="-0.01%"><stop stop-color="#466c5a" offset=".6%"/><stop stop-color="#0b4947" offset="100%"/></linearGradient><linearGradient id="X" y2="50.01%" x2="99.99%" y1="50.01%" x1="0.01%"><stop stop-color="#466c5a" offset=".6%"/><stop stop-color="#0b4947" offset="100%"/></linearGradient><linearGradient id="Y" y2="-2.04%" x2="45.54%" y1="103.52%" x1="51.07%"><stop stop-color="#4a694a" offset="0%"/><stop stop-color="#789747" offset="100%"/></linearGradient><linearGradient id="Z" y2="-1.99%" x2="45.26%" y1="101.45%" x1="50.77%"><stop stop-color="#4a694a" offset="0%"/><stop stop-color="#789747" offset="100%"/></linearGradient><linearGradient id="a" y2="-1.95%" x2="45.19%" y1="103.62%" x1="50.74%"><stop stop-color="#4a694a" offset="0%"/><stop stop-color="#789747" offset="100%"/></linearGradient></defs><symbol id="b" overflow="visible"><g class="D"><path d="M74.702 11.047l-10.1 30.895H0l2.509-5.854c2.857-5.907 6.737-12.641 6.737-12.641l8.129-11.307s2.104-1.076 2.852-1.093 3.712-.622 8.654-3.574 9.049.642 10.589 1.348 6.674-1.797 8.022.77c.458.872 3.781 1.202 7.955 1.329l19.253.127z" stroke="#645030" fill="url(#A)" class="F"/><g stroke="none"><path d="M30.149 27.206c-1.245-.317-1.08-.669-1.858-.921s-1.808.238-2.631.046-1.733-1.208-1.733-1.208-2.053-2.908-1.284-3.692c2.729-2.783.749-3.8 2.783-5.565 2.791-2.423 4.763-.856 6.45-.475.488.11 1.235.454 1.94.293 1.09-.248 2.213-1.29 3.316-1.463 4.187-1.183 8.606-1.453 12.404-1.503 3.225-.041 8.067-1.886 10.363-1.635-1.999.128-7.894 2.105-10.278 2.355-1.587.166-3.029.357-4.202.628-.813.189-7.866 1.836-7.337 3.017.959 1.748 7.342.162 9.527 3.172.845 1.164-9.598 2.765-11.105 3.958-1.284 1.017 9.935 2.858 11.047 2.692 1.023-.095.894-5.256 4.288-5.446s5.165.307 5.509.084c.402-.261.211-.97.623-1.228 2.009-1.155 4.63-.24 5.346-.844.215-.199.502-.677.615-1.34.136-.798-.075-1.72.025-2.253.271-1.436.461-1.614.518-1.767.368-.987 2.157-2.898 2.531-2.848.146.019-1.696 1.908-2.106 3.121-.067.199-.383 1.914-.232 3.352.088.837 1.45.871.572 1.875-.843.964-4.53.76-5.786 1.698-.419.313.312 2.113-.558 2.416-1.806.63-5.568-.244-6.176.407-1.78 1.908.694 3.652.801 3.667 1.96.277 3.557.552 4.422.828 2.743.874 4.34 3.042 2.924 4.946-.422.568-1.536 1.967-5.652 3.672-1.053.437-21.611 4.453-22.678 4.644-1.579.284-2.373-.098-2.373-.098 1.512-.059 4.582-3.166 8.975-4.607 1.837-.602 3.956-.956 5.157-2.004 1.807-1.574 9.364-3.31 3.713-4.761-5.551-1.425-12.33-1.98-14.31-2.355s-2.305-.545-3.55-.862z" fill="#937f57"/><path d="M32.112 16.239s-2.729-1.294-4.012-.909-1.412 1.797-1.925 2.118-.77 1.605-1.155 2.118-1.091 1.348-.963 2.76 1.026 2.567 1.669 2.824 3.53.449 3.53.449-3.401-1.925-3.594-3.081.128-1.604.577-2.695 1.668-1.669 2.053-1.925.77-1.219 1.476-1.476 1.733-.193 1.733-.193l.608.009z" fill="#c1b697"/></g><path d="M65.029 15.355c.395-1.935 1.52-3.506 1.756-3.805-.258.265-1.622 1.517-2.269 3.356-.515 1.464.064 2.888-.257 3.786s-4.364 1.027-5.326 1.412-.45.513-1.284 1.54-6.217-1.017-7.424 2.029c-.292.967-.663 1.263-.938 2.506-.256 1.155-1.541 1.165-3.023 1.097l-3.931-.508c-4.6-.79-5.302-1.416-5.155-1.916.082-.277.391-.539.853-.787 3.739-1.069 10.505-2.468 9.844-3.38-2.186-3.012-8.569-1.425-9.528-3.173-.527-1.181 6.524-2.829 7.337-3.017 1.215-.281 2.78-.551 4.508-.812 2.32-.35 6.996-2.249 9.705-2.603-2.88-.056-6.466 1.729-9.744 1.922-4.912.288-10.862.92-15.73 2.751-.052.02-.52.181-.518.435 0 1.091-1.834-.008-2.054-.064s-.321-.128-1.348-.128-.898 0-1.348.321-.578 1.732-1.733 1.861-1.155 1.668-1.733 2.182-.449 2.952.321 4.107 3.722 1.54 4.621 1.476 4.813-1.219 4.813-.128 7.146 3.46 12.741 4.827c.816.199 1.395.403 1.781.61l.011-.007c2.653 1.424-3.839 2.994-5.417 4.368-1.201 1.047-3.263 1.567-5.157 2.004-2.482.572-4.935 2.422-6.907 3.496-.95.518-1.988.656-2.398.735s-4.911.215-4.911.215l1.083 11.509h37.192V41.887c-.23-.817-5.751-2.006-5.184-3.95.574-1.973 2.429-3.364 2.851-3.933 1.417-1.904-.181-4.071-2.924-4.946-1.047-.334-4.571-.819-5.708-1.003s-1.269-3.05-.197-4.186c1.091-1.155 5.642.388 6.63-1.391.332-.596-.129-1.668 1.091-1.925s4.236-.385 5.198-1.091-.575-2.219-.191-4.104z" stroke-linejoin="miter" fill="url(#B)" stroke="#007db0" class="F"/></g><path d="M30.165 41.778c.284.122.679.211 1.195.153 1.222-.137 1.493-.55 1.493-.55s.543.688 1.902.55 2.037-.55 2.037-.55a1.67 1.67 0 0 0 1.493.55c.95-.137 1.63-.55 1.63-.55s.543.55 1.629.55 1.766-.55 1.766-.55.543.825 2.036.55 1.901-.55 1.901-.55.679.55 1.63.55 1.901-.55 1.901-.55.95.688 2.037.55 2.037-.55 2.037-.55.678.55 1.901.55 1.766-.55 1.766-.55.274.55 1.497.55 1.563-.487 1.563-.487.83.489 1.992.442" stroke="#007db0" class="E F"/><g class="D"><path d="M15.479 40.447c2.968 1.395 10.811.92 14.91 1.344-6.219 1.554-1.954 11.781-1.954 11.781H.001v-11.63s12.51-2.889 15.478-1.494zm59.223-29.4v9.771L63.466 53.572V41.885z" stroke="#645030" fill="#937f57" class="F"/><g stroke="#231f20" class="B"><path d="M64.358 5.279c-.164.056-.393-.055-.532.153s-.703 0-.703 0-.486-.208-.689 0-2.018-.542-2.018-.542.699-.386.841-.816.448-.807.668-1.033.614-.383.771-.69.236-.973.521-.911.458.421.741.646.561.479.772.532.848.935 1.286 1.14 1.473 1.41 1.473 1.41-.755.808-1.068.739-1.899-.683-2.065-.628z" fill="url(#C)"/><path d="M49.451 11.336c-.13-.312 1.24-1.443 1.266-1.771.024-.308.297-.134.433-.477.104-.262.558-.564.799-.75.261-.2.227-1.104.551-1.298a4.51 4.51 0 0 0 .556-.378c.402-.338.937-.928 1.692-1.015.416-.047.375.103.681.003.235-.077.472-.225.713-.319.298-.116.214-.182.521-.202.121-.009.256.101.404.105.573.016 1.145-.335 1.529-.601.579-.4 1.235-1.29 1.515-1.339s1.646 1.103 2.296.93c.179-.048.322-.264.475-.295.075-.015.197-.091.306-.031s.138.099.23.087.163-.115.253-.142c.326-.098.862-.377 1.179-.328.365.055.908.629 1.237.798.345.176.727.352 1.169.406.374.047 1.218-.103 1.497.033.348.171.824.049.954.096s.419.422.718.684c.424.37.845 1.444 1.109 1.457s.751 1.662 1.175 1.703l.979 1.707-2.638-.224c-.815-.133-1.687-.141-2.546-.072-2.356.189-4.483.809-6.682 1.349-1.097.27-1.485-.443-2.538-.427-.648.011-2.148.358-2.438.332l-.901-.072c-1.586-.079-3.947.1-5.495.2.005-.027-1.035-.138-1.001-.15z" fill="url(#D)"/><path d="M60.091 3.974s-.216-.669.193-.746c.359-.067 1.204.396 1.334.285.218-.185.569-.349.647-.352.176-.004.471-.177.517-.146s-.23.855-.23.855l-2.461.105z" fill="url(#E)"/><path d="M62.417 4.979c-.399-.024-.781-.796-1.059-.922-.032-.223.423-.353.623-.265.257.112.223-.411.391-.335.122.056.316-.475.435-.448.363.08.497.223.75.636.029.046.346.056.412.133-.371.232-1.056 1.231-1.554 1.201z" fill="url(#F)"/><path d="M60.294 5.05c-.22.087-.633.373-.79.645s-1.388.395-1.607.725-2.522.208-2.486.356c.004.015.452.336.909.486.206.067.457-.002.674.029.263.039.483.17.592.172.102.002.398.031.672.017.172-.008.271.095.443.102.241.008.376.048.497.125.229.142-.292.251.049.324.389.082.768.189 1.18.412s.385.196.632.26c.809.21 1.324.192 1.434.16.338-.102-.684-1.961-.684-1.961s-.795-1.989-1.019-1.989-.276.051-.496.138z" fill="url(#G)"/><path d="M54.877 6.722s-.245-.769.111-.911c.35-.138 1.066-.373 1.273-.591s.474-.206.474-.206l-.097 1.847-1.76-.139z" fill="url(#H)"/><path d="M55.904 6.849c.167-.359.058-.701.368-1.018s.291-.839.462-.816c.527.071.612.33 1.087.969.071.096.471.362.634.528-1.239.535-1.103.408-2.55.336z" fill="url(#I)"/><path d="M58.459.065c-.161.088-.656.601-.785.915s-.461.52-.636.898c-.071.153-.711.825-1.118.983-.598.233-2.582 3.471-2.573 3.578.005.066 2.082-1.339 2.578-1.125.31.133.981-1.326 1.399-1.198.709.219 1.416.729 1.416.729l.712-1.964s-.434-2.424-.591-2.44-.243-.464-.403-.377z" fill="url(#J)"/><path d="M58.571 2.073c-.163.115-.481.517-.617.915s-1.016.495-1.2.977-2.017 1.456-2.005 1.682c.001.023.533.301.841.559.138.117 4.099 1.814 4.18 1.773.247-.128-.301-3.006-.301-3.006s-.377-3.058-.534-3.074-.2.058-.363.174z" fill="url(#K)"/><path d="M59.78 6.692c.039.028.284.046.41-.035l.306-.182c.07-.031.314-.033.527-.086.141-.036.323-.177.504-.234.191-.06.384-.034.633-.004.115.014.25.175.329.21.311.136.369.244.732.135.502-.151.747-1.473.747-1.473l-1.547-1.774c-.212-.206-.129.288-.383.072-.299-.255-.554-.927-.775-1.207-.238-.14-.446-.818-.707-1.176-.211-.291-.361-.231-.631-.337-.275-.163-.622-.098-.719-.217-.15-.185-.347-.325-.437-.356-.157-.053-.278-.025-.312.037s.214.081.108.434.363.914.222 1.422c-.121.432.395 1.637.306 2.051-.13.596.606 1.98.577 1.981 0 0-.058.617.109.739z" fill="url(#L)"/><path d="M59.983 3.417c-.221.087-.494.252-.651.524s-.722.33-.941.661c-.088.133-1.176.724-1.737.889-.825.245-1.395 1.127-1.374 1.215.014.056 1.178 1.398 1.894 1.535.447.085.799-.31 1.396-.237a9.62 9.62 0 0 1 2.072.545l.956-2.862s-.795-1.99-1.02-1.99-.378-.368-.598-.281z" fill="url(#E)"/><path d="M62.35 8.848c.058.02.404.014.576-.064l.417-.178c.097-.031 2.343.694 2.594.632.265-.066 3.893-.38 3.741-.728-.227-.516-.794-.479-1.059-.826s-.701-1.169-1.285-1.805l-1.059-1.187c-.678-.689-.843-1.093-1.509-1.196-.464-.029-.777 1.709-1.029 1.638-.346-.098-.737-.175-1.13-.453-.321-.226-.702-.319-.968-.513l-1.22-.808c-.316-.112-.4-.055-.437.057-.045.055.308.05.186.354s.581.733.421 1.171c-.136.371.682 1.336.586 1.689-.139.51 1.005 1.605.965 1.607.002 0-.036.522.212.61z" fill="url(#G)"/></g><path d="M50.621 11.652c.186.278 1.047-.351 1.275-.258-.245.499.569.098.866.073.339-.029.712.116.954.075.279-.047.223-.117.6-.157.157-.016.427.127.706.188.32.07.652-.258.652-.258s-.061-.56-.376-1.05c-.141-.218-.208-.253-.293-.388-.122-.194-.163-.272-.354-.321-.077-.019-.157-.207-.223-.214s-.233-.743-.367-.862c-.08-.071-.092-.186-.215-.186-.328.001-.297.288-.753.209s-.785 1.169-1.35 1.239-.703 1.147-2.243 1.67c1.004.073.935-.038 1.12.24z" fill="url(#M)" class="B C"/></g><g class="E"><path d="M51.623 10.435c.471-.084.465-.21.844-.264.054-.008.2-.004.249-.001.397.021.477.369.626.396" class="B C"/><path d="M52.258 10.943c.471-.083.492-.325.87-.38.054-.008.2-.003.25-.001.397.021.477.368.626.396m.464-1.614s-.274.005-.446.19l-.349.347c-.255.245-.471.271-.471.271" class="B C"/></g><g class="D"><path d="M66.358 11.354l.041-.046c.009-.016-.006.001-.042.046z" stroke="none" fill="url(#N)"/><g stroke="#231f20" class="B"><path d="M66.295 7.172c.092.037.222-.036.3.1s.397 0 .397 0 .274-.136.388 0 1.137-.356 1.137-.356-.394-.254-.474-.535-.253-.529-.377-.678-.347-.252-.435-.453-.133-.639-.293-.598-.259.276-.418.424-.316.314-.435.349-.477.614-.725.749-.83.926-.83.926.425.53.602.485 1.067-.449 1.161-.412z" fill="url(#O)"/><path d="M74.697 11.148c.074-.205-.699-.947-.713-1.163-.014-.202-.168-.088-.244-.313-.059-.172-.315-.37-.45-.492-.147-.132-.128-.725-.31-.852a2.5 2.5 0 0 1-.313-.249c-.227-.222-.436-.517-.862-.574-.234-.031-.303-.024-.476-.09-.132-.05-.266-.147-.402-.21-.167-.076-.12-.119-.293-.132-.068-.006-.144.066-.228.069-.323.011-.645-.22-.862-.394-.327-.263-.696-.847-.854-.879s-.928.723-1.294.611c-.101-.031-.181-.173-.267-.194-.042-.01-.111-.059-.172-.02s-.078.065-.13.057-.091-.075-.142-.094c-.184-.064-.486-.247-.664-.215-.206.036-.513.413-.698.524-.194.116-.409.231-.658.266-.211.031-.687-.067-.844.022-.196.112-.464.032-.538.062s-.236.277-.405.45c-.239.243-.476.948-.625.956s-.662.924-.901.951l-.313 1.287 1.487-.147c.459-.087.95-.092 1.435-.047 1.328.124 2.527.531 3.766.885 1.14.327 2.185-.044 3.311-.11.894-.052 2.225.066 3.097.132-.008-.017.58-.09.56-.099z" fill="url(#P)"/><g fill="url(#Q)"><path d="M68.7 6.317s.122-.439-.109-.49c-.202-.044-.678.26-.752.187-.123-.121-.321-.229-.364-.231-.1-.003-.266-.116-.291-.096s.13.561.13.561l1.386.069z"/><path d="M67.39 6.975c.225-.016.441-.522.597-.605.018-.147-.238-.231-.351-.174-.145.073-.126-.27-.22-.22-.069.037-.179-.311-.246-.294-.204.053-.28.146-.422.417-.016.03-.236-.003-.272.048.209.152.635.846.916.827z"/><path d="M68.587 7.022c.124.058.357.245.445.423s.783.26.906.477 1.421.136 1.401.234a1.84 1.84 0 0 1-.513.319c-.116.044-.258-.002-.38.019-.148.026-.271.111-.333.113s-.224.02-.379.011c-.097-.005-.153.062-.249.067-.136.006-.212.031-.28.082-.13.093.164.164-.028.212a2.15 2.15 0 0 0-.665.27c-.233.146-.217.128-.356.171-.456.137-.746.126-.808.105-.19-.067.385-1.287.385-1.287s.448-1.305.575-1.305.152.034.278.09z"/></g><path d="M71.639 8.119s.137-.505-.062-.598-.602-.245-.718-.388-.267-.136-.267-.136l.055 1.213.993-.091z" fill="url(#R)"/><path d="M71.06 8.202c-.094-.236-.032-.46-.208-.668s-.163-.551-.26-.536c-.297.046-.345.217-.612.637-.04.063-.265.238-.357.346.698.352.62.268 1.437.221z" fill="url(#S)"/><path d="M69.621 3.75c.091.058.37.395.442.6s.259.342.358.59c.04.1.4.542.629.645.337.153 1.455 2.278 1.45 2.349-.003.044-1.173-.879-1.453-.738-.175.087-.553-.87-.788-.786-.4.143-.799.478-.799.478l-.401-1.289s.244-1.591.333-1.601.135-.305.226-.247z" fill="url(#T)"/><path d="M69.558 5.067c.092.075.271.339.348.601s.573.325.677.641 1.278 1.049 1.271 1.197c-.001.016-.441.104-.615.274-.078.077-1.699.864-1.794.938-.311.246-.516.253-.562.225-.139-.084.17-1.973.17-1.973l.301-2.017c.09-.01.112.037.205.114z" fill="url(#U)"/><path d="M68.875 8.1c-.022.018-.16.03-.231-.023l-.172-.12c-.04-.021-.178-.021-.297-.056-.079-.023-.182-.116-.284-.153-.108-.04-.217-.022-.357-.002-.065.009-.141.115-.186.138-.175.089-.208.16-.412.088-.283-.099-.422-.967-.422-.967s.499-.794.719-1.017c.12-.135.227.042.37-.1.169-.168.312-.608.437-.793.134-.092.252-.537.398-.772.119-.191.204-.151.356-.221.154-.107.35-.064.405-.143.085-.122.196-.213.246-.234.088-.035.157-.016.176.025s-.121.053-.061.285-.205.6-.125.933c.068.284-.223 1.074-.172 1.346.072.391-.342 1.3-.326 1.3 0 0 .033.406-.061.486z" fill="url(#V)"/><path d="M68.761 5.95c.124.058.278.166.367.344s.407.216.53.434c.049.087.663.475.979.583.466.161.786.74.775.798-.008.037-.664.917-1.068 1.007-.252.056-.518-.273-.855-.226-.573.081-.911.366-.911.366l-.728-1.816s.448-1.306.574-1.306.214-.242.338-.184z" fill="url(#W)"/><path d="M67.427 9.515c-.032.013-.228.009-.324-.043l-.235-.117c-.055-.021-1.321.455-1.462.415-.15-.043-2.194-.249-2.108-.477.128-.339.447-.314.597-.542s.396-.767.724-1.185l.597-.779c.382-.453.475-.717.85-.786.261-.019.438 1.122.58 1.076.195-.064.415-.115.637-.297.181-.149.395-.209.545-.337l.687-.53c.178-.073.225-.035.246.038.025.036-.173.033-.105.232s-.327.481-.237.768c.077.244-.384.877-.33 1.109.078.334-.567 1.053-.544 1.055-.002 0 .019.343-.12.4z" fill="url(#X)"/></g><path d="M74.037 11.356c-.105.183-.59-.23-.719-.17.137.328-.364.077-.532.061-.191-.019-.358.063-.494.037-.157-.031-.14-.038-.352-.064-.088-.011-.226.044-.383.084-.18.046-.367-.17-.367-.17s.034-.368.212-.69c.079-.143.117-.166.165-.254.069-.127.092-.179.2-.21.043-.013.089-.136.126-.141s.131-.488.207-.566c.046-.047.052-.123.121-.122.185 0 .167.189.424.136s.443.768.761.814.41.717 1.278 1.061c-.502.117-.539.01-.644.193z" fill="url(#Y)" class="B C"/></g><g class="E"><path d="M73.471 10.556c-.266-.054-.262-.137-.476-.173-.03-.005-.113-.002-.141 0-.223.013-.269.242-.353.26" class="B C"/><path d="M73.115 10.891c-.265-.055-.277-.213-.49-.249-.031-.005-.113-.002-.141-.001-.223.014-.269.242-.353.26m-.262-1.059c0 0 .154.003.251.124l.197.228c.144.161.266.178.266.178" class="B C"/></g><path d="M69.708 11.478c-.175.304-.998-.214-1.213-.113.23.547-.805.14-1.085.113-.319-.032-.371-.057-.599-.102-.262-.052-.299-.292-.653-.335-.147-.018-.311.302-.573.369-.301.076-.612-.283-.612-.283s.057-.613.353-1.149c.132-.239.195-.276.275-.424.115-.212.153-.298.332-.351.072-.021.147-.226.209-.234s.218-.813.345-.943c.075-.077.086-.204.202-.203.308.002.279.315.707.228s.737 1.279 1.268 1.356.704 1.272 2.15 1.846c-.94.08-.929-.079-1.104.226z" fill="url(#Z)" class="B C D"/><g class="E"><path d="M68.78 10.164c-.442-.091-.438-.229-.794-.289a1.54 1.54 0 0 0-.234-.001c-.372.023-.448.403-.588.433" class="B C"/><path d="M68.183 10.721c-.444-.091-.462-.355-.818-.415a1.58 1.58 0 0 0-.234-.001c-.373.023-.449.403-.588.433m-.436-1.765c0 0 .258.005.419.207l.328.38c.24.268.443.297.443.297" class="B C"/></g><path d="M67.147 12.005c-.175.304-.983-.384-1.198-.283.23.547-.497-.066-.776-.094-.319-.031-.706.301-.933.256-.262-.052-.298-.292-.653-.335-.147-.018-.312.302-.573.368-.3.076-.612-.283-.612-.283s.057-.613.353-1.149c.133-.238.195-.276.276-.424.115-.212.152-.298.332-.351.072-.021.147-.226.209-.235s.219-.813.345-.943c.075-.078.086-.204.201-.203.309.001.279.315.708.228s.737 1.279 1.268 1.356.66 1.254 2.107 1.827c-.94.08-.874-.041-1.05.263z" fill="url(#a)" class="B C D"/><g class="E"><path d="M66.206 10.673c-.443-.091-.437-.229-.793-.289-.051-.008-.188-.004-.234-.001-.373.023-.449.402-.588.433" class="B C"/><path d="M65.609 11.229c-.442-.091-.462-.355-.818-.415-.051-.008-.187-.004-.234-.001-.372.023-.448.403-.588.434m-.435-1.765c0 0 .258.005.419.207l.328.38c.24.268.442.297.442.297" class="B C"/></g><path d="M58.807 12.309c.278.416 1.565-.524 1.906-.387-.366.747.792-.091 1.236-.129.508-.043 1.124.411 1.485.35.418-.07.476-.398 1.039-.457.234-.024.496.412.913.503.478.104.974-.387.974-.387s-.091-.838-.561-1.57c-.21-.326-.31-.378-.437-.579-.183-.29-.243-.407-.529-.479-.115-.029-.235-.309-.333-.32s-.348-1.111-.548-1.288c-.12-.106-.138-.278-.321-.277-.491.002-.444.431-1.125.311s-1.173 1.748-2.019 1.852-1.051 1.714-3.353 2.497c1.499.109 1.395-.057 1.673.359z" fill="url(#M)" class="B C D"/><g class="E"><path d="M60.223 10.528c.705-.125.696-.313 1.263-.395.081-.012.299-.005.373-.001.593.031.713.55.935.592" class="B C"/><path d="M61.173 11.289c.705-.124.735-.486 1.301-.567.081-.012.299-.005.373-.002.593.031.714.551.936.592m.646-2.396s-.362-.009-.619.267l-.522.52c-.382.365-.704.405-.704.405" class="B C"/></g></symbol></svg>