<svg xmlns="http://www.w3.org/2000/svg" xmlns:xlink="http://www.w3.org/1999/xlink" viewBox="0 0 76 47" fill="#fff" fill-rule="evenodd" stroke="#000" stroke-linecap="round" stroke-linejoin="round"><use xlink:href="#B" x=".5" y=".5"/><defs><linearGradient id="A" y2="-10.73%" x2="48.45%" y1="113.46%" x1="51.84%"><stop stop-color="#0f97c2" offset="0%"/><stop stop-color="#95bfd5" offset="100%"/></linearGradient></defs><symbol id="B" overflow="visible"><g stroke="#231f20" stroke-linejoin="miter" fill-rule="nonzero" stroke-width=".088"><path d="M71.104 21.074l-66.419-.08c-.021 0-.136-19.963-.136-19.963C6.43.948 9.923.367 9.923.367s1.785.648 3.955.593C16.036.9 16.197.691 16.293.691c.117 0 1.165-.371 1.165-.371s1.678.682 3.773.627c2.106-.059 3.655-.639 3.655-.639s2.255.768 4.115.639c1.87-.136 3.517-.652 3.517-.652s1.518.691 3.805.665 3.666-.64 3.666-.64 2.053.695 3.998.653S47.601.32 47.601.32s2.255.742 3.933.627c1.689-.119 3.581-.639 3.581-.639s1.689.721 3.891.639c2.191-.089 3.613-.652 3.613-.652s1.902.746 3.923.665c2.01-.085 4.564-.709 4.564-.709v20.822z" fill="url(#A)"/><path d="M72.139 0c-4.219-.006-9.483 3.632-14.8 7.391-1.722 1.217-10.301 2.484-11.752 3.705-4.529 3.808-4.712 7.165-10.659 7.16-5.632-.004-5.654-3.236-9.313-7.167-.953-1.023-7.314-2.094-8.623-3.168C12.88 4.547 6.442.298 3.316.296 3.015.289 1.417.293 0 .299v44.747h74.859V.023l-2.72-.021z" fill="#b6a190"/></g></symbol></svg>