<svg xmlns="http://www.w3.org/2000/svg" xmlns:xlink="http://www.w3.org/1999/xlink" viewBox="0 0 76 64" fill="#fff" fill-rule="evenodd" stroke="#000" stroke-linecap="round" stroke-linejoin="round"><style><![CDATA[.B{stroke-linecap:butt}.C{stroke-width:.171}.D{stroke-linejoin:miter}.E{fill:none}.F{stroke:none}.G{fill-rule:nonzero}.H{stroke-dasharray:0.7894150000000001}.I{stroke-width:.284}]]></style><use xlink:href="#I" x=".5" y=".5"/><defs><linearGradient id="A" y2="50.00%" x2="102.53%" y1="50.00%" x1="2.26%"><stop stop-color="#e6e7e8" offset="0%"/><stop stop-color="#a7a9ac" offset="100%"/></linearGradient><linearGradient id="B" y2="109.77%" x2="110.39%" y1="-1.35%" x1="0.31%"><stop stop-color="#b99b79" offset="0%"/><stop stop-color="#8f704c" offset="100%"/></linearGradient><linearGradient id="C" y2="274.37%" x2="120.23%" y1="-173.16%" x1="-8.26%"><stop stop-color="#e4d3c0" offset="0%"/><stop stop-color="#bfa07d" offset="100%"/></linearGradient><path id="D" d="M15.39 47.365L.176 39.86v15.009l15.176 7.167.037-14.671z"/><path id="E" d="M40.097 4.137L47.2 0l5.621 2.357-7.948 4.883-4.775-3.103z"/><path id="F" d="M11.966 18.938l7.105-4.137 5.618 2.357-7.948 4.884-4.774-3.103z"/><path id="G" d="M17.765 46.243L2.929 38.806.415 39.859l15.284 7.505 2.066-1.121z"/><path id="H" d="M17.831 61.421l-2.544.713.066-14.77 2.446-1.019.033 15.076z"/></defs><symbol id="I" overflow="visible"><path d="M12.496 45.021c2.376-.986 54.181-28.814 57.245-30.072 2.959-2.139 6.161 1.493 4.509 5.466-3.924 2.512-55.249 30.991-60.653 33.876-.757-2.647-1.515-6.281-1.101-9.27z" class="B C D E H"/><use xlink:href="#D" fill="url(#A)" class="F G"/><g class="D E"><use xlink:href="#D" class="C"/><g class="B"><path d="M34.482 29.587l3.475-2.141m-5.575.983l3.477-2.138" stroke="#fff" class="I"/><g class="C H"><path d="M40.264 14.324l-.176-10.373 4.746 3.189-.058 10.083-4.512-2.9z"/><path d="M52.956 12.915l-.172-10.686-7.95 4.711-.058 10.457 8.18-4.481z"/></g></g></g><use xlink:href="#E" fill="#939598" class="F G"/><g class="D E"><g class="C"><use xlink:href="#E"/><path d="M66.326 16.746c-2.746-1.225-12.916-6.297-15.376-7.306-2.504-1.808-5.214 1.263-3.815 4.624 2.029 1.299 6.833 4.091 11.307 6.624" class="B H"/></g><path d="M41.988 3.994l2.969 1.782M43.59 3.016l2.941 1.811m-1.369-2.789l2.94 1.811m-1.164-2.787l2.942 1.81" stroke="#fff" class="B I"/><g class="C H"><path d="M12.134 29.124l-.175-10.373 4.745 3.191-.055 10.083-4.514-2.901z" class="B"/><path d="M24.828 27.715l-.173-10.685-7.951 4.712-.055 10.457 8.18-4.483z" class="B"/></g></g><use xlink:href="#F" fill="#939598" class="F G"/><g class="D E"><g class="C"><use xlink:href="#F"/><path d="M38.305 31.593c-2.57-1.132-12.991-6.332-15.485-7.355-2.504-1.808-5.214 1.264-3.815 4.624 2.062 1.32 6.98 4.176 11.509 6.739" class="B H"/></g><path d="M13.858 18.794l2.968 1.782m-1.368-2.759l2.944 1.81m-1.37-2.789l2.941 1.811m-1.168-2.787l2.942 1.81" stroke="#fff" class="B I"/></g><use xlink:href="#G" fill="#d1d3d4" class="F G"/><use xlink:href="#G" class="C D E"/><use xlink:href="#H" fill="#808285" class="F G"/><use xlink:href="#H" class="C D E"/><g class="F G"><path d="M7.06 46.55c-2.098 0-3.785 1.971-3.785 4.414 0 2.411 1.687 4.415 3.785 4.415 2.066 0 3.749-2.004 3.749-4.415 0-2.444-1.684-4.415-3.749-4.415z" fill="#6d6e71"/><path d="M9.158 47.397c-.55.24-1.65 1.564-2.992 2.346-1.138 1.288-2.203 2.647-3.511 4.684-.104.17-1.514 1.429-2.202 4.992-2.239 1.495 4.474 3.871 6.125 2.887.413-.441 1.756-7.572 3.718-9.032.687-1.221 1.1-4.652-1.138-5.874z" fill="url(#B)"/><path d="M3.103 52.965c-.93 1.123-1.55 2.445-1.378 5.638 2.273-2.039 1.17-1.936 3.614-5.532 1.307-1.766 1.895-1.938 2.615-4.79-1.823 1.052-3.715 3.26-4.85 4.684z" fill="url(#C)"/></g></symbol></svg>